<?xml version="1.0" encoding="utf-8"?>
<!-- Generator: Adobe Illustrator 24.3.0, SVG Export Plug-In . SVG Version: 6.00 Build 0)  -->
<svg version="1.1" id="Слой_1" xmlns="http://www.w3.org/2000/svg" xmlns:xlink="http://www.w3.org/1999/xlink" x="0px" y="0px"
	 viewBox="0 0 400 220" style="enable-background:new 0 0 400 220;" xml:space="preserve">
<style type="text/css">
	.st0{fill:#868686;}
	.st1{fill:#1D1D1B;}
</style>
<g>
	<g>
		<g>
			<path class="st0" d="M370.3,134.9c-0.1-0.2-0.3-0.5-0.4-0.7c0,0-12.5-14.8-12.8-15.1c0.1-0.1,13.1-15.4,13.2-15.7
				c0.2-0.4,0.3-0.8,0.3-1.3c0-0.2,0-0.4,0-0.6c0-0.2-0.1-0.4-0.2-0.5c-0.1-0.2-0.3-0.5-0.4-0.6c-0.2-0.2-12.9-12.9-13-13
				c-0.2-0.2-0.4-0.4-0.6-0.5c-0.5-0.3-1-0.4-1.6-0.4H338c-1.2,0-2.5,0.6-3.2,1.5c0,0-0.7,0.8-1.6,1.8l-2.2-2.3
				c0.1,0.1-1.4-1.1-2.6-1.1h-13.1c-1.7,0-3.1,1.1-3.5,2.6c-2.8-1.9-6.8-3.8-11.7-3.8c-5,0-9.6,1.8-13.2,4.7l-2.4-2.4
				c-0.7-0.7-1.6-1.1-2.6-1.1h-13.1c-2,0-3.7,1.7-3.7,3.7v1.4c-2.2-2.9-5.8-5.1-11-5.1h-22.7c-2.1,0-3.7,1.7-3.7,3.7v0.6
				c-2.2-2.8-5.6-4.3-9.5-4.3h-21.1c-2.1,0-3.7,1.7-3.7,3.7V92c-2.2-3.1-5.9-5.5-11.3-5.5h-22.7c-0.6,0-1.1,0.1-1.6,0.4
				c0.8-2.9,1.2-8.3-5.3-11.5c-4.8-2.4-9.2,0.5-11.2,2.1c-2.7-0.7-5.5-1-8.6-1c-3.1,0-6,0.4-8.7,1.2c-1.8-1.5-6.3-4.8-11.4-2.3
				c-6.3,3.1-6.1,8.3-5.4,11.2c-0.3,0-0.6-0.1-0.8-0.1H80.1c-2,0-3.7,1.7-3.7,3.7v2.5l-4.6-4.6c-2.6-3.7-6.8-5.7-11.7-5.7H34.4
				c-2.2,0-4,1.8-4,4v38.6l0.1,0.8c0.2,0.9,0.7,1.7,1.4,2.3c0,0,0,0-0.1,0l12.5,12.5c0.1,0.2,0.3,0.4,0.5,0.5l0,0
				c0.5,0.4,1.1,0.7,1.8,0.8c0.2,0,0.5,0.1,0.7,0.1h27.8c1.5,0,3-0.2,4.4-0.5c0.9-0.2,1.8-0.5,2.7-0.9c1-0.4,1.9-1,2.8-1.6
				c0.1-0.1,0.2-0.1,0.2-0.2c1.2-0.9,2.3-2,3.2-3.2l2,1.9c0.7,0.7,1.6,1.1,2.6,1.1h31.5c1.3,1.3,2.7,2.4,4.2,3.3
				c0.6,0.4,1.3,0.8,2,1.1c1.5,0.8,3.2,1.4,4.9,1.9c0.4,0.1,0.8,0.2,1.2,0.3c1.6,0.4,3.4,0.7,5.2,0.8c1.1,0.1,2.1,0.1,3.2,0.1
				c2.7,0,5.2-0.3,7.3-0.8c1-0.2,2-0.5,2.9-0.8c0.3-0.1,0.5-0.2,0.7-0.3c0.6-0.2,1.2-0.5,1.7-0.7c0.4-0.2,0.6-0.4,0.9-0.7
				c0-0.1,0.1-0.1,0.1-0.2c0.1-0.1,0.1-0.3,0.2-0.5c0.1-0.3,0.2-0.5,0.2-0.8v-9.6c1.3,0,2.5-0.2,3.6-0.5c0.1,0,0.2-0.1,0.3-0.1
				c0,0,6.4,6.3,6.5,6.4c0.7,0.5,1.5,0.9,2.4,0.9H182c0.9,0,1.7-0.3,2.4-0.9c0.1-0.1,0.2-0.1,0.3-0.2c0.7-0.7,1.1-1.6,1.1-2.6
				c0,0,0-2.2,0-2.8c0,0,5.2,5.2,5.5,5.4l0,0c0.9,0.6,2.1,1.1,3.2,1.1h38.2c1.5,0,3-0.2,4.3-0.6c1.3-0.4,2.5-0.9,3.5-1.6l0.6,0.6
				c0.3,0.4,0.7,0.8,1.2,1.1c0.5,0.3,1.2,0.5,1.8,0.5h10.1c1.3,0,2.5-0.7,3.1-1.7c0.4-0.6,0.6-1.3,0.6-2c0,0,0-2.2,0-2.8
				c0,0,5.2,5.2,5.5,5.4c0,0,0,0,0,0c0.3,0.2,0.7,0.4,1,0.6l0,0c0.2,0.1,0.3,0.1,0.5,0.2c0.6,0.2,1.2,0.3,1.7,0.3h28.1
				c2,0,3.7-1.7,3.7-3.7v-0.5c1.4,1.4,3,2.5,4.8,3.4c0.6,0.3,1.2,0.6,1.8,0.8c0.4,0.2,0.9,0.3,1.3,0.5c2.1,0.7,4.3,1.1,6.6,1.1
				c3.2,0,5.9-0.6,8.1-1.6c0.6-0.2,1.1-0.5,1.6-0.7c0.3-0.2,0.7-0.4,1-0.6c0.4-0.2,0.8-0.5,1.2-0.8l0.2,0.2c0.3,0.5,0.7,0.9,1.2,1.2
				l0,0c0.2,0.1,0.4,0.2,0.7,0.3c0.4,0.2,0.8,0.2,1.3,0.2h13.1c1,0,1.9-0.4,2.6-1.1c0.2-0.2,0.4-0.5,0.6-0.8
				c0.3-0.5,0.5-1.1,0.5-1.8c0,0,0-0.5,0-0.6l2.7,2.7c0.4,0.4,0.9,0.8,1.5,1.1c0.1,0.1,0.3,0.1,0.4,0.1c0.5,0.2,0.9,0.3,1.4,0.3
				h16.8c0.3,0,0.6,0,0.9-0.1c0.8-0.2,1.4-0.7,1.7-1.4c0.1-0.2,0.1-0.4,0.2-0.6c0-0.2,0.1-0.4,0.1-0.6c0-0.3-0.1-0.7-0.2-1
				C370.4,135,370.3,135,370.3,134.9z"/>
		</g>
	</g>
	<g>
		<path class="st1" d="M71.4,101.3c2.4-7.1-1.3-16.5-11.3-16.5H34.4c-0.9,0-1.6,0.7-1.6,1.6v38.6c0,0.1,0,0.2,0.1,0.3
			c0.1,0.7,0.8,1.3,1.6,1.3c0,0,21.2,0,27.8,0C77.3,126.8,80.3,108.7,71.4,101.3z M54.3,92.8c1.9,0,3.5,1.6,3.5,3.5
			c0,1.9-1.6,3.5-3.5,3.5c-1.9,0-3.5-1.6-3.5-3.5C50.8,94.3,52.3,92.8,54.3,92.8z M54.3,118.5c-2.3,0-4.1-1.8-4.1-4.1
			c0-2.3,1.8-4.1,4.1-4.1c2.3,0,4.1,1.8,4.1,4.1C58.4,116.7,56.5,118.5,54.3,118.5z"/>
		<path class="st1" d="M91.2,110c-0.8,0-1.4-0.6-1.4-1.3v-2.3c0-0.7,0.6-1.4,1.4-1.4H99c0.8,0,1.4-0.6,1.4-1.3v-3.8h3.6
			c0.5-3.4,1.7-6.6,3.4-9.5v-0.1c0-0.7-0.6-1.4-1.4-1.4H80.1c-0.7,0-1.4,0.6-1.4,1.4v31.8c0,0.7,0.6,1.3,1.4,1.3h29.3
			c-3-3.7-4.9-8.3-5.6-13.5H91.2z"/>
		<path class="st1" d="M150.7,85c-4.7-4.1-10.9-6.1-18.5-6.1c-7.6,0-13.9,2.5-18.9,7.4c-5,4.9-7.5,11.2-7.5,18.7
			c0,7.9,2.4,14.2,7.2,18.9c4.8,4.7,11.2,7,19.3,7c2.5,0,4.8-0.2,6.7-0.7c1.9-0.5,3.5-1,4.9-1.6c0,0,3.8-1.5,2.9-3.8
			c-0.9-2.4-2.9-1.2-2.9-1.2c-1.5,0.7-3.3,1.2-5.5,1.6c-2.2,0.4-4.3,0.5-6.1,0.5c-5.8,0-10.6-1.8-14.4-5.4
			c-3.7-3.6-5.6-8.8-5.6-15.4c0-6.1,2-11.2,5.9-15.2c3.9-4,8.6-6,13.9-6c5.9,0,10.6,1.7,14.2,5.1c3.6,3.3,5.4,8,5.4,14.1
			c0,1.7-0.4,3.5-1.3,5.6c-0.9,2.1-2.4,3.1-4.6,3.1c-0.9,0-1.6-0.3-2.1-0.8c-0.4-0.6-0.6-1.6-0.6-3.1c0-2.5,0-7.4,0.1-14.5h-6
			c0,1.2,0,2,0,2.6c-0.5-0.8-1.2-1.5-2.2-2c-1-0.5-2.2-0.8-3.6-0.8c-3.7,0-6.6,1.1-8.6,3.4c-2,2.3-3,5.2-3,8.7c0,4.2,1,7.2,2.8,9
			c1.9,1.8,4.2,2.7,6.9,2.7c2.5,0,4.3-0.4,5.6-1.3c1.2-0.8,2.2-2.2,2.8-4.1c0.4,2,1.2,3.3,2.5,4.1c1.3,0.8,3.2,1.2,5.8,1.2
			c3.5,0,6.3-1.5,8.4-4.5c2.1-3,3.2-6.3,3.2-9.8C157.8,94.9,155.4,89.1,150.7,85z M137.2,104.2v1.1c0,1.9-0.6,3.5-1.7,4.7
			c-1.1,1.3-2.6,1.9-4.5,1.9c-1.9,0-3.2-0.7-3.9-2.2c-0.7-1.4-1.1-2.9-1.1-4.4c0-2.7,0.5-4.6,1.4-5.9c0.9-1.2,2.3-1.9,4-1.9
			c2,0,3.5,0.5,4.4,1.5c0.9,1,1.4,2.3,1.4,4V104.2z"/>
		<path class="st1" d="M355.1,122.7L341,106.1l14.1-16.6c0.3-0.4,0.2-0.7-0.3-0.7H338c-0.5,0-1.1,0.3-1.4,0.7l-6.9,8.1v-7.4
			c0-0.7-0.6-1.4-1.4-1.4h-13.1c-0.7,0-1.3,0.6-1.3,1.4v3.8c-1.7-1.7-6.7-6.3-13.9-6.3c-7.5,0-13.9,4.4-16.9,10.7v-8.2
			c0-0.7-0.6-1.4-1.3-1.4h-13.1c-0.7,0-1.3,0.6-1.3,1.4v29.9l-7.9-8.9c9.7-4.8,7.9-22.3-5.5-22.3c-6.2,0-22.7,0-22.7,0
			c-0.7,0-1.4,0.6-1.4,1.4v15.3c-0.6-1.1-1.5-2.2-2.5-3.1c2-5.9-1.1-13.6-9.3-13.6h-21.1c-0.8,0-1.4,0.6-1.4,1.4v30.2l-8.1-9.2
			c9.7-4.8,7.9-22.3-5.6-22.3c-6.2,0-22.7,0-22.7,0c-0.7,0-1.3,0.6-1.3,1.4v0c1.6,3.5,2.5,7.5,2.5,12.2c0,3.4-0.8,6.6-2.5,9.5v10.1
			c0,0.7,0.6,1.3,1.3,1.3H169c0.8,0,1.3-0.6,1.3-1.3v-8.3c0-0.8,0.4-0.9,0.9-0.3l7.9,9c0.5,0.6,1.5,1,2.3,1h15.2c0,0,0,0,0,0
			c0,0,0,0,0,0c0,0,17.5,0,22.9,0c4.9,0,8.3-2.4,10.1-5.6v4.2c0,0.7,0.6,1.3,1.4,1.3h10.1c0.7,0,1.3-0.6,1.3-1.3v-8.3
			c0-0.8,0.4-0.9,0.9-0.3l7.9,9c0.5,0.6,1.5,1,2.3,1h15h0.2h12.9c0.7,0,1.3-0.6,1.3-1.3v-7.7c3,6.3,9.4,10.7,16.9,10.7
			c7.8,0,12.4-4.4,13.9-6.2v3.2c0,0.7,0.6,1.3,1.3,1.3h13.1c0.8,0,1.4-0.6,1.4-1.3v-7.5l6.9,8.1c0.3,0.4,1,0.7,1.4,0.7h16.8
			C355.2,123.4,355.4,123.1,355.1,122.7z M178.6,104c-1.9,0-3.4-1.5-3.4-3.4c0-1.9,1.5-3.4,3.4-3.4c1.9,0,3.4,1.5,3.4,3.4
			C182,102.5,180.5,104,178.6,104z M213,95.4c1.6,0,2.9,1.3,2.9,2.9c0,1.6-1.3,2.9-2.9,2.9c-1.6,0-2.9-1.3-2.9-2.9
			C210.2,96.7,211.5,95.4,213,95.4z M213,116.6c-1.9,0-3.4-1.5-3.4-3.4c0-1.9,1.5-3.4,3.4-3.4c1.9,0,3.4,1.5,3.4,3.4
			C216.4,115.1,214.9,116.6,213,116.6z M250.7,104c-1.9,0-3.4-1.5-3.4-3.4c0-1.9,1.5-3.4,3.4-3.4c1.9,0,3.4,1.5,3.4,3.4
			C254.1,102.5,252.6,104,250.7,104z M313.8,115.6l-5.1-5.5c-0.5-0.5-1.3-0.5-1.8,0c0,0-0.2,0.2-0.8,0.6c-0.7,0.4-1.5,0.6-2.3,0.6
			c-2.7,0-4.8-2.2-4.8-4.8c0-2.6,2.1-4.8,4.8-4.8c0.7,0,1.3,0.1,1.8,0.4c0.9,0.4,1.3,0.8,1.3,0.8c0.5,0.6,1.3,0.6,1.8,0l5.1-5.5
			V115.6z"/>
		<path class="st1" d="M355.3,129.4l-0.3,0l-0.2,0h-0.5l-0.3,0l-0.4,0l-0.3,0l-0.3,0l-0.3,0h-0.2l-0.3,0l-0.8,0l-0.3,0
			c-0.4,0-0.8,0.2-0.8,0.6c0,0.3,0.3,0.5,0.4,0.6c0,0,0.4,0.1,0.4,0.1l0.2,0c0,0,0.2,0,0.2,0c0,0,0.1,0,0.1,0l0.4,0
			c0.4,0,0.4,0.1,0.4,0.2l0,0.4l0,0.2v0.2l0,0.4l0,0.6c0,0,0,0.4,0,0.4l0,0.4l0,0.3l0,0.4l-0.1,0.6l0,0.6l0,0.4c0,0-0.1,0.3-0.1,0.3
			c0,0.5,0.6,0.6,0.9,0.6c0.5,0,0.8-0.3,0.8-0.6l-0.1-0.4l-0.1-0.2c0,0,0-0.1,0-0.1l0-0.4l0-0.2l0-0.1l0-0.1l0-0.2l0-0.2l0-0.1
			l0-0.1l0-0.2l0-0.2l0-0.2l0-0.2l0-0.2l0-0.1c0,0,0-0.3,0-0.3v-0.5l0-0.1l0-0.2l-0.1-0.4l0-0.1c0-0.1,0-0.1,0-0.1v0
			c0,0,0-0.1,0-0.1l0-0.1l0-0.2c0,0,0-0.3,0-0.3c0,0,0,0,0,0c0,0,0.3,0,0.3,0h0.4l0.3,0l0.2,0c0,0,0.3,0,0.3,0
			c0.5,0,0.8-0.2,0.8-0.6C356.1,129.7,355.8,129.4,355.3,129.4z"/>
		<path class="st1" d="M362.5,135.2l0-0.4l0-0.5l0-0.3l0-0.3l0-0.4V133l0-0.6v-0.5l0-0.4l0-0.7v-0.1c0,0,0.1-0.3,0.1-0.3
			c0,0.1,0-0.3,0-0.3c0-0.4-0.2-0.5-0.4-0.6c0,0-0.3,0-0.3,0c-0.2,0-0.3,0.1-0.4,0.3l-0.3,0.3l-0.3,0.3c0,0-0.4,0.4-0.4,0.4
			c0,0-0.1,0.1-0.1,0.1c0,0-0.1,0.1-0.1,0.1l-0.1,0.1L360,131l-0.2,0.2c0,0-0.2,0.1-0.2,0.1c0,0-0.1,0-0.2-0.1c0,0-0.3-0.3-0.3-0.3
			l-0.3-0.3c0,0-0.1-0.1-0.1-0.1l-0.1-0.1l-0.5-0.4l-0.2-0.1l-0.1-0.1l-0.2-0.2c0,0-0.3-0.1-0.3-0.1l-0.3,0.1l-0.1,0.1l0,0
			c0,0-0.2,0.4-0.2,0.4c0,0.1,0,0.2,0,0.2l0,0.2l0,0.3l0,0.4l0,0.7c0,0,0,0.1,0,0.1c0,0,0,0.2,0,0.2v0.1l0,0.2l0,0.2l0,0.2l0,0.4
			c0,0,0,0.5,0,0.5c0,0,0,0.2,0,0.2v0.2l0,0.3l0,0.2v0.2l0,0.5l-0.1,0.5c0,0,0,0.2,0,0.2c0,0.3,0.2,0.5,0.3,0.5c0,0,0.4,0.1,0.4,0.1
			c0.3,0,0.5-0.1,0.6-0.3c0,0,0.1-0.4,0.1-0.4c0,0-0.1-0.3-0.1-0.3l0-0.2c0,0,0-0.1,0-0.1v-0.2l0-0.3l0-0.4v-0.2V134
			c0,0,0-0.2,0-0.2l0-0.1l0-0.2c0,0,0-0.1,0-0.1l0-0.2l0-0.2c0,0,0-0.3,0-0.3c0,0,0-0.1,0-0.1v-0.1l0-0.1l0-0.5l0-0.4l0-0.1
			c0,0,0,0,0-0.1c0,0,0,0,0,0l0.4,0.4c0,0,0.2,0.2,0.2,0.2l0.1,0.2c0.1,0,0.1,0.1,0.1,0.1l0.1,0.1c0,0,0.1,0.2,0.1,0.2
			c0.1,0.1,0.3,0.4,0.6,0.4c0.3,0,0.5-0.1,0.7-0.5l0.3-0.3l0.1-0.1c0,0,0.2-0.2,0.2-0.2c0,0,0.2-0.2,0.2-0.2c0,0,0.1-0.1,0.1-0.1
			c0,0.1,0,0.1,0,0.1c0,0,0,0.2,0,0.2l0.1,0.3c0,0.1,0,0.5,0,0.5s0,0,0,0c0,0,0,0,0,0c0,0.1-0.1,0.3-0.1,0.7l0,0.7l0,0.2l0,0.2
			c0,0,0,0.4,0,0.4l0,0.5l0,0.2l0,0.2l-0.1,0.4l0.2,0.4c0.1,0.1,0.3,0.2,0.6,0.2c0.4,0,0.6-0.2,0.6-0.5L362.5,135.2z"/>
	</g>
</g>
</svg>
