<?xml version="1.0" encoding="utf-8"?>
<!-- Generator: Adobe Illustrator 19.2.1, SVG Export Plug-In . SVG Version: 6.00 Build 0)  -->
<svg version="1.1" id="Diadora" xmlns="http://www.w3.org/2000/svg" xmlns:xlink="http://www.w3.org/1999/xlink" x="0px"
	 y="0px" width="395px" height="220px" viewBox="0 0 395 220" style="enable-background:new 0 0 395 220;" xml:space="preserve">
<style type="text/css">
	.st0{fill:#1D1D1B;}
</style>
<title>Diadora</title>
<g>
	<path class="st0" d="M269.3,176.7c18.2,0.1,33.1-14.6,33.2-32.8c0.1-18.2-14.6-33.1-32.8-33.2c-18.2-0.1-33.1,14.6-33.2,32.8
		C236.4,161.7,251.1,176.6,269.3,176.7z"/>
	<path class="st0" d="M154.7,125.2l0.1-12.5c0-1.5,1.3-2.8,2.8-2.8l0,0c1.5,0,2.8,1.3,2.8,2.8l-0.1,61.3c0,1.5-1.3,2.8-2.8,2.8l0,0
		c-1.5,0-3-1.3-3-2.8l0-12.6l-0.4,0.4c-6,9-16.3,14.9-28,14.9c-18.5-0.1-33.3-15.1-33.3-33.6c0.1-18.5,15.1-33.3,33.6-33.2
		c11.5,0,21.7,5.9,27.6,14.9L154.7,125.2z"/>
	<path class="st0" d="M386.9,125.2l0.1-12.5c0-1.5,1.3-2.8,2.8-2.8l0,0c1.5,0,2.8,1.3,2.8,2.8l-0.1,61.3c0,1.5-1.3,2.8-2.8,2.8l0,0
		c-1.5,0-3-1.3-3-2.8l0-12.6l-0.4,0.4c-6,9-16.3,14.9-28,14.9c-18.5-0.1-33.3-15.1-33.3-33.6c0.1-18.5,15.1-33.3,33.6-33.2
		c11.5,0,21.7,5.9,27.6,14.9L386.9,125.2z"/>
	<g>
		<path class="st0" d="M83.5,65.3c1.5,0,2.8-1.2,2.8-2.8l0-11.2c0-1.5-1.2-2.8-2.8-2.8l0,0c-1.5,0-2.8,1.2-2.8,2.8l0,11.2
			C80.7,64,81.9,65.2,83.5,65.3L83.5,65.3z"/>
		<path class="st0" d="M83.4,176.7c1.5,0,2.8-1.2,2.8-2.8l0-61.3c0-1.5-1.2-2.8-2.8-2.8l0,0c-1.5,0-2.8,1.2-2.8,2.8l0,61.3
			C80.7,175.4,81.9,176.7,83.4,176.7L83.4,176.7z"/>
	</g>
	<path class="st0" d="M316.4,143.5c0.1-24.6,20.3-44.4,44.9-44.2c1.5,0,2.9-1.2,2.9-2.7l0,0c0-1.5-1.3-2.8-2.8-2.9
		c-19.5-0.1-36.5,10.9-44.8,27l0,0.1l0-7.9c0-1.5-1.2-2.8-2.8-2.8l0,0c-1.5,0-2.8,1.2-2.8,2.8l0,61.3c0,1.5,1.2,2.8,2.8,2.8l0,0
		c1.5,0,2.7-1.2,2.7-2.8L316.4,143.5z"/>
	<path class="st0" d="M226.4,125.2l0-79.4c0-1.5,1.3-2.8,2.8-2.8l0,0c1.5,0,2.8,1.3,2.8,2.8v128.1c0,1.5-1.3,2.8-2.8,2.8h-0.3
		c-1.5,0-2.8-1.3-2.8-2.8l0.1-12.6l-0.4,0.4c-6,9-16.3,14.9-28,14.8c-18.5-0.1-33.3-15.1-33.3-33.6c0.1-18.5,15.1-33.4,33.6-33.3
		c11.5,0.1,21.7,6,27.6,14.9L226.4,125.2z"/>
	<path class="st0" d="M64.3,125.2l0-79.4c0-1.5,1.3-2.8,2.8-2.8l0,0c1.5,0,2.8,1.3,2.8,2.8l0,128.1c0,1.5-1.3,2.8-2.8,2.8h-0.3
		c-1.5,0-2.8-1.3-2.8-2.8l0.1-12.6l-0.4,0.4c-6,9-16.3,14.9-28,14.8C17.3,176.5,2.4,161.4,2.5,143c0.1-18.5,15.1-33.4,33.6-33.3
		c11.5,0.1,21.7,6,27.6,14.9L64.3,125.2z"/>
	<path class="st0" d="M237.3,50.8l2-1.8c23,7.5,42.5,12.5,57.4-0.6l19,11.3c-10.4,5.8-16.8,8-27.7,9.4c12.2,8.1,23.4,17.9,27.2,29
		l-22.7-0.1C285.5,75.2,261.2,59.6,237.3,50.8z"/>
</g>
</svg>
