<?xml version="1.0" encoding="utf-8"?>
<!-- Generator: Adobe Illustrator 22.1.0, SVG Export Plug-In . SVG Version: 6.00 Build 0)  -->
<svg version="1.1" id="Слой_1" xmlns="http://www.w3.org/2000/svg" xmlns:xlink="http://www.w3.org/1999/xlink" x="0px" y="0px"
	 width="400px" height="220px" viewBox="0 0 400 220" style="enable-background:new 0 0 400 220;" xml:space="preserve">
<style type="text/css">
	.st0{fill:#1D1D1B;}
</style>
<g>
	<g>
		<path class="st0" d="M4.3,160.2V81.8h55.9v13H18.6V113h36.6v12.9l-36.6,0v21.5h41.6v13H4.3z M22.9,75.7l-4.4-7.2l20.4-15.3
			L45,63.3L22.9,75.7z"/>
		<path class="st0" d="M102.3,161c-11.6,0-17.4-6.6-17.4-17.7v-29.2H74.4v-11.4h10.5l0-14.6l13.8-3.4v18h14.5l0,11.4H98.7v28
			c0,4.4,2,6.3,6.4,6.3c2.9,0,5.2-0.1,9-0.6v11.6C110.2,160.5,106.4,161,102.3,161z"/>
		<path class="st0" d="M170.7,160.2l-1-7.5c-2.8,5.6-9.2,9-16.5,9c-12.3,0-19.9-8.3-19.9-20.6v-38.4h13.9V138c0,6.7,2.6,11,9.9,11
			c3.2,0,5.4-1.2,7.1-2.9c3.3-3.1,4.2-8.3,4.2-12.9v-30.4h13.8v57.5H170.7z"/>
		<path class="st0" d="M245.1,160.2l-0.9-6.3c-3.4,5.3-9.8,7.6-16.1,7.6c-5.8,0-10.5-2-14.1-4.8c-6.9-5.7-10.2-14.3-10.2-25.1
			c0-11.3,3.4-20,10.3-25.7c3.5-2.9,8.2-4.6,14-4.6c7.3,0,12.6,2.4,15.1,5.4V80.4H257l0,79.9H245.1z M230.8,112.9
			c-4.3,0-7.3,2-9.3,4.5c-2.8,3.8-3.6,8.9-3.6,13.9c0,5,0.8,10.3,3.6,14.1c2,2.5,5,4.5,9.3,4.5c10.8,0,13.1-10.3,13.1-18.6
			C243.9,123.1,241.7,112.9,230.8,112.9z"/>
		<path class="st0" d="M331.2,135.8h-38.5c-0.1,4.4,1.4,8.6,4.2,11.3c2,1.9,4.8,3.6,8.5,3.6c4,0,6.4-0.8,8.4-2.8
			c1.2-1.2,2.2-2.8,2.8-4.9h13.3c-0.3,3.4-2.6,8-4.8,10.6c-4.9,5.8-12.1,8.1-19.4,8.1c-7.9,0-13.6-2.8-18.1-7.1
			c-5.8-5.6-8.9-13.6-8.9-23c0-9.2,2.8-17.4,8.3-23c4.3-4.4,10.5-7.3,18.4-7.3c8.5,0,16.3,3.4,21,10.6c4.2,6.3,5.2,12.8,5,20
			C331.3,131.9,331.2,134.6,331.2,135.8z M313.9,115.7c-1.9-2-4.7-3.3-8.7-3.3c-4.2,0-7.6,1.8-9.6,4.4c-2,2.5-2.9,5.2-3,9h24.9
			C317.4,121.4,316.1,118.1,313.9,115.7z"/>
		<path class="st0" d="M392.3,155.1c-4.6,4.6-11.8,6.6-19.7,6.6c-7.3,0-13.8-2.1-18.6-6.6c-3.3-3.2-6.1-8-6.1-13.4h12.9
			c0,2.5,1.3,5.3,3.1,6.7c2.2,1.8,4.7,2.5,8.7,2.5c4.6,0,11.7-1,11.7-7.3c0-3.3-2.2-5.5-5.8-6.1c-5.1-0.8-10.8-1.1-15.9-2.2
			c-7.8-1.7-13.2-8.1-13.2-15.4c0-5.9,2.4-10,5.9-13c4.2-3.6,10.3-5.7,17.5-5.7c6.9,0,13.8,2.2,18.1,6.8c3.1,3.3,5.1,7.6,5.1,11.8
			h-13.2c0-2.2-1-4-2.3-5.4c-1.7-1.6-4.6-2.7-7.5-2.7c-2,0-3.9,0-6,0.9c-2.5,1-4.4,3.1-4.4,6.1c0,4.1,3.6,5.3,6.6,5.7
			c5.2,0.7,6.7,0.8,12.3,1.7c9.1,1.4,15.7,7.2,15.7,16.3C397.3,148,395.3,152.1,392.3,155.1z"/>
	</g>
</g>
</svg>
