<svg width="248" height="248" viewBox="0 0 248 248" fill="none" xmlns="http://www.w3.org/2000/svg">
<path fill-rule="evenodd" clip-rule="evenodd" d="M123.024 70.1146C122.778 70.2676 122.665 70.6273 122.774 70.9132C122.884 71.1994 123.128 71.4334 123.317 71.4334C123.506 71.4334 123.748 71.2043 123.855 70.9242C123.962 70.6442 123.92 70.2848 123.761 70.1253C123.599 69.9625 123.277 69.9577 123.024 70.1146ZM116.974 72.2843C116.281 72.7521 114.96 73.8487 114.037 74.721C112.951 75.7467 112.072 76.3068 111.549 76.3068C111.104 76.3068 110.638 76.1415 110.514 75.939C110.389 75.737 110.526 75.4374 110.818 75.2733C111.11 75.1093 111.349 74.7629 111.349 74.5036C111.349 74.1979 111.012 74.0325 110.39 74.0325C109.748 74.0325 109.311 74.2571 109.069 74.7119C108.798 75.2197 108.807 75.6327 109.102 76.3487C109.319 76.8754 109.758 77.4469 110.078 77.6188C110.398 77.7906 110.967 77.9313 111.343 77.9313C111.72 77.9313 112.474 77.6993 113.021 77.4157C113.567 77.1321 114.921 76.0518 116.03 75.015C117.203 73.9192 118.479 73.0351 119.078 72.9029C119.806 72.7424 120.353 72.8363 120.94 73.2229C121.669 73.7028 121.748 73.925 121.573 75.0189C121.446 75.8182 121.51 76.3517 121.751 76.5014C121.966 76.6343 122.389 76.4105 122.736 75.981L123.344 75.2265L123.846 75.9462C124.122 76.3419 124.516 76.6083 124.722 76.5385C124.928 76.4683 125.096 75.7773 125.096 74.9952C125.096 73.8145 125.234 73.501 125.927 73.1063C126.457 72.8044 127.085 72.7154 127.66 72.8606C128.156 72.9857 129.311 73.795 130.226 74.6589C131.14 75.5229 132.455 76.6126 133.147 77.0804C133.839 77.5486 134.789 77.9313 135.258 77.9313C135.727 77.9313 136.418 77.7153 136.793 77.4515C137.168 77.1876 137.568 76.5999 137.682 76.1454C137.795 75.6908 137.734 75.0293 137.546 74.6755C137.35 74.3084 136.869 74.0325 136.425 74.0325C135.997 74.0325 135.543 74.2008 135.416 74.4068C135.29 74.6125 135.441 74.9683 135.753 75.1973C136.065 75.4264 136.224 75.7698 136.107 75.9602C135.99 76.1509 135.535 76.3068 135.096 76.3068C134.57 76.3068 133.599 75.6531 132.242 74.3857C131.112 73.3291 129.74 72.2326 129.194 71.949C128.647 71.6653 127.597 71.4334 126.859 71.4334C125.763 71.4334 125.314 71.6367 124.417 72.538L123.317 73.6427L122.217 72.538C121.295 71.6121 120.884 71.4334 119.675 71.4334C118.654 71.4334 117.864 71.6826 116.974 72.2843ZM104.633 74.2489C104.409 74.3399 104.076 74.6937 103.894 75.0355C103.666 75.4637 103.671 75.8595 103.909 76.3068C104.1 76.6642 104.558 76.9566 104.929 76.9566C105.472 76.9566 105.572 76.8004 105.447 76.1444C105.362 75.6977 105.402 75.3321 105.537 75.3321C105.671 75.3321 105.869 75.5635 105.977 75.8461C106.085 76.1288 106.173 76.4943 106.173 76.6584C106.173 76.8224 105.882 77.249 105.526 77.6064C104.991 78.1441 104.447 78.2565 102.373 78.2575C100.994 78.2582 97.828 78.4073 95.3373 78.5886C92.8466 78.7699 87.3154 79.2849 83.0457 79.7329C78.776 80.1809 73.2448 80.844 70.7542 81.2066C68.2635 81.5689 64.3335 82.233 62.0207 82.6817C59.708 83.1307 56.0819 83.9351 53.9629 84.4689C51.8439 85.0031 48.7507 85.8774 47.0894 86.4118C45.1845 87.0249 44.0686 87.5512 44.0686 87.8368C44.0686 88.086 44.2119 88.3784 44.3865 88.4873C44.5615 88.5958 45.9081 88.3024 47.3786 87.8352C48.8493 87.368 52.0176 86.4924 54.4194 85.8894C56.8211 85.2864 60.6783 84.4277 62.9911 83.9806C65.3038 83.5339 69.8161 82.8009 73.0184 82.3522C76.2207 81.9035 81.9702 81.2404 85.7952 80.8791C89.6201 80.5175 95.4424 80.0633 98.7336 79.8693C102.025 79.6754 105.124 79.3593 105.62 79.1666C106.116 78.9739 106.735 78.5116 106.995 78.1393C107.255 77.7666 107.467 77.0151 107.467 76.4693C107.467 75.9235 107.24 75.1518 106.963 74.7548C106.687 74.3574 106.141 74.0442 105.751 74.0582C105.36 74.0722 104.857 74.1583 104.633 74.2489ZM139.855 74.4695C139.656 74.71 139.406 75.3477 139.299 75.8867C139.178 76.492 139.295 77.239 139.605 77.8407C139.881 78.3761 140.513 78.9726 141.011 79.1656C141.509 79.3589 144.609 79.6754 147.9 79.8693C151.191 80.0633 157.013 80.5159 160.838 80.8756C164.663 81.2352 170.811 81.963 174.499 82.4926C178.188 83.0222 183.698 83.978 186.743 84.6161C189.789 85.2545 194.267 86.3706 196.695 87.0957C199.123 87.8212 201.396 88.4317 201.746 88.4528C202.105 88.474 202.431 88.2514 202.493 87.9434C202.581 87.5106 201.942 87.1831 199.431 86.3735C197.686 85.8108 193.929 84.7834 191.082 84.0904C188.236 83.3974 183.796 82.4702 181.216 82.0299C178.637 81.5897 174.707 80.998 172.483 80.7154C170.259 80.4327 165.674 79.9126 162.294 79.5597C158.914 79.2069 153.237 78.7611 149.679 78.5694C146.121 78.3777 142.7 78.1191 142.078 77.995C141.051 77.79 140.936 77.6555 140.845 76.5505C140.79 75.8806 140.874 75.3321 141.032 75.3321C141.191 75.3321 141.309 75.6609 141.294 76.0632C141.277 76.5726 141.454 76.7942 141.881 76.7942C142.217 76.7942 142.644 76.5531 142.829 76.2584C143.077 75.8624 143.021 75.5024 142.614 74.8776C142.233 74.2941 141.777 74.0325 141.139 74.0325C140.631 74.0325 140.053 74.2291 139.855 74.4695ZM116.461 75.9303C115.677 76.6652 115.224 77.3335 115.36 77.5548C115.488 77.7621 115.846 77.9313 116.156 77.9313C116.466 77.9313 117.186 77.4492 117.755 76.8598C118.323 76.2708 118.788 75.5397 118.788 75.2353C118.788 74.9312 118.564 74.6823 118.29 74.6823C118.017 74.6823 117.193 75.2441 116.461 75.9303ZM127.851 75.2509C127.854 75.5638 128.427 76.2948 129.123 76.8754C129.82 77.456 130.536 77.9313 130.716 77.9313C130.895 77.9313 131.14 77.7718 131.26 77.5772C131.379 77.3823 130.922 76.6512 130.243 75.9527C129.563 75.2538 128.746 74.6823 128.426 74.6823C128.086 74.6823 127.847 74.9182 127.851 75.2509ZM118.6 76.6613C118.153 77.1568 118.113 77.3832 118.417 77.688C118.702 77.9745 118.955 77.9849 119.363 77.7266C119.67 77.533 119.964 77.1525 120.017 76.8816C120.071 76.6103 119.902 76.3068 119.643 76.2071C119.384 76.1073 118.915 76.3117 118.6 76.6613ZM126.914 76.4215C126.657 76.7325 126.679 77.0083 126.995 77.4424C127.259 77.8049 127.636 77.957 127.96 77.8319C128.253 77.7192 128.492 77.4079 128.492 77.1408C128.492 76.8735 128.216 76.5063 127.879 76.325C127.435 76.0866 127.169 76.1132 126.914 76.4215ZM108.438 84.735L105.365 84.9166L105.433 85.8913C105.471 86.4274 105.676 90.7326 105.889 95.4586C106.186 102.046 106.188 104.081 105.895 104.179C105.686 104.249 105.294 104.528 105.024 104.799C104.661 105.163 104.626 105.403 104.888 105.72C105.162 106.053 106.194 106.107 109.508 105.964C111.855 105.863 114.102 105.658 114.502 105.509C114.903 105.361 115.23 105.012 115.23 104.735C115.23 104.459 114.866 104.093 114.422 103.923C113.977 103.753 113.609 103.574 113.604 103.525C113.599 103.476 113.388 99.7076 113.135 95.1509L112.676 86.866L113.468 86.2705C113.903 85.9427 114.26 85.4833 114.26 85.2493C114.26 85.0151 114.03 84.735 113.748 84.6265C113.467 84.518 112.848 84.4572 112.373 84.4914C111.899 84.5258 110.128 84.6353 108.438 84.735ZM117.899 84.6444C117.677 84.7347 117.494 85.0073 117.494 85.2503C117.494 85.4933 117.771 85.8865 118.109 86.1243C118.565 86.4456 119.278 88.728 120.879 94.9963C122.064 99.6381 123.176 103.984 123.349 104.654C123.665 105.871 123.667 105.873 125.4 105.873H127.135L127.831 103.517C128.213 102.221 128.712 100.579 128.939 99.8675C129.318 98.6764 129.241 98.1348 127.961 93.0446C127.197 90.0039 126.646 87.2735 126.736 86.9771C126.826 86.6812 127.112 86.3566 127.372 86.2565C127.632 86.1561 127.845 85.7987 127.845 85.4618C127.845 84.9335 127.505 84.8208 125.37 84.6395C124.009 84.5238 121.862 84.441 120.599 84.455C119.337 84.4689 118.121 84.5544 117.899 84.6444ZM131.305 84.9979C131.229 85.132 130.695 86.8238 130.117 88.7579L129.065 92.2743L130.8 99.1547L132.535 106.035H134.304H136.072L137.101 102.604L138.13 99.1735L136.555 92.6947C135.689 89.1315 134.901 85.8874 134.803 85.4852C134.649 84.8504 134.416 84.7542 133.034 84.7542C132.158 84.7542 131.38 84.8637 131.305 84.9979ZM95.0138 85.379C93.0569 85.482 91.274 85.6847 91.0514 85.8293C90.8292 85.9739 90.6471 86.3066 90.6471 86.5684C90.6471 86.8345 91.0631 87.1282 91.5897 87.2341C92.3812 87.393 92.6849 87.7702 93.4819 89.5815C94.0043 90.7684 95.7138 94.8829 97.281 98.7248C98.8482 102.567 100.318 105.916 100.547 106.169C100.901 106.558 101.016 106.509 101.305 105.844C101.492 105.413 102.298 102.55 103.095 99.4815C104.435 94.3215 104.525 93.7237 104.295 91.5215L104.046 89.1403L103.613 91.3571C103.375 92.5764 103.069 93.4537 102.933 93.3065C102.796 93.1593 101.924 91.2483 100.995 89.0591C100.066 86.8699 99.1406 85.1044 98.9387 85.1353C98.7369 85.1662 96.9708 85.2757 95.0138 85.379ZM137.972 85.6132C137.836 85.9683 138.056 86.3585 138.629 86.7773C139.102 87.124 139.49 87.7004 139.49 88.0584C139.49 88.4161 139.18 89.7794 138.802 91.0878C138.29 92.8559 138.172 93.8598 138.342 94.9976C138.468 95.8401 138.691 96.4015 138.837 96.2462C138.984 96.0905 139.622 94.2087 140.256 92.0644C141.082 89.2687 141.626 87.9817 142.181 87.5158C142.607 87.1584 143.229 86.7046 143.565 86.507C144.09 86.1984 144.114 86.0736 143.734 85.6135C143.392 85.1999 142.714 85.0791 140.734 85.0791C138.659 85.0791 138.137 85.1798 137.972 85.6132ZM83.2075 86.5038L80.458 86.866L77.2969 96.4505C75.5582 101.722 74.0467 106.723 73.938 107.565L73.7401 109.095L74.835 108.945C75.4369 108.863 77.0048 108.659 78.319 108.492C79.6332 108.325 80.8164 108.069 80.9487 107.924C81.0807 107.778 82.6256 103.2 84.3816 97.7501C86.1623 92.223 87.5289 87.4456 87.472 86.9473C87.3931 86.2598 87.2068 86.0639 86.6633 86.0976C86.2749 86.122 84.7197 86.3046 83.2075 86.5038ZM150.936 86.5791C150.204 86.84 149.002 87.5717 148.265 88.2053C147.528 88.8388 146.568 89.9698 146.131 90.718C145.694 91.4666 145.099 93.0992 144.808 94.3458C144.44 95.9229 144.343 97.2527 144.489 98.7151C144.604 99.8711 144.989 101.479 145.345 102.289C145.7 103.098 146.53 104.326 147.188 105.018C147.847 105.709 149.113 106.622 150.002 107.045C150.892 107.469 151.875 107.817 152.186 107.819C152.56 107.821 152.752 107.571 152.752 107.082C152.752 106.675 152.461 106.092 152.105 105.786C151.749 105.479 151.458 104.871 151.458 104.432C151.458 103.994 151.747 100.813 152.1 97.3625C152.453 93.9124 152.827 90.4607 152.931 89.6917C153.075 88.628 153.308 88.2075 153.906 87.934C154.413 87.702 154.693 87.3037 154.693 86.8137C154.693 86.1477 154.543 86.057 153.48 86.0795C152.813 86.0934 151.668 86.3186 150.936 86.5791ZM155.986 86.8891C155.986 87.3638 156.292 87.985 156.68 88.3008L157.374 88.8655L156.525 97.1253C155.707 105.079 155.645 105.41 154.86 106.047C154.412 106.411 154.046 107.049 154.046 107.464C154.046 108.159 154.142 108.202 155.259 108C155.926 107.879 157.037 107.614 157.729 107.411C158.421 107.209 159.748 106.344 160.679 105.49C161.692 104.559 162.641 103.305 163.045 102.362C163.416 101.496 163.874 99.8103 164.065 98.616C164.293 97.178 164.306 95.8004 164.103 94.5349C163.935 93.4842 163.43 91.8961 162.981 91.0059C162.531 90.1157 161.701 88.9957 161.135 88.5172C160.568 88.0389 159.579 87.3826 158.935 87.059C158.292 86.7354 157.365 86.3741 156.876 86.2562C156.078 86.0635 155.986 86.1288 155.986 86.8891ZM75.2222 87.4807C73.5877 87.6861 72.1784 87.9265 72.0904 88.0149C72.0024 88.1029 72.1027 89.4889 72.3126 91.0946C72.6481 93.6545 72.7778 94.0258 73.3671 94.1103C73.9002 94.187 74.1172 93.9443 74.418 92.9358C74.6267 92.2369 75.1022 91.2755 75.4748 90.7996C75.8474 90.3239 76.7211 89.6433 77.4159 89.2872C78.1107 88.9311 78.679 88.5084 78.679 88.3479C78.679 88.1877 78.7673 87.8251 78.8753 87.5425C78.9976 87.2224 78.9061 87.0434 78.6327 87.0681C78.3914 87.0899 76.8566 87.2754 75.2222 87.4807ZM168.817 88.2199C168.698 88.3388 168.601 88.6445 168.601 88.8986C168.601 89.153 168.891 89.6039 169.244 89.9006C169.883 90.4363 169.879 90.4925 168.509 98.7004C167.138 106.909 167.124 106.963 166.248 107.256C165.702 107.439 165.367 107.785 165.367 108.168C165.367 108.542 165.653 108.849 166.095 108.949C166.495 109.04 168.627 109.416 170.833 109.784C173.039 110.152 175.041 110.378 175.281 110.285C175.521 110.192 175.718 109.911 175.718 109.659C175.718 109.407 175.399 108.988 175.01 108.729L174.302 108.257L175.849 98.9185C176.699 93.7825 177.342 89.5269 177.278 89.462C177.213 89.397 175.4 89.0419 173.249 88.6734C171.098 88.3047 169.269 88.0032 169.186 88.0032C169.102 88.0032 168.936 88.1006 168.817 88.2199ZM62.5492 89.46C60.2701 89.8808 58.4345 90.3853 58.2821 90.6332C58.1304 90.8795 58.1637 91.2486 58.3591 91.4848C58.5487 91.7142 58.974 91.902 59.3046 91.902C59.6636 91.902 59.9722 92.1966 60.0706 92.633C60.1614 93.0352 60.8178 96.792 61.529 100.982C62.8226 108.598 62.8226 108.599 62.1792 109.288C61.825 109.666 61.5355 110.154 61.5355 110.371C61.5355 110.588 61.7176 110.836 61.9398 110.921C62.1624 111.006 64.3645 110.719 66.8338 110.284C69.3028 109.848 71.4694 109.345 71.6476 109.166C71.8261 108.987 71.8847 108.611 71.7776 108.331C71.6706 108.051 71.296 107.822 70.945 107.822C70.5944 107.822 70.2318 107.699 70.1396 107.55C70.0474 107.4 69.3474 103.59 68.5841 99.0845L67.1961 90.8918L67.9744 90.3015C68.4754 89.9214 68.6808 89.5224 68.5504 89.1819C68.4256 88.8547 68.0051 88.6663 67.4487 88.6874C66.9542 88.7066 64.7491 89.0542 62.5492 89.46ZM178.629 90.4399C178.629 90.8866 178.936 91.5611 179.313 91.939C179.902 92.5313 179.966 92.8552 179.776 94.2945C179.655 95.2123 179.404 96.6763 179.219 97.5484C178.942 98.8467 178.714 99.1962 177.96 99.4825C177.439 99.6797 176.998 100.115 176.945 100.484C176.892 100.843 177.195 101.482 177.616 101.904C178.249 102.538 178.346 102.879 178.176 103.866C178.062 104.523 177.89 105.938 177.792 107.01C177.646 108.625 177.731 109.143 178.291 110.035C178.662 110.626 179.468 111.32 180.081 111.578C180.694 111.835 181.799 112.046 182.537 112.046C183.295 112.046 184.397 111.753 185.072 111.371C185.729 111 186.453 110.397 186.681 110.031C187.024 109.479 187.014 109.282 186.62 108.886C186.239 108.504 186.002 108.485 185.435 108.79L184.726 109.171L184.945 106.628C185.144 104.316 185.099 104.004 184.453 103.182C184.062 102.686 183.065 101.925 182.237 101.492C180.803 100.742 180.777 100.704 181.68 100.689C182.202 100.681 183.274 100.361 184.062 99.9776C185.128 99.4594 185.649 98.9392 186.098 97.947C186.43 97.2134 186.704 96.1234 186.708 95.5249C186.712 94.9264 186.474 93.9267 186.18 93.3029C185.885 92.6791 185.121 91.8227 184.481 91.4C183.842 90.977 182.451 90.4052 181.391 90.1293C180.331 89.8535 179.275 89.6277 179.046 89.6277C178.816 89.6277 178.629 89.9932 178.629 90.4399ZM192.985 92.6963C192.861 93.0206 193.045 93.5186 193.448 93.9491L194.116 94.6636L192.368 102.136C191.407 106.246 190.544 109.923 190.449 110.307C190.351 110.708 189.862 111.151 189.305 111.346C188.77 111.534 188.333 111.823 188.333 111.989C188.333 112.155 188.518 112.445 188.744 112.634C188.97 112.822 191.023 113.425 193.307 113.973C195.591 114.521 197.666 114.97 197.92 114.97C198.173 114.97 198.471 114.732 198.582 114.441C198.71 114.106 198.52 113.711 198.063 113.365L197.341 112.819L199.002 105.69C199.915 101.77 200.805 98.0143 200.979 97.344C201.201 96.4931 201.476 96.1256 201.891 96.1256C202.218 96.1256 202.673 95.8989 202.902 95.622C203.243 95.2091 203.236 95.0408 202.861 94.6876C202.609 94.4508 200.657 93.8653 198.522 93.3867C196.387 92.9078 194.314 92.4358 193.915 92.337C193.423 92.2152 193.125 92.3302 192.985 92.6963ZM45.5872 92.9468C44.6075 93.2077 44.3765 93.4111 44.4551 93.9446C44.5094 94.313 44.9904 94.8556 45.5241 95.1503C46.1219 95.4804 46.642 96.1312 46.8788 96.8446C47.09 97.4818 47.45 98.9126 47.6787 100.024C48.0831 101.991 48.0737 102.062 47.3401 102.659C46.7711 103.122 46.6359 103.472 46.7889 104.085C46.9192 104.606 47.2194 104.898 47.6254 104.898C47.9737 104.898 48.4712 105.227 48.7309 105.629C48.9907 106.031 49.4545 107.371 49.7615 108.607C50.0985 109.962 50.6523 111.228 51.1569 111.795C51.7421 112.453 52.4071 112.791 53.3707 112.921C54.2748 113.043 55.2306 112.922 56.1521 112.568C56.9246 112.272 57.8597 111.704 58.2307 111.307C58.6014 110.909 59.0559 110.183 59.2406 109.693C59.4256 109.203 59.4922 108.582 59.3893 108.312C59.2865 108.043 58.942 107.822 58.6244 107.822C58.3067 107.822 57.9629 108.041 57.8603 108.309C57.7581 108.577 57.5346 108.797 57.3638 108.797C57.193 108.797 56.8673 107.961 56.6396 106.939C56.397 105.85 55.8769 104.69 55.3823 104.134C54.6804 103.345 54.1897 103.146 52.4576 102.949C51.3128 102.819 50.5575 102.692 50.7794 102.668C51.0013 102.644 51.7573 102.102 52.4595 101.465C53.1617 100.828 53.8983 99.8136 54.0962 99.2109C54.2942 98.6085 54.3621 97.612 54.2473 96.9964C54.1321 96.381 53.7569 95.4131 53.4134 94.8455C53.0624 94.2659 52.1891 93.5401 51.4205 93.1898C50.6119 92.8211 49.3918 92.5768 48.4353 92.5924C47.5458 92.607 46.2642 92.7665 45.5872 92.9468ZM93.7277 98.2934L93.9623 103.547L92.78 104.77C91.786 105.798 91.6676 106.062 92.036 106.432C92.3721 106.77 93.0947 106.82 95.1474 106.648C97.0351 106.49 97.8742 106.285 98.002 105.951C98.1113 105.664 97.7846 105.164 97.1755 104.685C96.5975 104.231 96.0266 103.381 95.8354 102.69C95.6524 102.028 95.5019 100.598 95.501 99.5117C95.4997 98.1403 95.2422 96.8999 94.658 95.4505C94.1955 94.303 93.7442 93.2909 93.6553 93.2015C93.5663 93.1122 93.599 95.4034 93.7277 98.2934ZM38.5697 94.6334C35.1145 95.4921 34.5264 95.7306 34.5264 96.2735C34.5264 96.6767 34.8108 96.9759 35.3044 97.0932C35.7323 97.1945 36.1994 97.4935 36.3424 97.7576C36.4853 98.0214 37.4195 101.726 38.4183 105.989L40.2342 113.74L39.5297 114.493C39.1422 114.908 38.922 115.403 39.04 115.595C39.1581 115.788 39.6012 115.944 40.0246 115.944C40.4484 115.944 42.5784 115.507 44.7579 114.972C46.9377 114.438 48.8581 113.863 49.0256 113.695C49.1929 113.527 49.2423 113.16 49.1353 112.88C49.0282 112.6 48.642 112.371 48.2768 112.371C47.8948 112.371 47.4827 112.06 47.3061 111.64C47.1376 111.237 46.1099 107.107 45.0225 102.461C43.935 97.8151 42.9481 93.927 42.8291 93.8211C42.7103 93.7152 40.7935 94.0807 38.5697 94.6334ZM205.692 95.3676C205.573 95.4866 205.476 95.817 205.476 96.1016C205.476 96.3862 205.767 96.8017 206.123 97.025C206.494 97.2576 206.77 97.7826 206.77 98.255C206.77 98.7082 206.442 99.4016 206.042 99.7954C205.641 100.189 204.17 101.462 202.773 102.624L200.232 104.735L200.427 107.984C200.535 109.771 200.712 111.76 200.82 112.405C200.989 113.409 200.92 113.602 200.337 113.755C199.963 113.853 199.562 114.181 199.446 114.484C199.329 114.792 199.418 115.148 199.649 115.292C199.877 115.433 201.681 115.929 203.659 116.395C205.637 116.861 207.726 117.333 208.302 117.445C209.103 117.601 209.396 117.522 209.554 117.109C209.671 116.801 209.521 116.306 209.203 115.953C208.81 115.516 208.336 113.358 207.582 108.573L206.517 101.811L207.857 100.587C208.593 99.9136 209.778 99.2044 210.49 99.0111C211.201 98.8177 212.111 98.5312 212.511 98.3742C212.912 98.2173 213.239 97.8752 213.239 97.6137C213.239 97.3524 213.092 97.0474 212.912 96.9356C212.732 96.8238 211.122 96.3768 209.333 95.9417C207.545 95.5067 206.043 95.1509 205.995 95.1509C205.947 95.1509 205.81 95.2484 205.692 95.3676ZM27.1858 97.7969C24.5809 98.6953 24.3927 98.819 24.633 99.477C24.8048 99.9474 25.2078 100.216 25.8279 100.273C26.3425 100.32 27.2233 100.434 27.7858 100.526C28.3962 100.625 29.3274 101.214 30.096 101.986C30.9454 102.839 31.5609 103.212 31.9038 103.079C32.1901 102.969 32.4239 102.72 32.4239 102.527C32.4239 102.333 32.03 100.96 31.5486 99.4753C31.0673 97.9902 30.5213 96.7871 30.3357 96.8011C30.15 96.8151 28.7326 97.2631 27.1858 97.7969ZM18.6768 100.617C15.7171 101.611 15.1019 101.93 15.0184 102.519C14.9385 103.083 15.1022 103.248 15.8271 103.331C16.6448 103.425 16.824 103.688 17.6107 105.947C18.0917 107.327 19.2794 110.953 20.2501 114.003L22.0149 119.548L21.3554 120.165C20.9763 120.519 20.7783 120.996 20.8893 121.287C20.9957 121.565 21.346 121.793 21.6682 121.793C21.9903 121.793 24.1417 121.159 26.4493 120.385C29.9718 119.203 30.6614 118.864 30.7484 118.273C30.8312 117.709 30.6889 117.569 30.0319 117.569C29.5759 117.569 29.0848 117.316 28.9257 117C28.7682 116.688 27.4171 112.594 25.9233 107.903C23.9318 101.65 23.0775 99.3811 22.721 99.399C22.4535 99.4123 20.6337 99.9604 18.6768 100.617ZM219.889 99.8594C219.188 100.111 218.242 100.592 217.786 100.93C217.331 101.268 216.626 102.143 216.218 102.875C215.811 103.607 215.392 104.935 215.287 105.825C215.136 107.107 215.246 107.754 215.819 108.942C216.259 109.856 217.374 111.166 218.674 112.299C219.848 113.321 221.288 114.643 221.875 115.236C222.463 115.83 222.943 116.638 222.943 117.033C222.943 117.427 222.717 118.074 222.44 118.47C222.133 118.91 221.451 119.269 220.689 119.392C219.79 119.536 219.392 119.782 219.264 120.272C219.167 120.646 219.167 121.031 219.264 121.129C219.361 121.226 220.483 121.299 221.758 121.293C223.475 121.283 224.41 121.102 225.369 120.593C226.081 120.216 226.973 119.563 227.353 119.144C227.732 118.724 228.299 117.873 228.612 117.252C228.925 116.632 229.191 115.382 229.204 114.476C229.222 113.237 229.008 112.452 228.341 111.309C227.854 110.473 226.77 109.238 225.933 108.562C225.096 107.887 223.79 106.733 223.03 105.997C222.012 105.01 221.649 104.404 221.649 103.692C221.649 103.159 221.904 102.494 222.215 102.212C222.526 101.93 223.167 101.603 223.638 101.485C224.188 101.347 224.547 101 224.639 100.515C224.758 99.8912 224.616 99.7268 223.822 99.5676C223.294 99.4614 222.48 99.3811 222.013 99.3889C221.546 99.3967 220.59 99.6085 219.889 99.8594ZM225.854 101.041C225.854 101.421 226.356 102.29 226.969 102.972C227.582 103.654 228.245 104.811 228.441 105.545C228.638 106.279 228.714 107.149 228.609 107.479C228.503 107.817 228.641 108.3 228.926 108.586C229.204 108.866 229.645 109.011 229.907 108.91C230.169 108.81 230.747 107.529 231.192 106.065C231.636 104.6 232 103.064 232 102.652C232 101.974 231.894 101.921 230.894 102.11C230.002 102.278 229.491 102.129 228.243 101.334C227.393 100.792 226.508 100.349 226.276 100.349C226.044 100.349 225.854 100.661 225.854 101.041ZM87.254 102.289C86.9328 103.26 86.3114 104.249 85.6959 104.77C85.1327 105.246 84.2755 105.774 83.791 105.943C83.3068 106.113 82.8184 106.543 82.7061 106.899C82.5935 107.255 82.5893 107.634 82.6967 107.742C82.8038 107.85 84.4525 107.756 86.3599 107.533C88.2677 107.31 89.8478 107.101 89.8718 107.069C89.8957 107.036 89.7272 105.621 89.4975 103.923C89.2679 102.226 89.0686 100.8 89.0547 100.755C89.0411 100.711 88.7503 100.674 88.4087 100.674C87.9514 100.674 87.6473 101.099 87.254 102.289ZM28.7691 103.804C28.6446 103.929 28.5417 104.482 28.5411 105.033C28.5404 105.584 28.2707 106.478 27.942 107.02C27.5426 107.678 27.4268 108.231 27.594 108.684C27.7315 109.058 28.2167 109.457 28.6721 109.572C29.1275 109.687 29.8214 110.217 30.2144 110.751C30.607 111.284 31.1835 111.721 31.4953 111.721C31.8071 111.721 32.1399 111.595 32.2347 111.441C32.3295 111.287 31.8521 109.496 31.1738 107.461C30.4259 105.216 29.755 103.724 29.4685 103.668C29.2087 103.617 28.894 103.678 28.7691 103.804ZM213.631 111.477C213.447 111.701 212.907 113.243 212.431 114.906C211.955 116.568 211.649 118.147 211.751 118.414C211.889 118.773 212.22 118.846 213.025 118.694C213.92 118.526 214.377 118.676 215.592 119.536C216.463 120.153 217.28 120.501 217.58 120.385C217.861 120.277 218.091 119.927 218.091 119.607C218.091 119.287 217.804 118.844 217.452 118.624C217.1 118.403 216.516 117.639 216.153 116.925C215.791 116.211 215.402 114.712 215.288 113.593C215.174 112.474 214.922 111.451 214.726 111.32C214.531 111.188 214.28 111.079 214.168 111.076C214.057 111.073 213.815 111.254 213.631 111.477ZM105.041 112.072C101.127 112.21 95.3777 112.487 92.2644 112.688C89.1511 112.888 84.0566 113.266 80.9432 113.528C77.8299 113.789 72.5898 114.299 69.2986 114.662C66.0074 115.025 63.169 115.377 62.9911 115.445C62.8132 115.513 89.9597 115.568 123.317 115.568C156.674 115.568 183.82 115.513 183.642 115.445C183.465 115.377 180.626 115.026 177.335 114.664C174.044 114.303 168.804 113.79 165.69 113.524C162.577 113.258 157.555 112.887 154.531 112.699C151.506 112.511 145.102 112.216 140.299 112.042C135.495 111.869 127.198 111.748 121.861 111.775C116.524 111.801 108.955 111.935 105.041 112.072ZM65.8955 123.498C65.8143 123.722 65.4549 124.768 65.0972 125.824C64.7394 126.879 64.4467 127.866 64.4467 128.017C64.4467 128.167 64.6611 128.291 64.9235 128.291C65.1858 128.291 65.6195 127.865 65.8874 127.344C66.1552 126.824 66.761 126.093 67.2333 125.72C67.8062 125.267 68.5618 125.042 69.504 125.042H70.9159V131.799C70.9159 136.622 70.8046 138.669 70.5278 138.947C70.3143 139.162 69.8776 139.337 69.5574 139.337C69.2371 139.337 68.9751 139.556 68.9751 139.824C68.9751 140.223 69.5321 140.312 72.048 140.312C74.5639 140.312 75.1209 140.223 75.1209 139.824C75.1209 139.556 74.8589 139.337 74.5387 139.337C74.2185 139.337 73.7818 139.162 73.5683 138.947C73.2914 138.669 73.1801 136.622 73.1801 131.799V125.042H74.5921C75.5343 125.042 76.2899 125.267 76.8628 125.72C77.335 126.093 77.9409 126.824 78.2087 127.344C78.4765 127.865 78.9103 128.291 79.1726 128.291C79.4349 128.291 79.6494 128.173 79.6494 128.029C79.6494 127.885 79.3392 126.825 78.9601 125.673C78.581 124.522 78.1443 123.44 77.9897 123.271C77.8141 123.078 77.5631 123.108 77.3205 123.352C77.0526 123.621 75.4056 123.742 72.0024 123.742C69.0647 123.742 66.9917 123.611 66.8726 123.417C66.7627 123.238 66.5311 123.092 66.3583 123.092C66.1853 123.092 65.977 123.275 65.8955 123.498ZM154.245 125.385C153.779 126.646 153.399 127.816 153.399 127.984C153.399 128.153 153.605 128.291 153.857 128.291C154.11 128.291 154.622 127.794 154.995 127.187C155.369 126.58 156.03 125.849 156.466 125.562C156.901 125.276 157.845 125.042 158.563 125.042H159.868V131.799C159.868 136.622 159.757 138.669 159.48 138.947C159.266 139.162 158.83 139.337 158.509 139.337C158.189 139.337 157.927 139.556 157.927 139.824C157.927 140.223 158.484 140.312 161 140.312C163.516 140.312 164.073 140.223 164.073 139.824C164.073 139.556 163.811 139.337 163.491 139.337C163.171 139.337 162.734 139.162 162.52 138.947C162.243 138.669 162.132 136.622 162.132 131.799V125.042H163.544C164.486 125.042 165.242 125.267 165.815 125.72C166.287 126.093 166.893 126.824 167.161 127.344C167.429 127.865 167.862 128.291 168.125 128.291C168.387 128.291 168.601 128.123 168.601 127.918C168.601 127.713 168.287 126.653 167.902 125.562C167.518 124.472 167.081 123.44 166.932 123.271C166.763 123.079 166.514 123.109 166.273 123.352C166.005 123.621 164.358 123.742 160.954 123.742C158.017 123.742 155.944 123.611 155.825 123.417C155.715 123.238 155.505 123.092 155.358 123.092C155.211 123.092 154.71 124.124 154.245 125.385ZM37.3587 123.78C36.7816 123.947 35.7993 124.597 35.1753 125.224C34.2279 126.175 34.0412 126.595 34.0412 127.77C34.0412 128.707 34.268 129.467 34.7189 130.043C35.0915 130.519 35.9283 131.173 36.5788 131.497C37.229 131.821 38.7072 132.346 39.8636 132.663C41.0199 132.979 42.5069 133.515 43.1684 133.852C43.8295 134.19 44.5331 134.771 44.7323 135.145C44.9312 135.518 45.0069 136.172 44.9008 136.597C44.7947 137.022 44.3881 137.669 43.9977 138.034C43.6073 138.399 42.7356 138.848 42.0608 139.03C41.2098 139.26 40.4364 139.255 39.5359 139.011C38.822 138.818 37.7216 138.205 37.0908 137.649C36.4601 137.092 35.6586 136.075 35.3095 135.388C34.9605 134.701 34.4595 134.139 34.1965 134.139C33.9332 134.139 33.7178 134.424 33.7178 134.773C33.7178 135.121 33.8701 136.181 34.0561 137.128C34.2424 138.075 34.4634 139.179 34.5475 139.581C34.6316 139.983 34.9004 140.312 35.1446 140.312C35.3888 140.312 35.6815 139.939 35.7951 139.485L36.0017 138.657L36.9042 139.303C37.4007 139.658 38.504 140.125 39.356 140.34C40.5415 140.64 41.2842 140.644 42.5208 140.357C43.4094 140.151 44.5599 139.68 45.0778 139.309C45.5956 138.939 46.2351 138.216 46.4994 137.703C46.7637 137.19 46.9797 136.198 46.9797 135.498C46.9797 134.699 46.7277 133.905 46.3021 133.361C45.9294 132.885 45.0926 132.226 44.4422 131.895C43.792 131.565 41.9699 130.901 40.3934 130.421C38.6881 129.901 37.2141 129.233 36.7544 128.771C36.3297 128.345 35.982 127.69 35.982 127.316C35.982 126.942 36.3297 126.287 36.7544 125.861C37.1795 125.434 38.059 124.984 38.7091 124.862C39.5065 124.712 40.3543 124.817 41.3127 125.184C42.0942 125.484 43.2159 126.281 43.8053 126.955C44.3949 127.628 45.0228 128.423 45.2007 128.721C45.4261 129.099 45.6658 129.171 45.9928 128.961C46.3991 128.7 46.3846 128.332 45.8845 126.201C45.5141 124.623 45.1489 123.742 44.8656 123.742C44.623 123.742 44.2992 123.966 44.1462 124.241C43.9007 124.682 43.6998 124.664 42.4318 124.086C41.642 123.726 40.4134 123.441 39.7018 123.453C38.9902 123.466 37.9357 123.613 37.3587 123.78ZM93.0103 123.776C92.4423 123.941 91.4596 124.566 90.8269 125.166C89.8404 126.1 89.6767 126.463 89.6767 127.716C89.6767 128.706 89.8947 129.456 90.3521 130.04C90.7238 130.514 91.4697 131.132 92.0098 131.413C92.5497 131.693 94.1201 132.262 95.499 132.677C96.8779 133.091 98.4568 133.664 99.0073 133.95C99.5578 134.237 100.158 134.751 100.341 135.096C100.525 135.439 100.674 135.938 100.674 136.204C100.674 136.47 100.3 137.135 99.8422 137.681C99.3667 138.249 98.4655 138.822 97.7397 139.019C96.8375 139.263 96.0893 139.259 95.1571 139.007C94.4355 138.812 93.2859 138.145 92.6027 137.525C91.9196 136.905 91.1203 135.89 90.8269 135.268C90.5336 134.647 90.0817 134.139 89.8232 134.139C89.5648 134.139 89.3532 134.404 89.3532 134.729C89.3532 135.053 89.5069 136.187 89.6948 137.247C89.8824 138.307 90.1108 139.431 90.2017 139.743C90.2929 140.056 90.5601 140.312 90.7956 140.312C91.0311 140.312 91.3138 139.952 91.4237 139.512L91.6239 138.711L92.7732 139.495C93.4053 139.925 94.5704 140.376 95.3619 140.495C96.1741 140.617 97.4589 140.545 98.3106 140.33C99.1409 140.12 100.233 139.653 100.737 139.292C101.242 138.931 101.871 138.216 102.135 137.703C102.399 137.19 102.615 136.198 102.615 135.498C102.615 134.699 102.363 133.905 101.938 133.361C101.565 132.885 100.728 132.226 100.078 131.895C99.4275 131.565 97.6054 130.901 96.0289 130.421C94.3236 129.901 92.8496 129.233 92.3899 128.771C91.9652 128.345 91.6175 127.69 91.6175 127.316C91.6175 126.942 91.9652 126.287 92.3899 125.861C92.8149 125.434 93.6944 124.984 94.3446 124.862C95.1419 124.712 95.9897 124.817 96.9481 125.184C97.7296 125.484 98.8514 126.281 99.4407 126.955C100.03 127.628 100.658 128.423 100.836 128.721C101.051 129.081 101.307 129.167 101.601 128.978C101.97 128.741 101.947 128.287 101.461 126.218C101.114 124.743 100.714 123.742 100.47 123.742C100.244 123.742 99.9347 123.966 99.7817 124.241C99.5362 124.682 99.3353 124.664 98.0673 124.086C97.2774 123.726 96.0489 123.441 95.3373 123.453C94.6257 123.466 93.5786 123.611 93.0103 123.776ZM142.418 123.959C141.619 124.253 140.3 125.171 139.451 126.025C138.356 127.124 137.776 128.051 137.412 129.284C137.132 130.232 136.902 131.466 136.902 132.027C136.902 132.587 137.129 133.812 137.405 134.749C137.697 135.735 138.403 137.001 139.082 137.755C139.727 138.473 140.789 139.333 141.443 139.668C142.096 140.003 143.36 140.374 144.251 140.493C145.364 140.641 146.446 140.541 147.709 140.172C149.081 139.771 149.974 139.221 151.23 138.003C152.751 136.529 152.856 136.338 152.319 136.035C151.849 135.769 151.625 135.843 151.245 136.388C150.981 136.766 150.011 137.51 149.09 138.041C147.842 138.76 147.002 139.005 145.797 139.004C144.72 139.002 143.751 138.757 142.896 138.271C142.189 137.869 141.281 137.048 140.878 136.446C140.474 135.844 139.997 134.823 139.819 134.177C139.64 133.531 139.493 132.49 139.493 131.864C139.493 131.239 139.64 130.198 139.819 129.552C139.997 128.906 140.474 127.884 140.878 127.283C141.281 126.681 142.189 125.86 142.896 125.458C143.635 125.037 144.729 124.727 145.474 124.727C146.22 124.727 147.315 125.038 148.062 125.462C148.916 125.946 149.652 126.744 150.228 127.812C150.708 128.701 151.29 129.428 151.521 129.428C151.784 129.428 151.927 129.06 151.9 128.453C151.876 127.917 151.611 126.638 151.311 125.61C151.002 124.554 150.579 123.742 150.337 123.742C150.102 123.742 149.824 123.966 149.719 124.241C149.55 124.685 149.417 124.681 148.5 124.205C147.934 123.911 146.658 123.616 145.664 123.55C144.518 123.473 143.33 123.623 142.418 123.959ZM183.794 123.897C182.988 124.157 181.71 124.902 180.953 125.553C180.196 126.203 179.257 127.342 178.866 128.082C178.305 129.144 178.155 129.976 178.154 132.027C178.153 133.93 178.313 134.931 178.75 135.763C179.079 136.389 179.805 137.388 180.363 137.985C180.921 138.581 181.96 139.378 182.672 139.755C183.65 140.272 184.558 140.442 186.392 140.448C188.464 140.454 189.065 140.319 190.517 139.519C191.452 139.004 192.599 138.079 193.066 137.465C193.533 136.85 194.114 135.681 194.358 134.866C194.602 134.052 194.802 132.704 194.802 131.871C194.802 131.038 194.572 129.677 194.29 128.848C194.009 128.018 193.239 126.78 192.578 126.097C191.918 125.414 190.82 124.589 190.138 124.264C189.457 123.939 188.08 123.617 187.079 123.548C186.024 123.476 184.644 123.622 183.794 123.897ZM55.306 123.967C55.2267 124.111 53.9416 127.501 52.4501 131.5C50.2997 137.267 49.5875 138.84 49.0062 139.106C48.6032 139.291 48.2736 139.637 48.2736 139.877C48.2736 140.202 48.8878 140.312 50.6995 140.312C52.6403 140.312 53.1255 140.214 53.1255 139.824C53.1255 139.551 52.837 139.337 52.4686 139.337C52.1069 139.337 51.7294 139.123 51.6295 138.861C51.5295 138.6 51.7644 137.43 52.1512 136.262L52.8548 134.139H55.8749H58.8951L59.5986 136.262C59.9855 137.43 60.2203 138.6 60.1204 138.861C60.0204 139.123 59.6429 139.337 59.2813 139.337C58.9129 139.337 58.6244 139.551 58.6244 139.824C58.6244 140.221 59.1636 140.312 61.5355 140.312C63.9075 140.312 64.4467 140.221 64.4467 139.824C64.4467 139.556 64.2461 139.337 64.0009 139.337C63.7561 139.337 63.3708 139.114 63.1451 138.84C62.9193 138.567 61.5355 135.095 60.0702 131.124C57.446 124.014 57.391 123.903 56.4281 123.805C55.8905 123.75 55.3855 123.823 55.306 123.967ZM80.6198 124.229C80.6198 124.497 80.8818 124.717 81.202 124.717C81.5222 124.717 81.9589 124.892 82.1724 125.107C82.4486 125.384 82.5605 127.381 82.5605 132.027C82.5605 136.673 82.4486 138.67 82.1724 138.947C81.9589 139.162 81.5222 139.337 81.202 139.337C80.8818 139.337 80.6198 139.556 80.6198 139.824C80.6198 140.223 81.1768 140.312 83.6927 140.312C86.2086 140.312 86.7656 140.223 86.7656 139.824C86.7656 139.556 86.5036 139.337 86.1833 139.337C85.8631 139.337 85.4264 139.162 85.2129 138.947C84.9367 138.67 84.8248 136.673 84.8248 132.027C84.8248 127.381 84.9367 125.384 85.2129 125.107C85.4264 124.892 85.8631 124.717 86.1833 124.717C86.5036 124.717 86.7656 124.497 86.7656 124.229C86.7656 123.83 86.2086 123.742 83.6927 123.742C81.1768 123.742 80.6198 123.83 80.6198 124.229ZM104.879 124.229C104.879 124.531 105.184 124.717 105.677 124.717C106.134 124.717 106.617 124.985 106.809 125.345C107.006 125.715 107.144 128.512 107.144 132.145C107.144 137.322 107.062 138.398 106.635 138.827C106.356 139.107 105.834 139.337 105.476 139.337C105.1 139.337 104.882 139.508 104.96 139.743C105.052 140.022 106.076 140.179 108.221 140.242C110.742 140.317 111.349 140.247 111.349 139.877C111.349 139.625 110.922 139.333 110.4 139.228C109.573 139.062 109.425 138.859 109.246 137.644C109.133 136.878 109.086 135.446 109.143 134.464L109.246 132.677L110.647 132.576C111.522 132.512 112.337 132.664 112.816 132.979C113.271 133.279 113.669 133.947 113.796 134.623C113.918 135.277 114.2 135.763 114.457 135.763C114.815 135.763 114.907 134.998 114.907 132.027C114.907 129.055 114.815 128.291 114.457 128.291C114.203 128.291 113.919 128.769 113.802 129.395C113.689 130.002 113.383 130.677 113.124 130.893C112.864 131.11 111.885 131.307 110.949 131.332L109.246 131.377V128.291V125.204L111.919 125.109C113.855 125.041 114.892 125.158 115.678 125.533C116.275 125.817 117.034 126.555 117.364 127.171C117.722 127.836 118.212 128.291 118.573 128.291C118.926 128.291 119.116 128.12 119.026 127.884C118.941 127.661 118.608 126.638 118.286 125.61L117.7 123.742H111.289C105.807 123.742 104.879 123.812 104.879 124.229ZM126.423 124.012C126.332 124.16 125.585 126.098 124.764 128.317C123.942 130.536 122.687 133.85 121.975 135.682C120.914 138.41 120.538 139.048 119.896 139.21C119.465 139.319 119.112 139.611 119.112 139.86C119.112 140.208 119.705 140.312 121.699 140.312C123.728 140.312 124.287 140.211 124.287 139.847C124.287 139.592 123.96 139.335 123.559 139.279C123.112 139.215 122.794 138.914 122.735 138.497C122.682 138.125 122.947 136.992 123.325 135.979L124.01 134.139H126.996H129.982L130.725 136.455C131.333 138.353 131.389 138.822 131.031 139.049C130.791 139.202 130.413 139.329 130.19 139.332C129.968 139.335 129.786 139.556 129.786 139.824C129.786 140.221 130.325 140.312 132.697 140.312C135.069 140.312 135.608 140.221 135.608 139.824C135.608 139.556 135.413 139.337 135.173 139.337C134.934 139.337 134.518 139.081 134.248 138.769C133.978 138.456 132.557 134.947 131.089 130.971C128.472 123.883 128.403 123.742 127.505 123.742C127.002 123.742 126.515 123.863 126.423 124.012ZM169.572 124.229C169.572 124.497 169.834 124.717 170.154 124.717C170.474 124.717 170.911 124.892 171.124 125.107C171.401 125.384 171.513 127.381 171.513 132.027C171.513 136.673 171.401 138.67 171.124 138.947C170.911 139.162 170.474 139.337 170.154 139.337C169.834 139.337 169.572 139.556 169.572 139.824C169.572 140.223 170.129 140.312 172.645 140.312C175.161 140.312 175.718 140.223 175.718 139.824C175.718 139.556 175.456 139.337 175.135 139.337C174.815 139.337 174.378 139.162 174.165 138.947C173.889 138.67 173.777 136.673 173.777 132.027C173.777 127.381 173.889 125.384 174.165 125.107C174.378 124.892 174.815 124.717 175.135 124.717C175.456 124.717 175.718 124.497 175.718 124.229C175.718 123.83 175.161 123.742 172.645 123.742C170.129 123.742 169.572 123.83 169.572 124.229ZM197.066 124.229C197.066 124.531 197.37 124.717 197.863 124.717C198.321 124.717 198.803 124.985 198.996 125.345C199.191 125.712 199.328 128.384 199.326 131.762C199.324 134.945 199.232 137.886 199.122 138.298C198.992 138.787 198.602 139.11 197.994 139.232C197.484 139.335 197.066 139.619 197.066 139.865C197.066 140.209 197.698 140.312 199.816 140.312C201.835 140.312 202.565 140.201 202.565 139.896C202.565 139.667 202.128 139.314 201.595 139.112L200.624 138.744L200.635 132.136C200.643 126.857 200.724 125.639 201.039 126.076C201.256 126.378 203.298 129.704 205.578 133.468C208.677 138.585 209.881 140.312 210.349 140.312C210.947 140.312 210.975 140.022 210.975 133.692C210.975 130.051 211.067 126.608 211.18 126.04C211.341 125.235 211.59 124.967 212.312 124.822C212.822 124.719 213.239 124.434 213.239 124.189C213.239 123.845 212.607 123.742 210.49 123.742C208.261 123.742 207.74 123.834 207.74 124.229C207.74 124.497 208.026 124.717 208.376 124.717C208.725 124.717 209.166 125.006 209.355 125.361C209.566 125.757 209.664 127.903 209.609 130.936L209.519 135.866L205.856 129.804L202.192 123.742H199.629C197.567 123.742 197.066 123.837 197.066 124.229ZM188.785 125.17C189.379 125.419 190.233 126.113 190.684 126.713C191.135 127.313 191.663 128.388 191.857 129.103C192.051 129.818 192.211 131.144 192.212 132.05C192.213 132.956 191.99 134.345 191.716 135.137C191.442 135.928 190.955 136.893 190.633 137.281C190.312 137.669 189.554 138.29 188.948 138.661C188.328 139.04 187.291 139.335 186.575 139.336C185.875 139.336 184.672 139.031 183.902 138.656C182.951 138.194 182.233 137.515 181.666 136.544C181.135 135.633 180.769 134.42 180.659 133.203C180.563 132.137 180.666 130.54 180.892 129.593C181.132 128.589 181.708 127.426 182.302 126.746C182.855 126.114 183.746 125.404 184.283 125.17C184.82 124.934 185.81 124.737 186.483 124.729C187.156 124.723 188.192 124.92 188.785 125.17ZM57.0109 129.103C57.5932 130.711 58.1372 132.21 58.2197 132.433C58.3319 132.736 57.7355 132.839 55.8749 132.839C54.0157 132.839 53.4176 132.735 53.5276 132.433C53.6091 132.21 54.1551 130.671 54.7412 129.014C55.3273 127.357 55.8397 126.042 55.8795 126.09C55.9196 126.139 56.4287 127.495 57.0109 129.103ZM127.109 132.773C125.87 132.826 124.791 132.804 124.713 132.725C124.634 132.645 125.002 131.36 125.531 129.867C126.06 128.375 126.601 126.879 126.734 126.544C126.914 126.089 127.279 126.792 128.169 129.305L129.362 132.677L127.109 132.773ZM80.8624 145.853C80.5415 146.046 80.2963 146.581 80.2963 147.089V147.986L63.8806 148.465C49.6486 148.881 47.3291 148.883 46.4431 148.481C45.8809 148.226 45.1884 148.107 44.9037 148.217C44.6191 148.326 44.2216 148.78 44.0197 149.224C43.7247 149.875 43.758 150.193 44.1918 150.858C44.5651 151.43 45.0202 151.683 45.6749 151.683C46.2668 151.683 46.7966 151.429 47.0936 151.004C47.5089 150.408 47.9621 150.309 50.751 150.207C52.5015 150.142 57.5731 149.934 62.0207 149.743C66.4683 149.553 72.6199 149.363 75.6905 149.322C80.5502 149.256 81.2466 149.31 81.0629 149.734C80.9468 150.002 80.7796 150.647 80.6913 151.168C80.5771 151.841 80.7013 152.239 81.1224 152.548C81.4475 152.787 82.0275 152.983 82.4105 152.983C82.7938 152.983 83.3656 152.696 83.6817 152.345C83.9977 151.994 84.1704 151.483 84.0656 151.208C83.9605 150.933 83.5636 150.709 83.1829 150.709C82.7077 150.709 82.5483 150.858 82.6734 151.185C82.7737 151.448 82.7459 151.731 82.612 151.814C82.4777 151.897 82.1772 151.847 81.9444 151.702C81.6804 151.538 81.6041 151.176 81.7419 150.74C81.8632 150.356 82.3454 149.789 82.8135 149.481C83.593 148.968 85.1754 148.922 101.73 148.922H119.796L120.402 149.729C120.736 150.173 121.112 150.432 121.239 150.304C121.367 150.176 121.493 149.192 121.521 148.116C121.548 147.04 121.465 146.16 121.335 146.16C121.206 146.16 120.81 146.53 120.455 146.983L119.811 147.806L100.712 147.861C90.2082 147.891 81.5177 147.82 81.4003 147.702C81.2829 147.584 81.2816 147.24 81.3974 146.936C81.5905 146.431 81.6468 146.436 82.0783 147.004C82.4862 147.54 82.5916 147.558 82.8775 147.135C83.0587 146.867 83.1693 146.428 83.1234 146.16C83.0778 145.892 82.6776 145.637 82.2342 145.594C81.791 145.55 81.1739 145.667 80.8624 145.853ZM163.542 146.002C163.438 146.272 163.544 146.724 163.777 147.006C164.161 147.47 164.239 147.465 164.613 146.952C164.998 146.422 165.039 146.421 165.236 146.936C165.352 147.24 165.351 147.584 165.233 147.702C165.116 147.82 156.402 147.891 145.87 147.861C132.831 147.823 126.684 147.696 126.607 147.464C126.545 147.277 126.269 146.897 125.993 146.621C125.675 146.301 125.381 146.231 125.184 146.429C124.986 146.627 125.003 146.981 125.228 147.403C125.476 147.87 125.481 148.331 125.246 148.953C125.009 149.578 125.014 149.944 125.263 150.193C125.517 150.448 125.786 150.319 126.227 149.734L126.838 148.922H144.947C162.838 148.922 163.066 148.93 163.969 149.604C164.471 149.979 164.928 150.601 164.985 150.985C165.062 151.505 164.92 151.683 164.429 151.683C163.976 151.683 163.828 151.531 163.956 151.196C164.086 150.856 163.933 150.709 163.451 150.709C163.07 150.709 162.673 150.933 162.568 151.208C162.463 151.483 162.636 151.994 162.952 152.345C163.268 152.696 163.805 152.983 164.144 152.983C164.484 152.983 165.044 152.831 165.388 152.647C165.811 152.419 166.014 151.966 166.014 151.25C166.014 150.666 165.841 150.016 165.631 149.804C165.421 149.593 165.311 149.373 165.389 149.316C165.465 149.258 170.041 149.32 175.556 149.453C181.071 149.586 188.36 149.843 191.754 150.024C195.148 150.204 198.204 150.279 198.547 150.19C198.978 150.077 199.268 150.256 199.492 150.774C199.71 151.277 200.138 151.553 200.802 151.618C201.479 151.684 201.981 151.502 202.398 151.039C202.875 150.509 202.941 150.181 202.705 149.514C202.539 149.046 202.156 148.508 201.855 148.318C201.451 148.064 201.023 148.101 200.237 148.459C199.289 148.89 197.321 148.891 182.751 148.465C167.352 148.015 166.344 147.95 166.513 147.414C166.62 147.077 166.421 146.569 166.03 146.177C165.665 145.81 164.998 145.51 164.548 145.51C164.098 145.51 163.645 145.731 163.542 146.002ZM122.67 147.622C122.372 147.982 122.347 148.24 122.584 148.478C122.771 148.666 123.195 148.768 123.525 148.704C123.868 148.638 124.125 148.313 124.125 147.947C124.125 147.594 123.894 147.261 123.61 147.206C123.327 147.152 122.904 147.339 122.67 147.622ZM46.1374 149.601C46.2461 149.885 46.2529 150.25 46.153 150.413C46.053 150.576 45.7735 150.709 45.5319 150.709C45.2906 150.709 45.0293 150.526 44.9519 150.302C44.8743 150.079 44.8775 149.714 44.9594 149.49C45.0412 149.267 45.2955 149.084 45.5241 149.084C45.7528 149.084 46.0291 149.317 46.1374 149.601ZM201.857 149.82C201.917 150.131 201.727 150.478 201.435 150.59C201.143 150.703 200.764 150.654 200.592 150.481C200.42 150.309 200.375 149.916 200.493 149.61C200.61 149.303 200.94 149.098 201.227 149.153C201.514 149.208 201.798 149.509 201.857 149.82ZM43.3408 156.447C43.6089 156.556 43.7451 157.359 43.7451 158.831C43.7451 160.303 43.6089 161.106 43.3408 161.215C43.1186 161.305 43.4275 161.391 44.0272 161.405C44.9432 161.426 45.0558 161.355 44.7304 160.961C44.5169 160.702 44.3901 160.154 44.448 159.742C44.5337 159.135 44.7828 158.974 45.7667 158.893C46.9551 158.794 46.9797 158.815 46.9797 159.921C46.9797 160.543 46.7979 161.125 46.5754 161.215C46.3532 161.305 46.6734 161.391 47.287 161.405C48.1549 161.424 48.3166 161.343 48.0148 161.04C47.8013 160.826 47.6266 159.832 47.6266 158.831C47.6266 157.83 47.8013 156.836 48.0148 156.622C48.3166 156.319 48.2234 156.232 47.5946 156.232C46.861 156.232 46.7986 156.337 46.9183 157.369C47.0506 158.505 47.0499 158.506 45.7211 158.506C44.5499 158.506 44.392 158.417 44.392 157.759C44.392 157.348 44.5667 156.836 44.7802 156.622C45.082 156.319 44.9202 156.238 44.0524 156.257C43.4388 156.271 43.1186 156.357 43.3408 156.447ZM55.3784 156.86C55.5625 157.206 55.7132 158.224 55.7132 159.123C55.7132 160.406 55.8474 160.83 56.3388 161.094C56.6829 161.279 57.3202 161.43 57.7549 161.43C58.1896 161.43 58.7434 161.19 58.9857 160.897C59.2276 160.604 59.5035 159.434 59.5986 158.298C59.7413 156.589 59.6863 156.232 59.2787 156.231C58.877 156.231 58.8061 156.619 58.8944 158.337C58.9967 160.329 58.9572 160.465 58.176 160.823C57.5262 161.12 57.2386 161.108 56.8301 160.768C56.4293 160.434 56.3346 159.864 56.4161 158.282C56.5167 156.331 56.486 156.231 55.7827 156.231C55.1523 156.232 55.0928 156.324 55.3784 156.86ZM66.9697 156.622C67.1832 156.836 67.3578 157.83 67.3578 158.831C67.3578 159.832 67.1832 160.826 66.9697 161.04C66.6679 161.343 66.7937 161.429 67.5357 161.425C68.1649 161.422 68.3463 161.328 68.0678 161.151C67.7787 160.967 67.6771 160.279 67.7444 158.963L67.843 157.044L69.1233 159.237C69.8275 160.443 70.5187 161.43 70.6597 161.43C70.8004 161.43 70.9159 160.436 70.9159 159.221C70.9159 157.936 71.0783 156.848 71.3041 156.622C71.6059 156.319 71.4956 156.232 70.8076 156.232C70.017 156.232 69.9604 156.302 70.2764 156.895C70.4708 157.26 70.585 158.101 70.5303 158.763L70.4307 159.968L69.2216 158.1C68.3512 156.755 67.8126 156.232 67.297 156.232C66.7407 156.232 66.6679 156.319 66.9697 156.622ZM78.2908 156.622C78.5095 156.841 78.679 157.894 78.679 159.031C78.679 160.343 78.5373 161.109 78.2747 161.215C78.0525 161.305 78.7139 161.391 79.7448 161.405C81.3236 161.426 81.7451 161.304 82.4134 160.633C82.8501 160.194 83.2075 159.543 83.2075 159.186C83.2075 158.829 83.0419 158.171 82.8394 157.725C82.6369 157.279 82.033 156.76 81.4973 156.573C80.9617 156.385 79.9337 156.232 79.213 156.232C78.1938 156.232 77.9891 156.319 78.2908 156.622ZM90.1619 158.831C90.1619 161.225 90.2137 161.43 90.8172 161.43C91.3888 161.43 91.4596 161.253 91.371 160.049L91.2691 158.669L92.5035 160.049C93.1821 160.809 93.9771 161.43 94.2699 161.43C94.67 161.43 94.5671 161.194 93.8568 160.481C93.3367 159.958 92.9113 159.39 92.9113 159.219C92.9113 159.047 93.2024 158.83 93.5583 158.737C93.9927 158.623 94.2052 158.294 94.2052 157.736C94.2052 157.246 93.9477 156.766 93.5796 156.568C93.2354 156.383 92.3255 156.232 91.558 156.232H90.1619V158.831ZM101.24 156.447C101.509 156.556 101.645 157.359 101.645 158.831C101.645 160.299 101.508 161.11 101.24 161.224C101.018 161.319 101.839 161.367 103.064 161.332C105.053 161.275 105.322 161.189 105.562 160.534L105.831 159.8L104.914 160.481C104.407 160.857 103.652 161.113 103.225 161.052C102.619 160.966 102.432 160.716 102.352 159.887C102.276 159.094 102.379 158.831 102.767 158.831C103.05 158.831 103.366 159.05 103.468 159.318C103.571 159.586 103.785 159.806 103.944 159.806C104.102 159.806 104.233 159.367 104.233 158.831C104.233 158.295 104.087 157.856 103.909 157.856C103.731 157.856 103.586 158.003 103.586 158.181C103.586 158.36 103.294 158.506 102.939 158.506C102.464 158.506 102.292 158.289 102.292 157.694C102.292 156.964 102.422 156.882 103.569 156.882C104.445 156.882 104.951 157.061 105.177 157.45C105.358 157.763 105.511 157.848 105.517 157.639C105.522 157.43 105.438 157.028 105.33 156.746C105.177 156.345 104.662 156.237 102.985 156.257C101.803 156.271 101.018 156.357 101.24 156.447ZM112.578 156.622C112.791 156.836 112.966 157.83 112.966 158.831C112.966 159.832 112.791 160.826 112.578 161.04C112.276 161.343 112.603 161.43 114.048 161.43C115.59 161.43 116.042 161.294 116.7 160.633C117.137 160.194 117.494 159.543 117.494 159.186C117.494 158.829 117.329 158.171 117.126 157.725C116.924 157.279 116.32 156.76 115.784 156.573C115.249 156.385 114.221 156.232 113.5 156.232C112.481 156.232 112.276 156.319 112.578 156.622ZM132.632 156.622C132.846 156.836 133.021 157.83 133.021 158.831C133.021 159.832 132.846 160.826 132.632 161.04C132.331 161.343 132.492 161.424 133.36 161.405C133.974 161.391 134.294 161.305 134.072 161.215C133.85 161.125 133.668 160.625 133.668 160.104C133.668 159.248 133.771 159.156 134.735 159.156C135.322 159.156 135.977 158.98 136.191 158.766C136.404 158.552 136.579 158.121 136.579 157.81C136.579 157.498 136.255 157.016 135.86 156.738C135.464 156.46 134.489 156.232 133.692 156.232C132.566 156.232 132.331 156.319 132.632 156.622ZM143.319 158.55C143.398 160.229 143.309 160.945 142.995 161.145C142.734 161.312 143.421 161.422 144.735 161.425C146.554 161.43 146.961 161.328 147.242 160.802C147.426 160.456 147.576 160.086 147.576 159.98C147.576 159.873 147.159 160.096 146.65 160.474C146.136 160.856 145.38 161.113 144.952 161.052C144.427 160.978 144.145 160.697 144.072 160.174C144.012 159.752 144.118 159.251 144.307 159.061C144.549 158.818 144.843 158.892 145.304 159.312C145.949 159.898 145.959 159.89 145.959 158.816C145.959 157.969 145.873 157.813 145.571 158.116C145.357 158.331 144.921 158.506 144.601 158.506C144.195 158.506 144.018 158.26 144.018 157.694C144.018 156.964 144.149 156.882 145.296 156.882C146.172 156.882 146.678 157.061 146.904 157.45C147.085 157.763 147.238 157.848 147.243 157.639C147.248 157.43 147.165 157.028 147.057 156.746C146.91 156.361 146.401 156.231 145.035 156.231L143.21 156.23L143.319 158.55ZM154.288 156.586C154.523 156.833 154.693 157.859 154.693 159.031C154.693 160.343 154.551 161.109 154.288 161.215C154.066 161.305 154.393 161.379 155.016 161.379C155.639 161.379 155.966 161.305 155.744 161.215C155.522 161.125 155.34 160.552 155.34 159.941C155.34 159.331 155.476 158.831 155.642 158.831C155.808 158.831 156.354 159.413 156.855 160.124C157.377 160.865 158.034 161.419 158.395 161.423C158.928 161.429 158.857 161.257 157.932 160.298C157.331 159.675 156.902 159.127 156.979 159.08C157.056 159.032 157.41 158.832 157.765 158.634C158.121 158.436 158.449 158.07 158.493 157.822C158.537 157.573 158.44 157.16 158.276 156.904C158.088 156.61 157.226 156.388 155.931 156.3C154.251 156.186 153.956 156.237 154.288 156.586ZM166.185 157.005C165.633 157.559 165.367 158.183 165.367 158.922C165.367 159.647 165.62 160.256 166.115 160.724C166.542 161.126 167.272 161.426 167.814 161.42C168.336 161.414 169.018 161.215 169.329 160.978C169.64 160.74 169.895 160.46 169.895 160.353C169.895 160.248 169.477 160.402 168.965 160.697C168.098 161.197 167.978 161.196 167.191 160.678C166.727 160.372 166.253 159.746 166.139 159.286C165.994 158.708 166.128 158.183 166.572 157.584C166.925 157.108 167.45 156.673 167.739 156.616C168.027 156.559 168.63 156.881 169.079 157.332C169.528 157.783 169.885 157.976 169.873 157.76C169.86 157.545 169.751 157.15 169.63 156.882C169.507 156.609 168.879 156.348 168.206 156.289C167.265 156.206 166.825 156.362 166.185 157.005ZM176.947 156.622C177.16 156.836 177.335 157.83 177.335 158.831C177.335 159.832 177.16 160.826 176.947 161.04C176.645 161.343 177.032 161.43 178.691 161.43C180.337 161.43 180.868 161.313 181.02 160.916C181.128 160.634 181.216 160.24 181.216 160.042C181.216 159.844 181.034 159.932 180.811 160.238C180.588 160.545 179.86 160.884 179.194 160.993L177.982 161.19V160.011C177.982 159.197 178.127 158.831 178.451 158.831C178.709 158.831 179.068 159.087 179.25 159.4C179.518 159.862 179.577 159.755 179.564 158.831C179.555 158.206 179.475 157.877 179.385 158.1C179.295 158.324 178.943 158.506 178.602 158.506C178.156 158.506 177.982 158.278 177.982 157.694C177.982 156.985 178.123 156.882 179.095 156.882C179.707 156.882 180.298 157.028 180.408 157.207C180.518 157.385 180.75 157.531 180.923 157.531C181.119 157.531 181.107 157.283 180.893 156.882C180.604 156.34 180.216 156.232 178.553 156.232C177.002 156.232 176.645 156.319 176.947 156.622ZM188.28 158.538C188.359 160.227 188.27 160.945 187.956 161.145C187.672 161.326 187.912 161.42 188.656 161.42C189.378 161.42 189.635 161.323 189.366 161.151C189.079 160.968 188.976 160.288 189.043 159.016L189.141 157.149L190.397 159.312C191.088 160.501 191.768 161.354 191.909 161.208C192.049 161.062 192.212 159.882 192.27 158.587C192.357 156.661 192.287 156.231 191.891 156.231C191.504 156.231 191.426 156.611 191.505 158.1L191.604 159.968L190.516 158.181C189.894 157.159 189.159 156.354 188.799 156.3C188.218 156.214 188.179 156.383 188.28 158.538ZM199.223 156.449C199.104 156.567 199.007 156.863 199.007 157.106C199.007 157.461 199.153 157.45 199.761 157.051C200.175 156.778 200.612 156.653 200.731 156.772C200.85 156.892 200.948 157.813 200.948 158.82C200.948 159.827 200.773 160.826 200.559 161.04C200.258 161.343 200.419 161.424 201.287 161.405C201.901 161.391 202.221 161.305 201.999 161.215C201.731 161.106 201.595 160.304 201.595 158.834C201.595 156.778 201.641 156.63 202.242 156.787C202.597 156.881 202.888 157.087 202.888 157.245C202.888 157.402 203.02 157.531 203.181 157.531C203.343 157.531 203.399 157.239 203.306 156.882C203.161 156.327 202.864 156.232 201.287 156.232C200.27 156.232 199.341 156.329 199.223 156.449ZM81.9279 157.386C82.1572 157.664 82.3448 158.345 82.3448 158.899C82.3448 159.556 82.0883 160.116 81.6083 160.506C81.203 160.836 80.5237 161.105 80.0987 161.105C79.3631 161.105 79.3259 161.003 79.3259 158.993V156.882H80.4186C81.0193 156.882 81.6985 157.109 81.9279 157.386ZM93.3965 157.694C93.3965 158.189 93.1471 158.368 92.3453 158.445C91.4004 158.537 91.294 158.461 91.294 157.694C91.294 156.927 91.4004 156.851 92.3453 156.942C93.1471 157.02 93.3965 157.198 93.3965 157.694ZM116.136 157.271C116.349 157.486 116.524 158.208 116.524 158.877C116.524 159.766 116.33 160.23 115.805 160.599C115.41 160.878 114.755 161.105 114.349 161.105C113.659 161.105 113.613 160.974 113.613 158.993V156.882H114.68C115.267 156.882 115.922 157.057 116.136 157.271ZM135.549 157.775C135.469 158.477 135.256 158.691 134.557 158.771C133.758 158.864 133.668 158.773 133.668 157.878C133.668 156.983 133.768 156.882 134.659 156.882C135.551 156.882 135.641 156.972 135.549 157.775ZM157.604 157.694C157.604 158.405 157.464 158.506 156.472 158.506C155.48 158.506 155.34 158.405 155.34 157.694C155.34 156.982 155.48 156.882 156.472 156.882C157.464 156.882 157.604 156.982 157.604 157.694ZM142.078 169.813C142.078 169.956 142.205 170.212 142.361 170.381C142.517 170.551 142.885 171.434 143.179 172.345C143.473 173.255 143.614 174.259 143.493 174.576C143.3 175.081 143.36 175.105 143.985 174.769C144.376 174.559 144.826 174.042 144.986 173.622C145.161 173.157 145.149 172.399 144.955 171.693C144.743 170.921 144.318 170.364 143.696 170.041C143.179 169.772 142.604 169.553 142.417 169.553C142.23 169.553 142.078 169.67 142.078 169.813ZM140.497 170.647C139.869 171.321 139.761 171.699 139.917 172.667C140.023 173.321 140.356 174.131 140.658 174.466C140.973 174.816 141.635 175.074 142.209 175.071C142.826 175.068 143.055 174.967 142.806 174.809C142.585 174.667 142.195 173.829 141.939 172.946C141.685 172.062 141.429 170.997 141.372 170.578L141.269 169.817L140.497 170.647ZM103.95 172.206C103.718 173.338 103.379 174.445 103.197 174.666C102.964 174.949 102.996 175.116 103.306 175.231C103.549 175.32 104.098 175.431 104.527 175.478C105.243 175.556 105.358 175.365 105.916 173.168C106.251 171.85 106.472 170.719 106.406 170.653C106.341 170.588 105.857 170.447 105.33 170.342C104.381 170.151 104.369 170.167 103.95 172.206ZM107.467 171.502C107.823 171.859 108.119 172.335 108.124 172.558C108.129 172.781 108.287 172.699 108.474 172.376C108.662 172.052 108.735 171.577 108.636 171.32C108.538 171.063 108.089 170.852 107.639 170.852H106.82L107.467 171.502ZM136.174 171.401C135.863 171.483 135.608 171.685 135.608 171.851C135.608 172.016 135.744 172.152 135.909 172.152C136.074 172.152 136.378 172.965 136.583 173.959C136.788 174.952 136.873 175.982 136.772 176.247C136.622 176.641 136.808 176.689 137.797 176.512C138.461 176.394 139.143 176.168 139.312 176.011C139.504 175.833 139.485 175.726 139.263 175.726C139.068 175.726 138.735 174.958 138.523 174.02C138.312 173.082 138.07 172.058 137.984 171.746C137.899 171.433 137.584 171.194 137.285 171.215C136.985 171.236 136.486 171.319 136.174 171.401ZM109.65 171.853C109.315 172.049 109.084 172.572 109.084 173.139C109.084 173.899 109.348 174.26 110.378 174.913C111.09 175.365 111.672 175.825 111.672 175.938C111.672 176.05 111.417 176.336 111.106 176.573C110.576 176.977 110.582 177.005 111.196 177.015C111.557 177.021 112.175 176.798 112.57 176.519C112.978 176.233 113.289 175.672 113.289 175.224C113.289 174.656 112.926 174.204 111.996 173.614C111.284 173.163 110.702 172.678 110.702 172.537C110.702 172.397 110.876 172.106 111.09 171.892C111.392 171.589 111.338 171.504 110.847 171.512C110.5 171.517 109.962 171.671 109.65 171.853ZM111.996 171.702C111.996 171.762 112.263 172.253 112.59 172.793C112.916 173.333 113.28 173.677 113.398 173.559C113.517 173.44 113.613 173.019 113.613 172.623C113.613 172.113 113.377 171.857 112.804 171.747C112.359 171.662 111.996 171.641 111.996 171.702ZM132.541 172.389C132.673 172.705 132.905 173.695 133.058 174.589C133.209 175.482 133.253 176.469 133.155 176.782C133.057 177.094 133.133 177.35 133.322 177.35C133.512 177.35 133.959 177.058 134.314 176.7C134.737 176.276 134.958 175.628 134.951 174.832C134.946 174.162 134.752 173.364 134.521 173.058C134.289 172.752 133.695 172.348 133.2 172.159C132.399 171.853 132.326 171.878 132.541 172.389ZM113.936 172.964C113.936 173.411 114.03 173.776 114.143 173.776C114.257 173.776 114.544 173.52 114.78 173.208C115.016 172.895 115.214 172.53 115.22 172.396C115.226 172.261 114.939 172.152 114.583 172.152C114.109 172.152 113.936 172.369 113.936 172.964ZM115.79 172.373C115.707 172.52 115.538 173.563 115.416 174.692C115.293 175.821 115.113 176.954 115.015 177.21C114.878 177.57 115.156 177.674 116.247 177.673L117.656 177.671L117.68 175.074C117.698 173.208 117.591 172.477 117.302 172.477C117.081 172.477 116.685 172.394 116.422 172.292C116.158 172.19 115.874 172.227 115.79 172.373ZM130.433 172.802C130.042 173.194 129.786 173.885 129.786 174.545C129.786 175.146 130.074 176.005 130.425 176.454C130.777 176.903 131.37 177.351 131.745 177.449C132.288 177.592 132.378 177.518 132.193 177.083C132.066 176.783 131.846 175.755 131.706 174.798C131.565 173.841 131.528 172.854 131.623 172.605C131.718 172.356 131.635 172.152 131.438 172.152C131.241 172.152 130.789 172.444 130.433 172.802ZM106.731 172.886C106.272 173.236 106.263 173.369 106.657 173.898C107.089 174.476 107.122 174.463 107.328 173.639C107.447 173.162 107.48 172.706 107.401 172.627C107.323 172.548 107.021 172.665 106.731 172.886ZM118.141 172.624C118.141 172.705 118.308 173.139 118.512 173.589C118.716 174.038 119.007 174.329 119.159 174.234C119.311 174.14 119.435 173.706 119.435 173.27C119.435 172.693 119.259 172.477 118.788 172.477C118.432 172.477 118.141 172.543 118.141 172.624ZM125.496 172.843C125.187 173.017 124.934 173.444 124.934 173.793C124.934 174.252 125.157 174.426 125.743 174.426C126.299 174.426 126.55 174.249 126.547 173.858C126.544 173.545 126.433 173.117 126.3 172.908C126.134 172.646 125.882 172.626 125.496 172.843ZM127.101 173.627C127.249 174.542 127.134 174.94 126.539 175.576C126.128 176.016 125.926 176.373 126.091 176.37C126.255 176.367 126.972 176.034 127.684 175.631C128.533 175.148 129.016 174.626 129.089 174.111C129.157 173.631 128.976 173.16 128.623 172.901C128.305 172.668 127.791 172.477 127.48 172.477C127.014 172.477 126.948 172.678 127.101 173.627ZM106.739 175.173C106.25 175.367 105.85 175.644 105.85 175.788C105.85 175.933 106.056 176.051 106.308 176.051C106.561 176.051 106.979 176.132 107.238 176.232C107.555 176.354 107.76 176.143 107.866 175.582C107.953 175.125 107.935 174.767 107.826 174.785C107.718 174.805 107.228 174.979 106.739 175.173ZM108.438 175.644C108.439 176.425 108.572 176.544 109.489 176.59C110.067 176.619 110.349 176.567 110.115 176.475C109.881 176.383 109.557 175.957 109.395 175.529C109.233 175.101 108.951 174.751 108.769 174.751C108.587 174.751 108.438 175.153 108.438 175.644ZM128.982 176.368C128.875 176.542 128.154 176.658 127.381 176.624C126.596 176.589 125.745 176.754 125.455 176.996C125.168 177.235 124.934 177.521 124.934 177.634C124.934 177.746 125.727 177.872 126.695 177.914C127.937 177.968 128.604 177.841 128.959 177.485C129.236 177.207 129.463 176.77 129.463 176.515C129.463 176.26 129.398 176.051 129.32 176.051C129.241 176.051 129.089 176.193 128.982 176.368ZM119.447 176.849C119.232 177.109 119.15 177.474 119.265 177.661C119.38 177.847 119.761 178 120.111 178C120.462 178 120.839 177.766 120.948 177.48C121.057 177.194 120.944 176.83 120.695 176.672C120.447 176.515 120.153 176.383 120.041 176.38C119.929 176.378 119.662 176.588 119.447 176.849Z" fill="black"/>
</svg>
