<svg width="400" height="220" viewBox="0 0 400 220" fill="none" xmlns="http://www.w3.org/2000/svg">
<path fill-rule="evenodd" clip-rule="evenodd" d="M97.9272 156.826C101.49 156.297 105.123 156.506 108.602 157.44C109.119 157.633 109.701 158.635 110.413 159.023C111.125 159.41 111.48 159.023 111.804 159.443C113.45 161.069 114.874 162.905 116.041 164.903C117.917 167.229 110.607 172.98 107.405 170.718C106.467 170.072 106.273 167.035 105.561 165.872C104.271 164.324 102.702 163.031 100.935 162.06C96.5363 160.896 91.2315 163.869 88.8702 165.678C87.8145 166.488 86.8098 167.362 85.862 168.295C85.3121 168.876 85.1503 169.91 84.6651 170.524C84.1799 171.138 83.5007 171.138 83.2419 171.526C82.9831 171.913 83.2419 172.301 83.0478 172.721C82.8537 173.141 81.6893 173.884 81.4305 174.336C81.1717 174.789 81.4305 175.629 81.2364 176.146C81.0423 176.663 80.7189 176.146 80.6542 176.34C79.8651 177.903 79.3821 179.603 79.2309 181.347C78.497 183.556 78.3631 185.919 78.8428 188.197C79.2145 189.388 79.8315 190.488 80.6542 191.427C81.813 191.948 83.001 192.401 84.2123 192.784C86.7971 192.985 89.3841 192.424 91.652 191.169C92.9062 190.664 94.1177 190.059 95.2748 189.36C96.7304 188.455 97.5391 187.453 98.8976 186.743C101.324 185.483 97.7008 185.741 95.8894 186.161C94.078 186.581 92.1695 187.26 90.6816 187.518C89.3081 187.917 87.9003 188.188 86.4765 188.326C86.0888 188.164 85.7423 187.917 85.4624 187.604C85.1826 187.291 84.9764 186.92 84.8592 186.517C85.3137 184.625 85.9867 182.793 86.8647 181.057L88.6761 180.055C90.101 179.331 91.5832 178.726 93.1076 178.246C94.2013 178.108 95.3121 178.241 96.3422 178.633C96.8274 178.86 96.7627 179.667 97.345 179.829C97.9272 179.99 99.9327 179.377 101.162 179.247C102.174 179.287 103.181 179.417 104.17 179.635C105.501 179.449 106.851 179.449 108.181 179.635C108.666 179.635 108.731 180.281 109.216 180.443C110.769 180.992 113.874 180.798 113.227 183.673C112.904 185.095 112.613 186.904 112.224 188.487C112.03 189.23 111.869 190.426 111.61 191.104C111.351 191.783 110.995 191.33 110.801 191.718C110.607 192.106 110.801 193.301 110.413 194.109C110.025 194.917 109.475 195.369 109.216 196.112C108.957 196.855 109.054 197.695 108.796 198.341C108.537 198.987 107.599 199.827 107.405 200.538C106.984 201.927 107.049 203.284 106.176 203.963C105.421 204.171 104.686 204.441 103.976 204.77C102.973 205.417 101.194 208.001 99.3505 206.58C98.5418 205.901 99.5769 201.023 99.7386 198.955C99.9871 197.525 100.322 196.112 100.741 194.723C101.809 189.295 99.1564 191.944 96.9245 193.301C92.59 195.983 85.1503 200.183 77.0313 198.341C75.6499 198.052 74.2969 197.641 72.988 197.113C72.6646 197.113 72.6646 196.435 72.1794 196.112C71.6942 195.789 71.1119 196.112 70.7885 195.724C68.9447 193.98 69.0741 190.749 68.039 187.744C67.8907 185.77 68.1664 183.788 68.8477 181.929C69.0741 181.024 69.5593 179.893 69.8504 178.924C70.5137 177.082 71.3932 175.325 72.4705 173.69C72.988 172.786 74.1849 172.237 74.6701 171.493C75.231 170.353 75.9027 169.271 76.6755 168.263C77.1284 167.81 77.743 167.746 78.2929 167.261C78.8428 166.776 79.7808 165.226 80.5248 164.644C81.948 163.513 83.7594 163.158 85.1503 162.027C85.7478 161.367 86.5628 160.943 87.4469 160.832C89.2907 160.153 91.7814 158.409 94.078 157.601C95.3753 157.163 96.7231 156.892 98.0889 156.793" fill="black"/>
<path fill-rule="evenodd" clip-rule="evenodd" d="M329.429 151.204C331.402 151.204 332.664 151.559 332.243 153.821C332.169 155.171 331.974 156.512 331.661 157.827C331.194 159.226 330.576 160.569 329.817 161.833C328.155 163.547 325.948 164.632 323.574 164.903C322.554 164.951 321.534 164.809 320.566 164.483C320.566 164.483 319.337 161.801 319.337 161.866C319.162 160.742 319.252 159.593 319.6 158.511C319.948 157.428 320.545 156.442 321.342 155.63C322.371 154.886 323.452 154.217 324.577 153.627C326.291 152.303 326.356 151.463 329.397 151.236" fill="black"/>
<path fill-rule="evenodd" clip-rule="evenodd" d="M253.999 152.594C254.969 152.594 257.234 152.594 257.622 154.015C257.816 154.565 257.395 154.274 257.234 155.017C256.977 157.722 256.3 160.37 255.228 162.868C253.828 164.281 252.185 165.43 250.376 166.26C248.86 166.567 247.299 166.567 245.783 166.26C245.046 165.405 244.555 164.367 244.36 163.255C243.68 158.829 247.077 157.246 249.373 155.405C250.764 154.338 251.605 152.885 253.999 152.594Z" fill="black"/>
<path fill-rule="evenodd" clip-rule="evenodd" d="M181.996 155.211C183.225 154.984 185.91 155.437 186.233 156.632C186.719 158.506 183.775 158.829 184.422 160.832C184.81 162.027 189.145 162.124 190.05 162.835C191.507 164.98 192.346 167.483 192.476 170.072C192.206 170.785 192.063 171.539 192.056 172.301C192.056 172.786 192.767 173.271 192.864 173.884C193.099 176.834 193.034 179.8 192.67 182.737C192.67 183.124 192.153 183.286 192.056 183.738C191.603 185.709 191.571 188.035 191.247 189.974C191.009 192.538 190.609 195.084 190.05 197.598C189.916 198.414 189.566 199.179 189.038 199.815C188.509 200.451 187.82 200.935 187.042 201.217C186.524 201.443 185.36 202.671 184.034 202.024C182.708 201.378 183.452 200.118 183.613 198.794C184.213 191.088 184.083 183.343 183.225 175.661C182.966 173.077 183.71 171.494 182.19 170.04C180.67 168.586 177.597 167.584 176.174 169.232C175.753 169.749 175.139 171.041 174.362 172.075C173.586 173.109 172.486 173.949 172.163 174.466C171.839 174.983 171.807 176.178 171.354 176.857C170.901 177.535 170.157 177.632 169.931 178.084C169.348 179.28 169.64 179.571 168.54 180.701C168.087 181.154 166.728 183.124 169.348 182.091C170.416 181.671 179.311 180.572 180.605 181.703C181.04 182.328 181.254 183.081 181.213 183.842C181.172 184.602 180.879 185.328 180.379 185.903C180.379 185.903 178.535 186.484 178.373 186.517C176.303 186.969 173.521 186.517 170.933 187.131C168.863 187.518 166.955 188.714 165.499 188.94C165.046 188.94 164.076 188.714 163.72 188.94C162.782 189.392 162.944 190.975 162.297 191.944C161.65 192.914 160.938 192.655 160.486 193.366C160.033 194.077 160.13 195.434 159.677 196.597C159.418 197.243 158.706 197.211 158.868 197.986C159.03 198.761 160.777 198.503 161.294 199.601C161.618 200.928 161.618 202.313 161.294 203.64C160.906 204.157 158.804 204.092 157.671 203.64C157.154 203.414 157.024 203.026 156.669 203.026C156.313 203.026 155.731 203.64 155.051 203.834C153.469 204.297 151.779 204.24 150.232 203.672C150.005 203.349 150.458 202.057 150.232 201.443C149.714 200.118 146.091 200.054 144.409 199.44C144.118 199.44 144.086 198.858 143.601 198.632C143.115 198.406 142.469 198.632 142.177 198.438C141.278 197.777 140.338 197.173 139.363 196.629C136.484 195.563 133.8 194.367 131.115 193.204C130.08 192.752 126.975 190.361 125.487 191.201C125.135 192.158 124.736 193.096 124.29 194.012C123.578 196.274 123.449 199.02 122.867 200.474C122.575 201.217 120.764 201.831 119.05 201.281C119.05 201.281 117.012 199.828 117.044 199.86C116.009 198.018 117.271 195.046 117.659 193.398C117.82 192.494 117.853 190.394 118.047 189.586C118.241 188.778 118.564 188.132 117.238 187.389C116.818 187.131 115.653 187.098 115.427 186.775C115.079 186.2 114.895 185.541 114.895 184.869C114.895 184.197 115.079 183.538 115.427 182.963C115.653 182.704 117.076 182.64 117.659 182.349C118.241 182.058 118.823 181.251 119.05 181.154C120.149 180.701 120.343 181.38 121.055 180.54C122.834 178.504 122.414 177.309 123.481 173.917C123.675 173.303 124.387 172.689 124.678 171.914C125.584 169.523 125.001 168.683 127.104 167.294C128.042 166.712 125.325 167.132 127.913 166.68C133.12 165.775 131.147 172.334 130.112 174.918C130.112 175.306 128.139 178.666 128.495 179.151C128.851 179.635 134.964 177.115 135.935 176.727C136.905 176.34 138.102 176.501 139.169 176.114C140.237 175.726 142.113 174.886 143.407 174.337L144.992 173.529C145.897 173.044 149.261 171.558 149.229 170.104C149.229 168.101 144.506 167.067 142.404 166.486C142.048 166.486 141.983 166.066 141.595 165.872C140.397 165.665 139.187 165.536 137.972 165.484C134.068 164.258 129.912 164.057 125.907 164.903C123.74 165.678 119.438 166.292 119.05 163.481C118.273 159.411 126.069 157.02 129.918 157.02C130.565 157.02 130.888 157.407 131.309 157.407C131.729 157.407 132.247 156.987 132.732 157.02C134.091 157.02 136.646 158.021 137.972 158.215C139.945 158.506 141.563 157.892 143.407 158.603C143.407 158.603 143.762 159.217 143.795 159.217C147.382 159.922 150.884 161.005 154.243 162.447C154.76 162.706 155.439 163.417 156.054 163.837C156.681 164.21 157.286 164.62 157.865 165.064C158.612 166.015 159.097 167.144 159.273 168.34C159.449 169.535 159.309 170.756 158.868 171.881C157.925 172.908 156.835 173.79 155.634 174.498C153.822 175.385 151.939 176.12 150.005 176.695C149.261 176.986 148.614 177.664 147.967 177.923C147.293 178.018 146.623 178.147 145.962 178.311C143.083 179.603 138.91 180.507 135.32 181.735C133.802 182.142 132.32 182.671 130.888 183.318C130.306 184.804 133.088 185.418 134.511 186.129C134.77 186.291 134.802 186.775 135.093 186.937C135.935 187.454 137.261 187.486 138.134 187.938C138.36 187.938 138.36 188.649 138.522 188.778C138.684 188.907 139.525 188.778 139.945 189.166C141.336 190.038 143.374 190.555 145.153 191.557C146.059 192.074 146.9 193.043 147.579 193.366C149.123 194.124 150.737 194.73 152.399 195.175C153.308 194.079 154.06 192.861 154.631 191.557C154.437 190.943 152.302 190.717 152.011 189.747C152.132 188.345 152.54 186.981 153.208 185.741C153.402 185.386 153.402 184.772 153.628 184.546C154.89 183.157 157.089 183.706 158.448 182.737C159.062 182.284 159.289 180.863 160.065 179.894C160.414 179.565 160.819 179.303 161.262 179.118C161.973 177.826 161.844 176.146 162.685 174.692C162.976 174.143 163.785 174.014 164.076 173.497C164.367 172.98 164.076 172.011 164.464 171.267C164.464 171.041 165.532 170.492 165.887 169.878C166.243 169.264 166.243 168.231 166.696 167.649C167.149 167.067 167.343 167.649 167.505 167.261C167.666 166.874 167.505 166.163 167.893 165.84C168.281 165.517 169.801 164.774 169.898 164.451C169.995 164.127 169.284 162.932 169.316 162.641C169.316 159.766 171.774 161.026 174.136 160.024C175.139 159.604 175.3 158.183 176.141 157.634C176.368 157.634 176.95 157.634 177.532 157.407C178.971 156.579 180.462 155.845 181.996 155.211Z" fill="black"/>
<path fill-rule="evenodd" clip-rule="evenodd" d="M206.159 155.824C206.515 155.824 207.744 155.824 208.165 156.826C208.535 159.078 208.665 161.363 208.553 163.643C208.512 165.868 208.642 168.093 208.941 170.298C209.2 171.267 210.17 172.592 210.558 173.529C211.626 176.469 212.143 179.732 216.187 179.377C216.882 179.181 217.555 178.91 218.192 178.569C221.197 176.33 223.99 173.821 226.537 171.073C226.958 170.653 227.767 170.46 228.122 170.072C228.478 169.684 228.866 168.65 229.352 168.069C229.837 167.487 230.451 167.455 230.743 167.067C231.939 165.549 232.748 163.255 234.559 162.253C235.271 161.866 236.144 161.963 236.791 161.64C237.438 161.317 239.767 159.443 240.608 161.833C240.898 163.648 240.765 165.506 240.22 167.261C239.897 169.07 240.22 171.073 239.8 172.301C239.379 173.529 239.185 174.078 238.797 175.532C238.279 177.535 237.018 180.217 236.177 182.963C235.626 184.913 234.889 186.806 233.977 188.617C233.505 190.647 233.181 192.71 233.007 194.787C233.007 194.787 232.489 195.143 232.392 195.401C231.939 196.435 232.004 199.246 231.389 200.021C230.775 200.797 229.61 200.635 228.963 201.217C228.317 201.798 227.702 202.897 227.346 203.026C223.626 204.544 225.276 200.797 225.761 198.406C226.699 193.753 226.99 188.164 228.575 182.737C228.899 181.606 229.74 179.506 230.16 177.503C230.451 176.34 230.678 174.272 229.384 175.5C228.09 176.727 226.149 178.924 224.952 179.926C222.489 181.895 219.859 183.646 217.092 185.16C217.092 185.16 217.092 185.709 216.898 185.741C216.704 185.773 215.96 185.741 215.507 185.935C214.055 186.588 212.424 186.726 210.883 186.327C209.341 185.927 207.983 185.014 207.033 183.738C206.591 183.375 206.126 183.04 205.642 182.737C204.865 181.767 205.156 180.152 204.218 180.313C203.28 180.475 202.698 187.647 202.407 188.972C201.728 192.203 200.596 195.757 200.207 198.018C199.593 201.507 200.369 202.25 196.973 203.22C194.256 203.995 193.059 204.027 193.156 200.215C193.156 197.792 194.385 192.978 194.385 190.167C194.516 188.327 194.853 186.506 195.388 184.74C195.656 182.337 195.786 179.92 195.776 177.503C195.97 175.79 196.973 173.141 197.199 171.687C198.008 166.13 196.746 161.026 199.399 158.603C200.362 158.28 201.303 157.891 202.213 157.44C202.407 157.44 202.698 156.664 202.827 156.632C203.924 156.194 205.079 155.922 206.256 155.824" fill="black"/>
<path fill-rule="evenodd" clip-rule="evenodd" d="M287.38 158.441C291.003 158.15 294.4 158.44 294.852 161.477C294.869 162.16 294.732 162.838 294.453 163.462C294.174 164.085 293.758 164.638 293.238 165.081C292.717 165.524 292.104 165.845 291.443 166.021C290.782 166.196 290.09 166.223 289.418 166.097C288.157 166.097 287.833 164.644 286.798 164.288C284.762 163.977 282.681 164.188 280.749 164.902C276.541 166.142 272.732 168.462 269.701 171.631C266.67 174.8 264.524 178.707 263.476 182.962C263.056 184.771 263.832 185.676 263.864 187.001C263.897 188.325 263.153 189.068 264.479 190.231C264.673 190.425 265.385 190.231 265.676 190.651C265.967 191.071 266.387 192.557 267.067 193.042C267.746 193.527 270.301 194.076 271.498 194.657C273.761 195.16 276.122 194.992 278.291 194.173C278.291 194.173 277.87 192.008 277.903 191.588C278.4 188.711 279.349 185.93 280.717 183.35C281.105 182.671 282.075 182.187 282.722 181.314C283.369 180.442 283.466 179.634 283.952 179.117C284.437 178.601 284.922 178.504 285.342 178.116C287.183 176.179 289.15 174.366 291.23 172.688C292.071 172.107 293.203 171.977 294.044 171.493C294.885 171.008 296.146 169.781 297.278 169.264C297.667 169.102 298.119 169.264 298.475 169.07C299.575 168.553 300.254 167.777 301.095 167.454C301.936 167.131 302.486 167.454 302.907 167.261C305.625 166.276 308.466 165.667 311.349 165.451C314.002 165.451 317.818 167.293 315.975 170.685C315.261 171.483 314.333 172.059 313.301 172.345C312.268 172.632 311.176 172.616 310.152 172.301C309.584 171.791 308.908 171.416 308.174 171.203C307.44 170.99 306.668 170.946 305.915 171.073C301.165 171.828 296.756 174.002 293.267 177.308C291.212 179.298 289.564 181.668 288.415 184.287C288.157 184.933 288.415 185.708 287.995 186.322C287.574 186.936 286.41 190.361 287.38 191.136C288.351 191.911 291.197 188.228 292.62 189.133C293.494 189.65 292.912 191.201 292.62 191.75C292.006 192.913 289.159 193.688 288.998 194.561C288.512 197.081 296.923 198.437 298.702 197.791C301.901 197.298 305.058 196.564 308.147 195.594C309.15 195.207 310.379 194.496 311.381 193.979C312.384 193.462 314.163 191.879 314.616 193.979C314.875 195.336 310.54 198.05 309.408 198.599C308.276 199.148 307.015 199.148 306.174 199.601C302.904 201.059 299.457 202.081 295.92 202.637C293.831 202.667 291.743 202.527 289.677 202.217C289.192 202.217 288.577 202.637 288.286 202.637C285.7 202.476 283.202 201.641 281.04 200.214C279.488 198.825 280.329 198.373 278 199.019C276.013 199.456 274.005 199.79 271.983 200.021C271.53 200.021 271.304 199.601 270.981 199.601C270.046 199.714 269.101 199.714 268.166 199.601C265.708 199.051 263.476 199.601 260.921 199.019C258.629 198.274 256.633 196.821 255.22 194.87C253.808 192.919 253.052 190.571 253.061 188.164C253.246 186.248 253.659 184.361 254.29 182.542C254.29 182.381 254.872 182.187 254.872 182.122C255.321 180.144 256.074 178.248 257.104 176.501C257.427 176.081 258.139 175.79 258.495 175.305C260.988 171.927 263.975 168.943 267.358 166.453C268.134 165.904 269.137 165.774 269.978 165.257C270.819 164.741 270.787 164.256 271.369 163.836C272.76 162.899 274.603 162.673 276.027 161.833C279.536 159.93 283.402 158.775 287.38 158.441" fill="black"/>
<path fill-rule="evenodd" clip-rule="evenodd" d="M327.426 165.871C327.749 165.871 330.24 165.451 330.434 167.067C330.504 168.105 330.291 169.143 329.819 170.071C329.486 170.989 329.216 171.928 329.011 172.882C328.657 173.775 328.258 174.648 327.814 175.499C327.62 176.178 327.814 176.791 327.62 177.308C327.426 177.825 326.326 179.796 326.003 180.927C325.679 182.058 325.808 183.253 325.42 184.351C324.94 185.4 324.529 186.479 324.191 187.582C323.965 188.745 324.191 189.973 323.997 191.007C323.77 191.691 323.5 192.36 323.188 193.01C322.541 195.918 324.644 199.019 323.803 200.053C322.962 201.087 317.334 202.347 316.169 200.247C315.483 196.465 315.483 192.591 316.169 188.81C316.169 188.487 316.557 188.422 316.557 188.196C316.557 187.97 316.105 187.615 316.169 187.388C316.428 185.87 318.239 183.059 317.754 180.927C317.56 179.958 316.396 179.925 316.169 179.118C316.012 177.834 316.145 176.531 316.557 175.305C316.848 174.53 317.948 173.464 318.563 172.268C319.63 170.298 319.663 168.553 321.377 167.455C323.278 166.557 325.329 166.02 327.426 165.871" fill="black"/>
<path fill-rule="evenodd" clip-rule="evenodd" d="M252.412 167.454C258.3 166.55 253.933 173.076 252.833 177.147C252.833 177.599 252.833 178.181 252.833 178.536C252.833 178.891 251.992 179.505 251.83 179.957C251.216 181.573 251.28 183.188 250.828 184.771C250.828 184.997 250.278 185.062 250.213 185.191C249.879 186.503 249.684 187.845 249.631 189.197C249.21 191.007 248.79 192.687 248.402 194.011C248.173 194.998 248.043 196.004 248.013 197.016C248.013 199.374 249.34 200.505 249.016 201.442C248.693 202.379 243.582 204.382 241.965 203.057C241.415 202.573 241.253 200.505 240.962 199.051C240.644 197.532 240.578 195.972 240.768 194.431C241.046 191.39 241.511 188.369 242.159 185.385C242.417 184.254 243.064 183.576 242.773 182.574C242.482 181.573 241.803 181.961 241.576 181.347C241.119 179.033 241.521 176.633 242.709 174.594C242.903 174.271 243.258 174.594 243.517 174.207C244.585 172.688 244.746 170.233 245.943 169.167C247.983 168.207 250.17 167.595 252.412 167.357" fill="black"/>
<path d="M250.343 99.4797C248.563 98.7366 248.887 103.389 244.714 105.36C242.676 106.329 243.129 107.557 241.835 108.817C240.542 110.077 238.795 109.366 236.854 110.497C235.56 111.304 235.495 112.467 234.719 113.307C233.393 113.017 231.484 110.497 231.129 108.881C230.449 106.62 229.802 104.423 228.994 101.612C228.509 100.061 226.891 97.3473 226.438 95.7966C225.759 93.535 223.463 92.9212 222.622 90.0458C222.136 88.3658 222.622 87.5258 222.136 86.2981L222.654 83.8427C222.469 83.3143 222.318 82.7748 222.201 82.2273C221.942 81.355 222.201 80.6766 222.201 79.9012C221.457 77.4458 218.966 76.9612 218.352 74.7642C218.125 73.8919 219.096 73.375 219.646 72.7289C221.392 70.5319 221.166 69.4981 224.756 68.6904C225.727 68.4642 225.403 67.1719 225.953 66.4612C227.312 64.7165 229.673 64.4581 231.743 63.2304C232.746 62.6165 234.59 60.7104 235.787 59.9996C236.238 59.4674 236.576 58.8496 236.782 58.1833C236.987 57.5171 237.056 56.8161 236.983 56.1227C235.981 54.9273 237.275 53.6673 236.498 51.7288C235.948 50.3396 231.129 49.2411 229.382 49.6288C224.562 50.7273 223.463 52.5042 224.304 56.575L225.921 57.7704C224.659 61.3242 220.001 62.9073 216.864 65.4273C215.505 66.4935 215.796 68.3673 214.082 68.6581C211.753 69.175 207.613 65.8473 206.966 63.8442C206.642 62.7135 205.187 62.8104 204.669 62.4227C203.351 61.0951 202.48 59.3897 202.179 57.5442C202.101 57.3604 202.063 57.1626 202.065 56.9633C202.068 56.7639 202.112 56.5673 202.194 56.3855C202.275 56.2037 202.394 56.0406 202.542 55.9065C202.689 55.7724 202.863 55.67 203.052 55.6058C206.287 54.9273 209.715 57.0273 212.529 56.4135C214.017 56.0904 214.955 53.1827 215.279 52.3104C215.602 51.4381 215.085 50.1134 215.279 48.6273C215.279 47.9165 216.379 47.8519 216.54 47.2057C216.752 46.3561 217.219 45.5914 217.878 45.014C218.537 44.4366 219.357 44.0741 220.228 43.975C221.192 43.5564 222.244 43.3789 223.292 43.4577C224.34 43.5365 225.354 43.8693 226.244 44.4273C227.474 45.2673 228.767 43.5227 232.261 45.6873H235.495C235.495 45.6873 236.919 44.2334 236.66 43.3611C236.66 43.1673 236.207 40.7765 235.884 40.6796C234.04 40.0011 233.328 39.1934 231.549 39.4196C230.482 39.5811 229.932 38.7411 228.832 38.6765C226.762 38.6765 225.274 38.1596 223.657 38.2888C223.01 38.2888 222.201 38.9027 221.522 38.7734C220.842 38.6442 220.875 37.578 219.419 37.9657C219.646 36.9965 218.805 36.6734 220.551 36.2857C221.586 36.0596 221.231 34.638 221.845 34.2503C223.204 33.3457 225.08 33.6688 226.406 32.635C228.968 30.8253 231.794 29.4197 234.784 28.4673C236.692 27.8857 233.328 23.5888 232.746 23.718L230.482 22.4903C229.026 23.2011 228.444 23.4273 228.379 23.8149C228.153 26.1734 225.145 27.0457 224.401 27.3042C221.683 28.2088 221.522 29.4688 219.516 29.9211C219.193 29.9211 218.934 29.5334 218.708 29.3396C220.196 27.6273 221.522 26.9165 222.913 25.1073C223.56 24.2673 223.56 22.5873 225.371 21.8765C227.474 20.2611 229.77 18.5488 228.832 15.4472C228.347 13.8319 225.403 12.7334 223.527 13.0565C223.085 13.0952 222.66 13.2501 222.296 13.5054C221.933 13.7607 221.643 14.1074 221.457 14.5103C220.811 15.5583 219.91 16.4254 218.837 17.0303C218.255 17.3857 218.837 18.258 218.287 18.7103C217.252 19.7442 215.57 19.8088 215.279 21.2949C214.988 22.7811 213.047 22.4257 212.238 23.718C210.718 26.1088 208.195 27.7242 207.548 30.5996C206.642 30.4057 205.543 30.2119 205.284 29.3396C204.443 26.4965 207.257 24.5903 206.384 21.7473C206.125 20.8426 207.419 20.3257 207.192 19.4534C206.84 18.9712 206.427 18.5368 205.963 18.1611C206.204 17.8491 206.366 17.483 206.434 17.0945C206.501 16.706 206.473 16.3069 206.351 15.9319C206.125 15.0919 203.925 15.0919 203.117 14.1549C198.491 17.0303 199.009 20.3903 199.397 25.6565C199.688 29.8888 196.777 34.5088 198.135 39.0965C198.459 40.1304 199.656 42.1334 200.011 43.3288C201.208 47.2704 196.777 50.7596 196.227 53.8611C194.577 54.1196 192.442 54.7011 191.31 54.9596C190.825 54.9596 189.175 53.3119 188.69 53.215C185.455 52.5688 181.93 53.215 180.83 49.3704C179.057 48.4003 177.207 47.579 175.299 46.915C174.742 46.8977 174.186 46.9631 173.649 47.1088C170.802 47.7227 169.509 49.4027 170.22 51.7288L170.738 53.5381C171.352 55.6058 169.864 56.995 170.479 59.0304C170.835 60.2904 169.379 61.1304 169.056 62.0673C168.897 63.4291 168.821 64.7994 168.829 66.1704C168.829 67.1073 167.632 67.8181 167.632 69.1427C167.632 72.0181 165.433 73.6335 164.883 76.1858C164.657 77.2196 165.789 78.1889 165.336 79.1581C164.883 80.1273 164.107 79.9981 163.977 80.2566C163.848 80.515 163.977 81.4196 163.977 82.1627C163.977 84.1981 161.26 84.9089 161.875 87.0735C162.134 87.8812 162.295 88.4304 162.522 89.2704C163.229 90.6832 164.381 91.8248 165.801 92.5194C167.222 93.2141 168.831 93.4234 170.382 93.115C172.29 92.695 174.943 92.275 174.652 91.2089C174.397 89.3779 174.485 87.5156 174.91 85.7166C174.587 84.6827 172.808 84.9735 172.484 83.9073L171.223 79.5781C170.511 77.2196 172.711 75.1842 173.325 73.2781C173.617 72.4058 172.614 71.2104 172.84 70.3058C173.067 69.4012 174.328 68.3673 174.619 67.075C174.834 64.2392 175.662 61.4836 177.045 58.9981C177.66 58.1581 177.045 56.2842 178.242 56.0258C180.539 55.5088 183.094 58.3519 184.453 59.2565C186.846 60.8719 188.658 60.7427 190.922 63.8442C190.049 64.8135 190.307 65.9119 189.757 67.075C188.593 69.3042 185.811 73.5365 186.523 75.7658C186.814 76.7996 185.132 76.7996 184.873 77.2842C184.614 77.7689 185.423 79.5135 185.52 80.2242C185.413 82.3049 184.874 84.3405 183.935 86.2012C183.211 87.3931 182.676 88.6901 182.35 90.0458C182.35 90.9181 182.932 91.5643 182.803 92.275C182.544 93.5027 181.121 94.4073 181.509 95.6673C181.897 96.9273 183.353 97.9612 184.032 98.575C184.711 99.1889 184.485 100.61 185.1 101.45C185.714 102.29 187.429 102.71 188.334 104.197C188.508 104.93 188.724 105.653 188.981 106.361C189.175 107.04 190.146 107.524 190.404 108.364C190.429 109.64 190.527 110.912 190.696 112.177C191.245 114.05 192.28 114.47 193.089 115.407C192.248 116.054 192.345 117.055 192.669 118.186C192.992 119.317 194.124 120.254 194.545 121.643C194.965 123.032 192.41 125.778 192.863 127.264C193.142 127.904 193.338 128.578 193.445 129.267C191.634 128.88 191.375 128.104 190.21 127.264C185.941 124.518 180.506 122.289 177.272 117.572C176.463 116.377 175.428 116.409 174.716 115.407C171.967 111.627 170.188 105.715 164.43 106.878C162.263 107.363 163.363 107.783 162.942 109.495C162.771 111.546 162.044 113.511 160.84 115.181C160.678 115.343 160.16 120.092 160.031 120.835C159.324 123.039 158.481 125.197 157.508 127.297C156.505 128.654 157.508 127.297 158.478 133.758C159.222 135.761 167.18 138.249 167.374 137.28C167.827 134.566 164.139 130.495 166.759 125.455C167.665 123.775 167.05 119.575 169.476 118.994C170.447 118.767 171.967 120.157 172.711 121.352C173.843 123.29 175.945 123.84 177.304 125.552C178.663 127.264 179.989 127.135 181.93 128.395C183.87 129.655 184.194 130.754 185.585 132.24C186.976 133.726 188.14 132.627 188.819 133.597C189.499 134.566 189.111 135.115 189.434 135.794C189.757 136.472 190.987 136.407 191.569 137.247C193.574 140.478 195.645 143.903 200.173 142.869C203.958 142.029 202.631 137.57 203.214 135.438C203.796 133.306 205.381 131.497 204.346 128.007C203.925 126.618 202.696 126.004 202.276 124.583C201.855 123.161 201.37 121.352 201.208 120.964C200.97 118.367 201.155 115.748 201.758 113.21C201.758 112.338 200.982 111.789 201.111 111.014C201.499 109.301 204.863 108.784 203.958 105.747C208.13 104.81 206.481 101.612 208.227 99.5443C210.61 96.4689 213.678 93.991 217.187 92.3073C219.528 95.0045 221.25 98.1802 222.233 101.612C223.022 103.491 223.597 105.452 223.948 107.46C224.129 109.106 224.611 110.705 225.371 112.177C225.759 112.952 227.053 113.663 227.409 114.826C227.765 115.989 226.73 116.829 227.085 118.057C227.18 118.298 227.256 118.546 227.312 118.8C227.571 119.801 227.635 120.544 227.862 121.352C229.334 122.587 230.979 123.599 232.746 124.357C234.221 124.753 235.758 124.862 237.275 124.68C238.018 124.68 240.509 121.966 240.25 120.867C239.862 118.864 244.423 117.023 244.941 116.603C246.461 115.407 248.175 111.207 249.728 110.626C249.728 110.626 251.022 109.269 253.415 107.137C254.515 104.907 255.292 101.677 250.181 99.6089M207.742 83.455C207.225 84.1335 205.51 84.1981 204.799 84.8766C203.181 86.5889 201.014 90.9827 196.841 91.8873C195.289 92.2427 193.186 91.5966 192.798 90.2719C192.572 89.5612 192.798 88.4627 192.798 87.9781C192.798 87.4935 191.957 87.235 191.795 86.6535C191.084 84.2627 193.995 82.6796 194.254 80.6766C194.254 80.0304 193.801 79.2227 193.995 78.415C194.189 77.6073 196.259 75.5073 195.742 73.7627C195.224 72.0181 196.874 67.3012 198.362 66.9781C200.055 66.686 201.797 66.9779 203.302 67.8058C204.806 68.6336 205.985 69.9482 206.642 71.5335C207.063 72.9873 206.092 73.9565 206.642 75.4104C207.354 77.8658 209.877 77.8335 211.236 79.6104C209.133 80.4181 208.874 82.2596 208.001 83.455" fill="black"/>
</svg>
