<svg width="248" height="248" viewBox="0 0 248 248" fill="none" xmlns="http://www.w3.org/2000/svg">
<path fill-rule="evenodd" clip-rule="evenodd" d="M102.139 66.1809L100.159 69.3558L100.58 70.7575C100.811 71.5284 101.138 72.8294 101.305 73.6485C101.473 74.4676 101.69 75.8347 101.787 76.6865C101.886 77.5523 101.94 79.4948 101.91 81.0915C101.88 82.6625 101.899 83.9001 101.952 83.842C102.004 83.7839 104.663 79.5466 107.86 74.4259L113.673 65.1153L113.119 65.02C112.814 64.9675 111.539 64.727 110.284 64.4855C109.03 64.2441 107.139 63.8097 106.083 63.5202C105.028 63.2308 104.153 62.9967 104.141 63C104.129 63.0034 103.228 64.4348 102.139 66.1809ZM141.45 63.384C140.745 63.584 139.285 63.9459 138.207 64.188C137.128 64.4301 135.262 64.7792 134.059 64.9635C132.613 65.1853 131.79 65.3811 131.629 65.5418C131.496 65.6754 125.158 75.76 117.546 87.952L103.704 110.119L103.953 110.58C104.089 110.834 104.838 111.889 105.615 112.927C106.393 113.964 107.594 115.423 108.284 116.17C108.973 116.917 109.606 117.528 109.689 117.528C109.772 117.528 117.389 105.448 126.615 90.6846L143.39 63.8415L143.089 63.4177C142.923 63.1847 142.775 62.9999 142.759 63.0071C142.744 63.0144 142.155 63.1839 141.45 63.384ZM116.526 66.343C116.247 66.7827 111.96 73.6393 106.999 81.5799L97.9808 96.0176L98.0895 96.6653C98.1494 97.0216 98.4188 98.06 98.6882 98.9726C98.9577 99.8853 99.43 101.311 99.738 102.141C100.046 102.97 100.667 104.425 101.119 105.374C101.868 106.946 101.958 107.073 102.141 106.807C102.252 106.646 108.053 97.3749 115.033 86.2033C122.013 75.0315 127.724 65.8632 127.724 65.8293C127.724 65.7952 126.078 65.7712 124.066 65.776C122.055 65.7809 119.649 65.7305 118.721 65.6641L117.034 65.5434L116.526 66.343ZM128.575 93.3533L112.042 119.79L112.756 120.436C113.149 120.79 114.115 121.541 114.903 122.104C115.691 122.667 117.021 123.548 117.858 124.061C118.695 124.575 119.442 124.992 119.517 124.988C119.593 124.985 125.388 115.797 132.395 104.57L145.135 84.1585L145.091 81.0058C145.067 79.2719 145.122 77.2421 145.213 76.4954C145.304 75.7487 145.517 74.442 145.686 73.5918C145.855 72.7414 146.183 71.4423 146.414 70.7047L146.834 69.364L146.065 68.1407C145.642 67.4679 145.254 66.9171 145.202 66.9168C145.15 66.9165 137.668 78.813 128.575 93.3533ZM134.18 107.471L122.327 126.428L122.941 126.71L123.555 126.991L125.979 125.777C127.312 125.109 129.014 124.177 129.76 123.706C130.507 123.234 131.864 122.284 132.777 121.594C133.689 120.904 135.064 119.769 135.831 119.073C136.599 118.376 137.873 117.099 138.662 116.234C139.452 115.369 140.691 113.864 141.415 112.89C142.139 111.916 143.193 110.354 143.756 109.42C144.319 108.486 145.143 106.975 145.588 106.063C146.032 105.15 146.701 103.623 147.074 102.669C147.448 101.714 147.995 100.085 148.29 99.0481C148.585 98.0109 148.869 96.8908 148.921 96.559C149.002 96.0344 148.905 95.7281 148.176 94.2159C147.715 93.2592 147.044 91.5849 146.686 90.4954L146.034 88.5147L134.18 107.471ZM83.1524 145.606C82.8206 145.642 81.9807 145.775 81.2863 145.901C80.5917 146.028 79.4757 146.331 78.8061 146.575C78.1367 146.82 77.1289 147.293 76.5665 147.627C76.0042 147.961 75.2197 148.513 74.8232 148.852C74.4268 149.192 73.8108 149.818 73.4544 150.244C73.0981 150.669 72.5384 151.56 72.2107 152.224C71.8831 152.888 71.5 153.872 71.3593 154.411C71.1855 155.077 71.105 155.973 71.1081 157.202C71.1112 158.413 71.2005 159.362 71.3775 160.068C71.5232 160.649 71.8742 161.602 72.1574 162.185C72.4406 162.768 72.9832 163.6 73.363 164.035C73.7429 164.469 74.4719 165.121 74.9831 165.483C75.4941 165.846 76.3196 166.346 76.8174 166.596C77.3151 166.845 78.3177 167.259 79.0455 167.515C79.7731 167.772 81.8773 168.364 83.7214 168.83C85.5653 169.296 87.5832 169.873 88.2054 170.112C88.8276 170.351 89.5995 170.763 89.921 171.029C90.2424 171.294 90.5988 171.734 90.7128 172.007C90.827 172.281 90.9199 172.761 90.9195 173.075C90.919 173.388 90.8498 173.893 90.7658 174.196C90.678 174.512 90.3655 174.97 90.0329 175.271C89.714 175.559 89.0874 175.922 88.6407 176.078C87.9594 176.315 87.3779 176.361 85.0379 176.36C82.2853 176.36 82.2286 176.353 80.8591 175.875C80.0956 175.609 79.0775 175.169 78.5966 174.898C78.1158 174.627 77.1893 173.976 76.5377 173.45C75.8863 172.925 75.3377 172.516 75.3188 172.542C75.3 172.568 74.3227 174.133 73.1474 176.02C71.972 177.907 71.0103 179.513 71.0103 179.589C71.0103 179.666 71.5207 180.159 72.1444 180.684C72.7682 181.21 73.7354 181.917 74.2938 182.256C74.8522 182.594 75.9017 183.124 76.6258 183.433C77.3501 183.742 78.5719 184.154 79.3408 184.348C80.1099 184.543 81.5196 184.785 82.4737 184.886C83.5538 185.001 84.8911 185.031 86.0183 184.966C87.0138 184.909 88.4052 184.763 89.1104 184.641C89.8155 184.519 90.8478 184.284 91.4043 184.119C91.9607 183.954 93.0128 183.52 93.7422 183.154C94.4716 182.788 95.4332 182.176 95.8791 181.795C96.3249 181.413 96.9806 180.747 97.3358 180.315C97.6912 179.882 98.2285 179.036 98.53 178.435C98.8314 177.833 99.2216 176.815 99.3971 176.172C99.6531 175.234 99.718 174.555 99.7252 172.74C99.7321 171.014 99.6704 170.245 99.4652 169.497C99.3172 168.957 98.9579 168.03 98.6666 167.435C98.3755 166.841 97.7618 165.94 97.3029 165.433C96.8441 164.926 96.0518 164.215 95.5423 163.854C95.0327 163.492 94.2086 162.993 93.7108 162.743C93.2131 162.494 92.1949 162.074 91.4483 161.81C90.7017 161.546 88.7568 160.996 87.1265 160.588C85.4962 160.18 83.6297 159.678 82.9785 159.472C82.3275 159.267 81.4773 158.897 81.0892 158.651C80.7011 158.404 80.3027 158.052 80.2041 157.868C80.1054 157.684 80.021 157.221 80.0164 156.839C80.0119 156.458 80.1235 155.925 80.2647 155.655C80.4057 155.385 80.779 154.994 81.094 154.785C81.4091 154.577 82.1708 154.299 82.7868 154.168C83.5865 153.997 84.2947 153.955 85.2641 154.021C86.0107 154.071 87.1986 154.25 87.9037 154.419C88.6089 154.587 89.7288 154.989 90.3925 155.312C91.0561 155.635 92.018 156.238 92.5301 156.654L93.461 157.408L95.5845 154.011C96.7524 152.142 97.7079 150.556 97.7079 150.487C97.7079 150.418 97.164 149.951 96.4993 149.45C95.8344 148.949 94.8181 148.263 94.2409 147.926C93.6635 147.589 92.5909 147.081 91.8572 146.797C91.1236 146.514 89.8312 146.141 88.9853 145.969C88.1197 145.792 86.6408 145.63 85.6017 145.598C84.5864 145.566 83.4843 145.57 83.1524 145.606ZM166.865 145.682C166.285 145.755 165.276 145.949 164.623 146.113C163.971 146.276 162.918 146.635 162.285 146.909C161.651 147.183 160.727 147.676 160.231 148.005C159.735 148.334 158.947 148.979 158.478 149.437C158.01 149.895 157.349 150.7 157.01 151.225C156.67 151.75 156.248 152.563 156.072 153.032C155.896 153.5 155.648 154.426 155.52 155.09C155.358 155.937 155.316 156.748 155.377 157.806C155.425 158.635 155.571 159.721 155.7 160.219C155.829 160.717 156.173 161.613 156.465 162.211C156.757 162.809 157.337 163.672 157.755 164.129C158.173 164.586 158.835 165.195 159.226 165.483C159.617 165.77 160.487 166.279 161.159 166.615C161.831 166.95 162.896 167.397 163.525 167.608C164.154 167.82 165.91 168.299 167.426 168.675C168.943 169.05 170.727 169.53 171.391 169.741C172.054 169.953 172.937 170.295 173.351 170.501C173.766 170.707 174.293 171.054 174.521 171.272C174.75 171.489 175.004 171.908 175.086 172.204C175.168 172.499 175.235 172.91 175.235 173.117C175.235 173.325 175.164 173.751 175.077 174.064C174.99 174.378 174.715 174.866 174.465 175.15C174.205 175.447 173.646 175.814 173.154 176.011C172.363 176.327 172.065 176.354 169.354 176.353C166.45 176.352 166.396 176.346 165.088 175.883C164.359 175.626 163.217 175.085 162.55 174.682C161.883 174.279 160.963 173.615 160.506 173.207C160.036 172.788 159.63 172.531 159.574 172.616C159.519 172.699 158.541 174.259 157.401 176.084C156.26 177.908 155.327 179.477 155.327 179.569C155.327 179.661 155.735 180.097 156.234 180.538C156.734 180.978 157.738 181.714 158.466 182.173C159.195 182.632 160.365 183.234 161.066 183.511C161.767 183.788 162.97 184.175 163.74 184.37C164.51 184.566 165.902 184.803 166.832 184.897C167.835 184.999 169.262 185.027 170.335 184.965C171.33 184.909 172.722 184.764 173.427 184.643C174.132 184.522 175.252 184.247 175.916 184.031C176.579 183.816 177.665 183.362 178.329 183.022C179.231 182.562 179.863 182.08 180.83 181.118C181.865 180.087 182.249 179.574 182.754 178.548C183.1 177.843 183.527 176.723 183.702 176.059C183.948 175.126 184.024 174.373 184.035 172.74C184.045 171.189 183.98 170.368 183.79 169.648C183.648 169.108 183.263 168.124 182.934 167.46C182.606 166.796 182.058 165.931 181.716 165.536C181.374 165.142 180.698 164.514 180.213 164.141C179.728 163.767 178.834 163.197 178.227 162.872C177.619 162.547 176.516 162.07 175.776 161.811C175.035 161.552 173.203 161.034 171.703 160.66C170.204 160.286 168.401 159.806 167.696 159.593C166.992 159.381 166.099 159.046 165.713 158.851C165.326 158.655 164.869 158.316 164.697 158.097C164.525 157.878 164.34 157.462 164.286 157.172C164.231 156.882 164.264 156.386 164.359 156.07C164.454 155.754 164.767 155.288 165.055 155.035C165.343 154.782 165.935 154.469 166.37 154.34C166.805 154.211 167.606 154.064 168.149 154.013C168.693 153.963 169.731 154.001 170.456 154.097C171.182 154.194 172.232 154.412 172.79 154.581C173.348 154.751 174.279 155.117 174.86 155.395C175.44 155.673 176.329 156.235 176.834 156.644L177.753 157.388L179.904 153.942L182.055 150.495L181.564 150.077C181.294 149.848 180.694 149.368 180.229 149.011C179.765 148.654 178.57 147.96 177.575 147.469C176.49 146.934 175.186 146.428 174.321 146.206C173.527 146.002 172.223 145.762 171.423 145.673C170.624 145.584 169.509 145.52 168.945 145.53C168.382 145.541 167.446 145.609 166.865 145.682ZM197.334 145.617C197.002 145.647 196.166 145.774 195.475 145.9C194.784 146.026 193.655 146.332 192.967 146.582C192.278 146.831 191.234 147.331 190.646 147.693C190.059 148.056 189.267 148.612 188.886 148.93C188.506 149.248 187.882 149.905 187.502 150.39C187.121 150.875 186.587 151.723 186.315 152.276C186.044 152.828 185.702 153.721 185.555 154.261C185.367 154.954 185.289 155.793 185.29 157.127C185.291 158.391 185.376 159.359 185.549 160.064C185.69 160.643 186.05 161.623 186.348 162.243C186.75 163.078 187.187 163.665 188.039 164.516C188.948 165.422 189.505 165.823 190.697 166.431C191.527 166.853 192.715 167.371 193.337 167.582C193.959 167.793 195.99 168.35 197.85 168.82C199.71 169.291 201.763 169.883 202.413 170.138C203.063 170.392 203.864 170.831 204.193 171.112C204.559 171.425 204.85 171.84 204.945 172.182C205.031 172.489 205.1 172.91 205.1 173.117C205.1 173.325 205.029 173.751 204.942 174.064C204.855 174.378 204.58 174.866 204.33 175.15C204.065 175.453 203.521 175.806 203.019 176.003C202.298 176.285 201.783 176.349 199.788 176.403C197.93 176.454 197.167 176.412 196.272 176.213C195.643 176.073 194.665 175.768 194.099 175.534C193.533 175.301 192.672 174.858 192.185 174.549C191.699 174.241 190.907 173.649 190.426 173.234C189.944 172.819 189.529 172.504 189.502 172.534C189.476 172.565 188.495 174.126 187.323 176.004C186.151 177.882 185.192 179.491 185.192 179.579C185.192 179.668 185.714 180.179 186.352 180.716C186.99 181.253 188.028 182 188.66 182.376C189.292 182.752 190.343 183.273 190.995 183.534C191.647 183.795 192.816 184.17 193.593 184.367C194.37 184.564 195.767 184.803 196.698 184.898C197.674 184.997 199.142 185.029 200.169 184.972C201.147 184.919 202.539 184.772 203.261 184.647C203.983 184.522 205.029 184.284 205.586 184.119C206.142 183.954 207.228 183.505 207.999 183.121C209.147 182.55 209.634 182.189 210.692 181.127C211.66 180.154 212.136 179.529 212.598 178.623C212.936 177.96 213.317 177.043 213.444 176.587C213.571 176.131 213.748 175.269 213.838 174.672C213.928 174.076 214.001 173.125 214 172.56C213.999 171.996 213.928 171.092 213.841 170.553C213.754 170.013 213.525 169.119 213.333 168.565C213.141 168.011 212.665 167.08 212.277 166.495C211.888 165.911 211.155 165.062 210.647 164.61C210.139 164.157 209.218 163.498 208.6 163.144C207.981 162.79 206.856 162.268 206.1 161.984C205.344 161.699 203.062 161.039 201.029 160.517C198.997 159.994 196.961 159.426 196.504 159.253C196.048 159.081 195.458 158.806 195.193 158.644C194.928 158.481 194.591 158.165 194.444 157.941C194.275 157.683 194.177 157.245 194.177 156.75C194.177 156.259 194.275 155.816 194.44 155.565C194.584 155.345 194.96 154.994 195.275 154.786C195.59 154.577 196.352 154.299 196.968 154.168C197.768 153.997 198.476 153.955 199.446 154.021C200.192 154.071 201.38 154.25 202.085 154.419C202.79 154.587 203.91 154.989 204.574 155.312C205.238 155.635 206.197 156.236 206.706 156.649L207.631 157.399L209.704 154.079C210.845 152.253 211.786 150.67 211.796 150.561C211.806 150.452 211.362 150.001 210.809 149.559C210.256 149.116 209.34 148.478 208.773 148.14C208.206 147.802 207.163 147.279 206.455 146.976C205.747 146.674 204.591 146.289 203.886 146.122C203.181 145.954 201.961 145.749 201.176 145.667C200.39 145.584 199.34 145.527 198.842 145.539C198.345 145.551 197.666 145.586 197.334 145.617ZM33 165.273V184.436L37.3365 184.396L41.673 184.356L41.7135 180.991L41.7543 177.627L44.1934 173.697C46.3615 170.205 46.6544 169.798 46.8286 170.037C46.9365 170.184 49.0108 173.481 51.438 177.364L55.8514 184.424L60.732 184.427C64.8205 184.431 65.5995 184.398 65.5326 184.223C65.4887 184.109 62.3316 179.021 58.5168 172.918L51.5808 161.82L56.4636 154.005L61.3466 146.19L56.4949 146.15C52.7356 146.119 51.6038 146.153 51.4688 146.301C51.3728 146.406 49.1636 149.91 46.5591 154.088L41.8238 161.685L41.7484 153.938L41.673 146.19L37.3365 146.15L33 146.11V165.273ZM99.2136 146.303C99.2121 146.407 100.99 155.028 103.164 165.461L107.116 184.431H111.082H115.048L115.13 184.092C115.175 183.905 116.29 179.34 117.608 173.947C118.927 168.554 120.092 163.721 120.197 163.207C120.303 162.693 120.436 162.302 120.493 162.336C120.549 162.371 120.636 162.656 120.686 162.969C120.736 163.282 121.869 168.121 123.203 173.721C124.538 179.321 125.664 184.022 125.707 184.167C125.777 184.41 126.109 184.431 129.899 184.431H134.015L134.494 182.131C134.758 180.865 136.553 172.261 138.483 163.01L141.992 146.19L137.62 146.15C135.216 146.128 133.203 146.162 133.146 146.225C133.089 146.289 132.246 150.855 131.274 156.372C130.301 161.89 129.467 166.506 129.42 166.631C129.37 166.762 129.27 166.573 129.18 166.178C129.094 165.805 127.966 161.155 126.674 155.845L124.324 146.19L120.605 146.15C117.158 146.112 116.88 146.129 116.81 146.376C116.769 146.522 115.674 151.089 114.377 156.523C113.081 161.958 111.978 166.506 111.926 166.631C111.861 166.791 111.815 166.746 111.771 166.48C111.737 166.272 110.935 161.758 109.989 156.448C109.042 151.138 108.232 146.64 108.189 146.454L108.11 146.114H103.663C100.208 146.114 99.2157 146.157 99.2136 146.303ZM144.165 165.273V184.431H148.464H152.762V165.273V146.114H148.464H144.165V165.273ZM62.923 159.976C62.6643 160.043 62.1383 160.25 61.754 160.436C61.3697 160.622 60.7451 161.076 60.366 161.444C59.987 161.812 59.495 162.502 59.2725 162.977C58.9228 163.723 58.8681 164.034 58.8681 165.273C58.8681 166.511 58.923 166.823 59.2708 167.565C59.4924 168.038 59.9711 168.722 60.335 169.086C60.6986 169.45 61.3997 169.946 61.8929 170.188C62.6951 170.582 62.9411 170.628 64.2227 170.625C65.489 170.622 65.7522 170.573 66.4852 170.2C66.9415 169.969 67.6322 169.468 68.0201 169.089C68.42 168.698 68.9079 168 69.1467 167.477C69.5027 166.698 69.5681 166.356 69.5681 165.273C69.5681 164.19 69.5027 163.847 69.1467 163.069C68.909 162.549 68.4182 161.845 68.0201 161.455C67.6322 161.074 66.9113 160.578 66.4181 160.353C65.7727 160.059 65.223 159.931 64.4573 159.9C63.872 159.875 63.1815 159.91 62.923 159.976Z" fill="black"/>
</svg>
