<svg width="400" height="220" viewBox="0 0 400 220" fill="none" xmlns="http://www.w3.org/2000/svg">
<g clip-path="url(#clip0_601_191)">
<path d="M109.779 116.439H94.9405L102.362 96.7851L109.779 116.439ZM109.267 86.8099C107.859 82.9978 103.644 81.0479 99.8262 82.4596C97.8566 83.1791 96.2776 84.7226 95.5073 86.6836L76.1523 137.987H86.8474L91.2434 126.364H113.531L117.971 137.987H128.671L109.267 86.8099Z" fill="black"/>
<path d="M210.558 120.45C207.801 120.45 205.579 118.226 205.579 115.479C205.579 112.727 207.801 110.508 210.558 110.508H237.197C237.197 126.24 224.422 139 208.654 139C192.886 139 180.117 126.24 180.117 110.497C180.117 94.7546 192.892 82 208.654 82C220.582 82 231.239 89.3935 235.398 100.55H224.323C218.811 91.9147 207.323 89.3605 198.674 94.8754C190.015 100.368 187.473 111.838 192.98 120.472C198.493 129.118 209.969 131.656 218.629 126.157C220.918 124.702 222.865 122.768 224.323 120.472L210.558 120.45Z" fill="black"/>
<path d="M175.414 132.76V133.04C175.414 136.325 172.757 138.984 169.467 138.984C167.607 138.962 165.852 138.083 164.702 136.61L141.04 100.78V137.978H131.076V88.174C131.076 84.7465 133.849 81.989 137.282 82C139.351 82 141.271 83.0272 142.415 84.741L165.473 119.758V82.791H175.436L175.414 132.76Z" fill="black"/>
<path d="M61.0951 116.444H52.9691V92.6869H61.0951C67.6641 92.6869 72.9898 98.0041 72.9898 104.563C72.9898 111.121 67.6641 116.444 61.0951 116.444ZM61.0951 82.7832H43V137.982H52.9691V126.369H61.0951C73.1493 126.369 82.9203 116.609 82.9203 104.574C82.9203 92.5386 73.1493 82.7832 61.0951 82.7832Z" fill="black"/>
<path d="M265.91 116.439H251.078L258.5 96.7851L265.91 116.439ZM265.437 86.8099C264.034 82.9978 259.809 81.0479 256.002 82.4596C254.021 83.1791 252.448 84.7226 251.689 86.6836L232.295 137.987H242.985L247.381 126.364H269.734L274.114 137.987H284.825L265.437 86.8099Z" fill="black"/>
<path d="M298.078 82.7832H288.104V137.971H298.078V82.7832Z" fill="black"/>
<path d="M335.079 116.439H320.23L327.663 96.7851L335.079 116.439ZM334.556 86.8099C333.159 82.9978 328.934 81.0479 325.115 82.4596C323.14 83.1791 321.561 84.7226 320.807 86.6836L301.441 137.987H312.087L316.478 126.364H338.831L343.221 137.987H353.867L334.556 86.8099Z" fill="black"/>
</g>
<defs>
<clipPath id="clip0_601_191">
<rect width="314" height="57" fill="white" transform="translate(43 82)"/>
</clipPath>
</defs>
</svg>
