<svg width="248" height="248" viewBox="0 0 248 248" fill="none" xmlns="http://www.w3.org/2000/svg">
<path fill-rule="evenodd" clip-rule="evenodd" d="M144.704 107.317C144.018 107.483 143.048 107.827 142.549 108.082C142.049 108.336 141.175 109.021 140.607 109.604C139.986 110.241 139.373 111.164 139.071 111.915C138.644 112.977 138.568 113.56 138.565 115.772C138.562 118.185 138.607 118.468 139.167 119.607C139.545 120.376 140.283 121.312 141.137 122.104C141.888 122.801 143.327 123.952 144.336 124.663C145.344 125.373 147.074 126.625 148.179 127.446C149.53 128.448 150.377 129.256 150.76 129.91C151.216 130.686 151.331 131.165 151.331 132.271C151.331 133.245 151.207 133.871 150.916 134.369C150.688 134.76 150.186 135.263 149.801 135.488C149.416 135.712 148.539 135.942 147.852 135.998C146.919 136.073 146.412 136 145.843 135.706C145.384 135.468 144.92 134.979 144.672 134.473C144.374 133.863 144.233 132.975 144.156 131.216L144.049 128.799L141.088 128.839L138.127 128.88L138.063 130.576C138.027 131.509 138.108 132.922 138.242 133.717C138.376 134.511 138.759 135.733 139.093 136.431C139.427 137.129 140.08 138.08 140.544 138.543C141.008 139.006 141.955 139.657 142.648 139.988C143.398 140.346 144.651 140.695 145.741 140.849C147.1 141.042 148.01 141.049 149.262 140.875C150.191 140.746 151.295 140.543 151.715 140.423C152.135 140.303 153.012 139.886 153.663 139.495C154.315 139.105 155.22 138.297 155.676 137.7C156.146 137.084 156.699 135.979 156.956 135.142C157.335 133.911 157.393 133.271 157.314 131.234C157.242 129.369 157.101 128.494 156.714 127.496C156.329 126.505 155.84 125.828 154.666 124.663C153.818 123.821 151.755 122.213 150.082 121.09C148.408 119.967 146.566 118.607 145.987 118.068C145.409 117.529 144.798 116.821 144.629 116.495C144.46 116.169 144.322 115.407 144.322 114.802C144.322 113.857 144.424 113.591 145.051 112.908C145.705 112.195 145.915 112.103 147.087 112.019C148.037 111.95 148.612 112.028 149.194 112.304C149.713 112.55 150.15 112.988 150.437 113.55C150.706 114.075 150.928 115.048 151.001 116.017L151.122 117.617H154.025H156.928V116.981C156.928 116.632 156.824 115.582 156.698 114.647C156.566 113.676 156.206 112.383 155.856 111.627C155.52 110.9 154.892 109.953 154.461 109.522C154.03 109.091 153.246 108.487 152.719 108.178C152.192 107.87 151.09 107.475 150.269 107.302C149.449 107.128 148.142 106.992 147.365 107C146.588 107.008 145.391 107.151 144.704 107.317ZM20 124.022V140.197H22.9342H25.8683V133.575V126.953H27.5639H29.2596L31.6391 133.575L34.0188 140.197L37.0073 140.197C38.6511 140.197 39.9958 140.159 39.9958 140.111C39.9958 140.064 38.9184 137.07 37.6015 133.457C36.2846 129.844 35.2331 126.871 35.2651 126.85C35.2968 126.83 35.7643 126.65 36.3035 126.45C36.843 126.251 37.6528 125.785 38.103 125.414C38.5533 125.043 39.1388 124.334 39.4044 123.838C39.8572 122.992 39.8913 122.62 39.9554 117.825C40.0182 113.11 39.9891 112.621 39.5787 111.526C39.3342 110.873 38.7656 109.959 38.3153 109.494C37.8647 109.029 37.1051 108.471 36.627 108.253C35.8371 107.893 35.0369 107.856 27.8788 107.852L20 107.847V124.022ZM45.6468 124.022V140.197H54.1233H62.5998V137.483V134.769H57.1661H51.7325V130.318V125.868H56.7315H61.7304V123.262V120.657H56.7262H51.7223L51.7816 116.951L51.8412 113.245L57.1118 113.267L62.3824 113.289V110.568V107.847H54.0146H45.6468V124.022ZM67.324 123.968L67.3753 140.089L70.3125 140.149L73.2497 140.209V133.603V126.997L77.7597 126.896C80.7351 126.829 82.5654 126.694 83.139 126.5C83.6224 126.336 84.4961 125.72 85.107 125.113C85.9001 124.326 86.2933 123.72 86.5198 122.936C86.7491 122.144 86.8339 120.621 86.8339 117.291C86.8339 113.5 86.7695 112.548 86.4518 111.639C86.2416 111.039 85.7595 110.171 85.3805 109.712C85.0014 109.252 84.1953 108.646 83.5891 108.364C82.4972 107.856 82.4167 107.851 74.8798 107.849L67.2727 107.847L67.324 123.968ZM91.2894 124.022V140.197H94.2236H97.1578V133.575V126.953H98.799H100.44L100.722 127.659C100.877 128.047 101.96 131.027 103.128 134.281L105.252 140.197H108.292C111.1 140.197 111.32 140.168 111.18 139.817C111.097 139.608 110.011 136.669 108.766 133.285C107.522 129.901 106.504 127.058 106.504 126.968C106.504 126.878 106.871 126.695 107.321 126.56C107.77 126.426 108.535 126.024 109.019 125.668C109.504 125.312 110.187 124.503 110.538 123.87L111.177 122.719V117.509C111.177 112.48 111.159 112.258 110.657 111.15C110.355 110.482 109.73 109.643 109.162 109.144C108.626 108.672 107.833 108.188 107.4 108.068C106.941 107.94 103.42 107.849 98.9509 107.848L91.2894 107.847V124.022ZM116.936 124.022V140.197H125.413H133.889V137.483V134.769H128.456H123.022V130.323V125.876L127.967 125.817L132.911 125.759L132.972 123.208L133.034 120.657H128.023H123.012L123.071 116.954L123.131 113.252L128.347 113.209L133.563 113.166L133.624 110.507L133.685 107.847H125.311H116.936V124.022ZM162.306 123.968L162.359 140.089L170.728 140.145L179.097 140.202V137.486V134.769H173.664H168.23V130.318V125.868H173.229H178.228V123.262V120.657H173.224H168.22L168.279 116.951L168.339 113.245L173.609 113.267L178.88 113.289V110.568V107.847H170.566H162.253L162.306 123.968ZM183.827 124.022L183.884 140.197H186.712H189.54L189.396 128.961C189.317 122.782 189.308 117.776 189.376 117.838C189.445 117.899 191.308 122.784 193.517 128.693C195.727 134.603 197.602 139.608 197.685 139.817C197.818 140.154 198.187 140.197 200.964 140.197H204.092V124.022V107.847H201.178H198.263L198.363 119.083L198.463 130.318L194.268 119.088L190.073 107.857L186.922 107.852L183.77 107.847L183.827 124.022ZM208.004 110.452V113.058H211.482H214.959V126.627V140.197H218.002H221.045V126.627V113.058H224.522H228V110.452V107.847H218.002H208.004V110.452ZM33.7721 113.942C34.3398 114.388 34.3448 114.418 34.3448 117.291C34.3448 120.165 34.3398 120.195 33.7721 120.641C33.2442 121.056 32.9132 121.091 29.5339 121.091H25.8683V117.291V113.492H29.5339C32.9132 113.492 33.2442 113.527 33.7721 113.942ZM80.3052 113.745C80.656 113.904 80.9479 114.288 81.0972 114.786C81.2287 115.224 81.3002 116.616 81.2583 117.918C81.1889 120.073 81.1416 120.295 80.6697 120.676C80.2129 121.046 79.7784 121.091 76.7032 121.091H73.2497V117.291V113.492H76.4997C78.5097 113.492 79.9616 113.588 80.3052 113.745ZM105.219 114.113C105.578 114.556 105.634 114.992 105.634 117.325C105.634 119.902 105.61 120.049 105.101 120.558C104.576 121.082 104.506 121.091 100.862 121.091H97.1578V117.278V113.464L100.981 113.532C104.698 113.598 104.816 113.615 105.219 114.113Z" fill="black"/>
</svg>
