<svg width="400" height="220" viewBox="0 0 400 220" fill="none" xmlns="http://www.w3.org/2000/svg">
<path fill-rule="evenodd" clip-rule="evenodd" d="M291.7 31.1861C289.775 31.4271 284.375 32.3081 279.7 33.1431C275.025 33.9791 265.833 36.2401 259.272 38.1681C252.712 40.0961 239.565 44.7831 230.058 48.5841C220.55 52.3841 211.838 56.0701 210.698 56.7741C209.558 57.4791 208.368 59.0711 208.053 60.3121C207.726 61.6001 208.146 63.5331 209.032 64.8121C209.886 66.0461 211.977 68.5981 213.679 70.4831L216.775 73.9121L232.595 65.7331C241.296 61.2351 249.154 57.5551 250.057 57.5551C251.304 57.5551 251.7 58.5091 251.7 61.5161C251.7 63.6951 250.832 69.2071 249.772 73.7661C248.711 78.3251 246.641 87.9051 245.171 95.0551C243.701 102.205 242.259 113.058 241.966 119.173C241.468 129.56 241.6 130.656 243.972 135.837C245.368 138.888 247.476 141.9 248.655 142.531C249.834 143.162 251.973 143.538 253.409 143.367C255.286 143.142 256.605 141.933 258.109 139.055C259.926 135.579 260.171 133.547 259.978 123.555C259.856 117.23 260.175 111.383 260.687 110.562C261.454 109.333 262.349 109.774 265.759 113.062C268.036 115.258 277.519 125.242 286.832 135.248C296.145 145.254 304.672 153.729 305.78 154.081C306.889 154.432 308.449 154.178 309.248 153.515C310.047 152.852 310.7 151.544 310.7 150.608C310.7 149.672 304.522 141.514 296.971 132.48C289.42 123.446 278.591 111.44 272.906 105.799C264.17 97.1311 262.676 95.1951 263.257 93.2991C263.635 92.0651 264.427 90.4541 265.016 89.7201C265.605 88.9851 276.012 83.5041 288.143 77.5391C300.415 71.5061 313.178 64.4601 316.913 61.6571C321.011 58.5821 324.41 55.0841 325.637 52.6791C327.512 49.0041 327.549 48.4081 326.183 43.8111C325.378 41.1011 323.912 38.1511 322.923 37.2571C321.935 36.3631 319.071 34.7221 316.557 33.6101C313.584 32.2951 309.056 31.4421 303.594 31.1681C298.977 30.9371 293.625 30.9451 291.7 31.1861ZM82.0608 49.7041C71.1368 58.5871 52.8068 73.0651 41.3258 81.8781C25.1518 94.2951 20.1208 98.6961 18.9788 101.43C17.8038 104.241 17.7178 106.02 18.5538 110.182C19.1308 113.056 21.4128 119.006 23.6248 123.405C25.8368 127.805 28.0838 131.674 28.6188 132.005C29.1538 132.336 31.9788 130.795 34.8958 128.581C37.8128 126.368 42.1078 123.656 44.4388 122.556C46.7708 121.455 49.7528 120.555 51.0668 120.555C52.3798 120.555 54.0238 121.241 54.7198 122.079C55.5968 123.136 55.8048 125.53 55.3968 129.895C55.0738 133.356 53.8418 138.774 52.6588 141.936C51.4748 145.098 48.5808 150.559 46.2248 154.071C43.8698 157.583 37.9508 164.982 33.0718 170.513C28.1918 176.045 23.4178 182.012 22.4618 183.775C21.3718 185.784 21.0758 187.331 21.6678 187.923C22.2588 188.514 24.5868 187.339 27.9058 184.772C30.8178 182.52 39.0498 175.383 46.1998 168.912C53.3498 162.441 64.0798 152.176 70.0448 146.101C76.0088 140.026 82.9338 132.355 85.4318 129.055C87.9308 125.755 90.6269 121.513 91.4249 119.629C92.3969 117.331 92.6558 114.745 92.2098 111.776C91.7038 108.397 90.5588 106.363 87.3728 103.182C84.9768 100.789 81.4468 98.4911 79.0838 97.7851C76.8198 97.1081 72.7458 96.5551 70.0298 96.5551C66.7298 96.5551 63.3798 97.4091 59.9278 99.1291C57.0868 100.544 53.7368 101.557 52.4818 101.379C50.8908 101.153 50.1218 100.298 49.9408 98.5551C49.7978 97.1801 50.0228 95.5671 50.4408 94.9711C50.8578 94.3741 59.0748 88.0491 68.6998 80.9141C78.3248 73.7791 90.2498 64.5221 95.1998 60.3441C100.15 56.1661 105.709 51.1731 107.553 49.2481L110.905 45.7481L106.765 39.6511C104.488 36.2981 102.467 33.5551 102.273 33.5551C102.08 33.5551 92.9838 40.8221 82.0608 49.7041ZM307.5 45.7551C308.16 46.4151 308.7 47.7081 308.7 48.6281C308.7 49.5481 306.706 52.1381 304.269 54.3851C301.832 56.6311 294.969 60.9591 289.019 64.0031C283.068 67.0461 276.182 70.6661 273.715 72.0461C271.249 73.4261 267.777 74.5551 266.001 74.5551C263.83 74.5551 262.431 73.9201 261.735 72.6211C261.166 71.5571 260.7 68.3771 260.7 65.5551C260.7 62.7331 261.148 59.5861 261.696 58.5631C262.244 57.5391 265.281 55.7281 268.446 54.5391C271.611 53.3491 278.925 50.8721 284.7 49.0331C290.475 47.1951 296.1 45.4881 297.2 45.2391C298.3 44.9901 300.798 44.7351 302.75 44.6711C304.702 44.6071 306.84 45.0951 307.5 45.7551ZM122.768 62.3161C119.23 68.7721 116.165 74.2701 115.957 74.5331C115.748 74.7961 113.242 75.2461 110.389 75.5331C105.222 76.0531 105.199 76.0711 104.89 79.8051C104.679 82.3511 105 83.5891 105.89 83.6611C106.61 83.7191 108.438 83.6851 109.95 83.5861C111.462 83.4861 112.694 83.7761 112.687 84.2301C112.68 84.6841 111.754 87.9801 110.629 91.5551C109.504 95.1301 107.934 101.122 107.142 104.87C106.349 108.619 105.7 113.501 105.7 115.719C105.7 117.938 106.436 121.303 107.335 123.198C108.234 125.093 110.237 127.298 111.785 128.099C113.334 128.9 116.302 129.555 118.381 129.555C120.976 129.555 123.994 128.423 128.011 125.944L133.862 122.332L138.195 125.444C140.577 127.155 143.445 128.555 144.567 128.555C145.689 128.555 147.415 127.409 148.403 126.008C149.391 124.607 150.936 122.484 151.836 121.289L153.473 119.117L157.561 122.811C159.81 124.842 162.804 126.794 164.215 127.148C165.947 127.583 167.391 127.24 168.659 126.092C169.693 125.157 172.212 121.166 174.258 117.223C176.303 113.281 178.65 109.278 179.472 108.329C180.295 107.379 181.357 106.843 181.834 107.138C182.31 107.432 182.703 110.459 182.706 113.864C182.709 117.269 183.174 121.722 183.74 123.76C184.306 125.797 185.939 128.384 187.369 129.51C189.004 130.795 191.454 131.555 193.966 131.555H197.962L197.194 127.805C196.771 125.743 196.375 122.265 196.313 120.077C196.227 117.04 196.611 116.018 197.939 115.756C199.27 115.493 200.753 117.666 204.25 125.001C206.889 130.534 209.85 135.263 211.254 136.182C212.758 137.168 214.637 137.537 216.18 137.149C217.552 136.805 219.402 135.414 220.29 134.058C221.822 131.72 221.75 131.258 218.887 125.141L215.868 118.69L218.784 109.622C220.388 104.635 221.7 99.4001 221.7 97.9891C221.7 96.5781 221.234 94.5531 220.665 93.4891C219.864 91.9941 218.561 91.5581 214.915 91.5671C211.742 91.5751 208.777 92.3931 205.848 94.0671C203.454 95.4351 200.296 96.5551 198.83 96.5551C197.364 96.5551 194.509 95.4301 192.485 94.0551C190.462 92.6801 188.529 91.5551 188.19 91.5551C187.851 91.5551 184.03 94.9301 179.7 99.0551C175.37 103.18 171.348 106.555 170.763 106.555C170.178 106.555 169.711 105.768 169.724 104.805C169.737 103.842 170.141 101.361 170.622 99.2901C171.316 96.3011 171.143 95.0881 169.781 93.4071C168.401 91.7031 167.68 91.4951 166.093 92.3441C165.008 92.9251 163.608 94.4471 162.98 95.7281C162.353 97.0081 160.447 101.069 158.744 104.753C157.041 108.437 154.486 112.365 153.067 113.481C151.17 114.973 150.016 115.259 148.711 114.561C147.734 114.038 146.717 113.036 146.451 112.333C146.185 111.63 146.508 108.937 147.168 106.347C147.829 103.758 149.667 99.7671 151.253 97.4781C152.953 95.0261 155.793 92.5721 158.169 91.5041C160.386 90.5061 163.1 89.4051 164.2 89.0561C165.968 88.4941 166.011 88.3151 164.577 87.5091C163.541 86.9271 160.971 87.1151 157.468 88.0271C154.451 88.8131 150.35 90.4191 148.357 91.5951C146.363 92.7721 141.79 97.2901 138.194 101.635C134.599 105.981 130.487 110.303 129.057 111.24C126.585 112.86 126.39 112.851 125.079 111.058C124.32 110.021 123.7 106.865 123.7 104.045C123.7 101.225 124.393 96.5851 125.24 93.7341C126.148 90.6751 127.686 87.9691 128.99 87.1341C130.205 86.3561 138.4 84.5931 147.2 83.2161C156 81.8391 167.312 80.1701 172.338 79.5071L181.476 78.3021L180.95 74.1781C180.661 71.9101 180.304 69.9101 180.156 69.7321C180.008 69.5541 174.782 70.1531 168.543 71.0631C162.305 71.9731 154.133 73.3561 150.385 74.1361C146.636 74.9171 141.785 75.5551 139.603 75.5551C137.039 75.5551 135.438 75.0361 135.074 74.0871C134.764 73.2801 136.568 69.2311 139.083 65.0891L143.655 57.5581L136.703 54.0561C132.879 52.1311 129.626 50.5601 129.475 50.5661C129.324 50.5711 126.306 55.8591 122.768 62.3161ZM304.948 90.6061C302.609 91.7941 298.683 95.0051 296.222 97.7411C293.762 100.478 291.291 104.367 290.73 106.386C290.17 108.404 289.709 110.826 289.706 111.767C289.703 112.709 290.625 115.953 291.756 118.976C292.917 122.079 295.128 125.578 296.833 127.013C298.494 128.411 300.664 129.555 301.655 129.555C302.645 129.555 305.131 128.855 307.179 127.999C309.227 127.144 312.32 126.581 314.051 126.749C316.66 127.003 317.394 127.655 318.329 130.555C318.95 132.48 320.083 134.18 320.847 134.334C321.611 134.487 324.811 132.318 327.958 129.513C331.906 125.994 334.37 124.513 335.905 124.734C337.14 124.912 339.121 126.614 340.353 128.555C341.575 130.48 343.49 133.18 344.608 134.555L346.64 137.055L352.022 131.305C354.982 128.142 357.934 125.555 358.583 125.555C359.232 125.555 360.016 126.214 360.325 127.02C360.634 127.826 359.534 130.863 357.88 133.77C356.226 136.677 354.179 141.53 353.331 144.555C352.483 147.58 351.378 157.255 350.875 166.055C350.373 174.855 350.176 182.618 350.438 183.305C350.7 183.993 351.496 184.555 352.207 184.555C352.918 184.555 355.794 182.044 358.6 178.974C361.405 175.905 363.701 173.093 363.703 172.724C363.704 172.356 364.816 164.97 366.173 156.311C367.53 147.652 369.381 137.977 370.286 134.811C371.191 131.645 373.93 124.432 376.373 118.782C378.816 113.132 381.325 106.081 381.947 103.113C382.862 98.7531 382.817 97.4001 381.714 96.0711C380.775 94.9401 379.544 94.6261 377.774 95.0651C376.358 95.4161 374.257 96.5831 373.105 97.6571C371.953 98.7321 369.099 103.311 366.763 107.833C364.427 112.355 361.171 117.318 359.528 118.862C357.303 120.953 355.733 121.591 353.377 121.362C351.146 121.146 349.857 120.306 349.001 118.512C348.034 116.483 348.081 114.571 349.234 109.064C350.375 103.608 350.418 101.994 349.439 101.373C348.758 100.94 347.949 100.579 347.641 100.57C347.334 100.562 346.387 101.118 345.536 101.805C344.686 102.493 341.211 106.759 337.815 111.286C334.418 115.813 330.782 119.976 329.735 120.536C328.688 121.097 326.912 121.555 325.789 121.555C324.665 121.555 323.023 120.452 322.14 119.104C321.112 117.535 320.789 115.826 321.244 114.354C321.634 113.09 323.471 109.97 325.327 107.421C327.182 104.872 328.7 101.676 328.7 100.317C328.7 98.9591 327.637 96.7001 326.337 95.2981C325.038 93.8961 322.571 92.0221 320.855 91.1351C319.139 90.2481 315.814 89.2791 313.467 88.9831C310.284 88.5821 308.119 88.9941 304.948 90.6061ZM317.53 100.962C317.712 101.879 316.491 104.75 314.816 107.342C313.142 109.934 310.613 113.293 309.196 114.805C307.778 116.317 305.76 117.555 304.709 117.555C303.659 117.555 302.376 116.798 301.858 115.873C301.236 114.762 301.371 112.905 302.255 110.399C302.991 108.313 304.734 104.927 306.128 102.876C307.522 100.824 309.684 98.5911 310.932 97.9141C312.746 96.9291 313.601 96.9441 315.2 97.9881C316.3 98.7061 317.349 100.044 317.53 100.962ZM318.15 151.906C316.473 152.667 313.886 154.734 312.4 156.5C310.915 158.265 309.42 160.824 309.078 162.186C308.736 163.549 308.663 166.821 308.917 169.457C309.17 172.094 310.237 175.414 311.289 176.835C312.34 178.257 314.929 180.402 317.043 181.603C320.095 183.338 322.006 183.694 326.334 183.335C329.605 183.064 332.841 182.094 334.43 180.907C335.885 179.821 337.955 177.755 339.028 176.318C340.101 174.88 341.193 171.484 341.453 168.77C341.784 165.324 341.398 162.722 340.173 160.139C339.208 158.106 336.874 155.264 334.987 153.825C332.55 151.966 330.055 151.108 326.378 150.865C323.371 150.666 319.921 151.103 318.15 151.906ZM331.283 155.161C333.145 156.045 335.576 158.236 336.684 160.029C337.802 161.838 338.698 165.02 338.696 167.173C338.694 169.308 337.814 172.496 336.74 174.256C335.667 176.017 333.441 178.155 331.794 179.006C330.147 179.858 326.768 180.555 324.284 180.555C320.667 180.555 319.072 179.942 316.259 177.473C314.328 175.777 312.33 172.875 311.818 171.022C311.303 169.157 311.248 166.057 311.695 164.076C312.139 162.108 313.109 159.763 313.851 158.865C314.593 157.966 316.55 156.405 318.2 155.397C319.85 154.388 322.707 153.561 324.549 153.559C326.391 153.557 329.421 154.278 331.283 155.161ZM321.45 159.361C319.959 159.651 319.7 160.875 319.7 167.628C319.7 174.008 319.993 175.555 321.2 175.555C322.248 175.555 322.7 174.499 322.7 172.055C322.7 169.559 323.145 168.555 324.251 168.555C325.104 168.555 326.46 170.13 327.264 172.055C328.069 173.98 329.404 175.555 330.232 175.555C331.368 175.555 331.576 174.878 331.081 172.805C330.72 171.293 329.974 169.484 329.424 168.786C328.732 167.908 328.894 166.985 329.951 165.786C330.988 164.611 331.217 163.371 330.665 161.923C330.113 160.477 328.783 159.668 326.526 159.406C324.697 159.195 322.412 159.174 321.45 159.361ZM327.2 164.055C327.2 165.368 326.427 166.165 324.95 166.375C323.104 166.637 322.7 166.22 322.7 164.055C322.7 161.89 323.104 161.473 324.95 161.735C326.427 161.945 327.2 162.742 327.2 164.055Z" fill="black"/>
</svg>
