<svg width="248" height="248" viewBox="0 0 248 248" fill="none" xmlns="http://www.w3.org/2000/svg">
<path d="M22 138.879V135.452C24.4409 136.35 26.3936 137.166 30.3804 137.166C34.7739 137.166 36.5639 135.615 36.5639 133.086C36.5639 130.476 35.2621 129.415 31.7635 128.354L28.9972 127.62C24.9291 126.478 22.2441 124.601 22.2441 119.951C22.2441 115.219 25.3359 112.037 31.6822 112.037C35.3435 112.037 37.7844 112.853 39.2489 113.669V117.177C37.7844 116.443 35.018 115.709 31.9263 115.709C28.1836 115.709 26.3122 117.014 26.3122 119.625C26.3122 122.072 27.4513 123.051 30.4617 123.867L33.2281 124.683C38.5166 126.07 40.7134 127.865 40.7134 132.678C40.7134 137.981 37.0521 140.918 30.8685 140.918C27.2886 140.837 24.2782 140.184 22 138.879ZM50.6397 132.76V112.527H54.9519V132.107C54.9519 135.697 56.2537 137.166 60.3218 137.166C63.3323 137.166 65.7731 136.105 68.0513 134.963V112.527H72.2822V140.429H68.6208L68.214 137.818H67.9699C65.4477 139.531 62.5186 140.837 59.1014 140.837C53.7315 140.918 50.6397 138.145 50.6397 132.76ZM84.1611 112.527H88.2293V114.974H88.4733C91.077 113.261 94.6569 112.037 98.0741 112.037C103.525 112.037 106.129 114.24 106.129 119.625V140.429H101.898V120.522C101.898 117.177 100.759 115.709 96.2842 115.709C93.6806 115.709 90.7515 116.688 88.4733 117.748V140.429H84.2425V112.527H84.1611ZM116.137 126.967V126.152C116.137 116.28 121.995 111.956 129.155 111.956C132.816 111.956 135.013 112.608 136.803 113.832V117.422C134.362 116.28 132.572 115.627 128.911 115.627C123.866 115.627 120.53 119.054 120.53 125.499V126.886C120.53 134.065 123.541 137.247 129.48 137.247C133.223 137.247 135.664 136.105 137.128 135.289V138.797C135.338 139.858 132.897 141 128.992 141C121.018 140.918 116.137 136.186 116.137 126.967ZM145.02 126.967V126.152C145.02 117.34 150.146 112.037 157.632 112.037C165.442 112.037 170.243 117.177 170.243 125.988V126.804C170.243 135.697 165.117 141 157.55 141C149.739 140.918 145.02 135.86 145.02 126.967ZM165.849 127.212V125.825C165.849 118.075 162.107 115.545 157.55 115.545C152.506 115.545 149.333 119.135 149.333 125.662V127.049C149.333 134.8 152.994 137.329 157.632 137.329C162.676 137.329 165.849 133.821 165.849 127.212ZM180.332 112.527H184.4V115.709H184.644C186.19 113.914 189.2 112.282 192.374 112.282C193.024 112.282 193.757 112.364 194.082 112.364V116.28C193.35 116.198 192.536 116.117 192.048 116.117C189.282 116.117 186.515 117.096 184.563 118.564V140.51H180.25L180.332 112.527ZM201.649 126.804V125.988C201.649 116.28 207.344 111.956 213.772 111.956C221.42 111.956 225 116.361 225 125.009V127.457H206.042C206.287 134.392 209.541 137.084 215.481 137.084C219.142 137.084 221.664 136.186 224.186 135.044V138.226C222.478 139.368 219.305 140.837 214.83 140.837C206.042 140.918 201.649 135.534 201.649 126.804ZM205.961 124.112H220.444C220.444 118.075 218.166 115.545 213.609 115.545C210.111 115.464 206.449 117.503 205.961 124.112ZM119.717 108.937C119.717 110.569 118.415 111.874 116.788 111.874C115.16 111.874 113.859 110.569 113.859 108.937C113.859 107.305 115.16 106 116.788 106C118.415 106 119.717 107.305 119.717 108.937Z" fill="black"/>
</svg>
