<svg width="248" height="248" viewBox="0 0 248 248" fill="none" xmlns="http://www.w3.org/2000/svg">
<path fill-rule="evenodd" clip-rule="evenodd" d="M64.9369 113.23C64.6455 113.351 64.1346 113.71 63.8019 114.028C63.4691 114.346 62.9622 115.068 62.6753 115.633C62.3886 116.198 62.0003 117.246 61.8126 117.962C61.6249 118.679 61.3887 120.207 61.2876 121.359C61.1572 122.845 61.1563 124.082 61.2845 125.615C61.3839 126.803 61.6178 128.346 61.8041 129.042C61.9906 129.738 62.3233 130.684 62.5437 131.144C62.7641 131.603 63.1979 132.255 63.5076 132.592C63.8175 132.929 64.385 133.359 64.7689 133.548C65.2378 133.779 65.8025 133.895 66.4897 133.902C67.2705 133.911 67.6824 133.821 68.2309 133.523C68.626 133.308 69.1938 132.842 69.4925 132.487C69.7913 132.131 70.2486 131.356 70.5086 130.763C70.7687 130.17 71.1207 129.063 71.291 128.301C71.5337 127.216 71.6007 126.18 71.6019 123.498C71.6029 121.317 71.5196 119.637 71.3716 118.858C71.2443 118.186 70.9156 117.077 70.6417 116.392C70.3356 115.627 69.8687 114.849 69.4311 114.374C69.0394 113.949 68.409 113.466 68.0304 113.302C67.6254 113.127 66.9559 113.005 66.4044 113.006C65.8888 113.008 65.2284 113.108 64.9369 113.23ZM157 113.301C156.623 113.465 155.97 113.965 155.548 114.413C155.127 114.861 154.538 115.704 154.24 116.288C153.942 116.871 153.542 117.936 153.35 118.654C153.158 119.372 152.913 120.719 152.807 121.648C152.7 122.576 152.654 124.288 152.704 125.452C152.761 126.756 152.937 128.143 153.164 129.063C153.405 130.041 153.755 130.913 154.176 131.587C154.598 132.261 155.1 132.798 155.63 133.143C156.075 133.433 156.757 133.752 157.147 133.853C157.537 133.954 158.393 134.003 159.05 133.964C159.864 133.914 160.584 133.746 161.311 133.434C162.111 133.091 162.406 132.874 162.486 132.568C162.545 132.343 162.506 132.025 162.398 131.861C162.268 131.663 162.203 130.49 162.203 128.38V125.198L160.2 125.243L158.197 125.289L158.143 125.818C158.112 126.128 158.169 126.348 158.279 126.348C158.383 126.348 158.656 126.527 158.886 126.747C159.292 127.134 159.305 127.22 159.305 129.484C159.305 131.612 159.274 131.854 158.957 132.178C158.766 132.374 158.415 132.535 158.177 132.535C157.931 132.535 157.539 132.339 157.268 132.079C156.929 131.756 156.712 131.291 156.517 130.474C156.367 129.841 156.155 128.416 156.047 127.307C155.927 126.069 155.892 124.087 155.957 122.179C156.015 120.468 156.144 118.49 156.243 117.783C156.342 117.076 156.506 116.241 156.607 115.927C156.708 115.614 156.947 115.193 157.139 114.991C157.389 114.73 157.682 114.625 158.158 114.625C158.683 114.625 158.931 114.731 159.31 115.118C159.575 115.389 159.908 115.957 160.051 116.38C160.193 116.802 160.394 117.464 160.498 117.85C160.676 118.51 160.719 118.549 161.232 118.501L161.776 118.451L161.824 116.073C161.863 114.051 161.83 113.662 161.597 113.478C161.385 113.31 161.21 113.301 160.827 113.439C160.428 113.583 160.166 113.558 159.475 113.307C159.005 113.136 158.409 112.998 158.152 113C157.896 113.002 157.377 113.137 157 113.301ZM206.93 113.188C206.541 113.268 205.919 113.587 205.527 113.907C205.066 114.284 204.586 114.943 204.136 115.815C203.757 116.548 203.336 117.661 203.199 118.288C203.063 118.915 202.864 120.356 202.758 121.491C202.616 123.02 202.615 124.121 202.757 125.75C202.863 126.959 203.096 128.496 203.275 129.165C203.454 129.835 203.836 130.828 204.123 131.371C204.41 131.915 204.902 132.605 205.217 132.905C205.531 133.205 206.061 133.574 206.394 133.725C206.75 133.887 207.415 134 208.005 134C208.803 134 209.154 133.911 209.704 133.571C210.085 133.335 210.602 132.84 210.852 132.472C211.103 132.103 211.414 131.436 211.542 130.988C211.671 130.54 211.821 129.871 211.876 129.501C211.964 128.901 211.932 128.817 211.592 128.729C211.382 128.676 211.053 128.63 210.86 128.629C210.569 128.627 210.475 128.794 210.293 129.636C210.173 130.191 209.927 130.921 209.747 131.259C209.566 131.596 209.271 131.948 209.09 132.041C208.909 132.133 208.544 132.207 208.281 132.204C208.017 132.201 207.68 132.109 207.532 132C207.384 131.891 207.138 131.618 206.985 131.393C206.832 131.168 206.589 130.501 206.446 129.91C206.302 129.32 206.102 127.568 206.001 126.018C205.868 123.991 205.869 122.397 206.002 120.337C206.105 118.762 206.294 117.044 206.423 116.518C206.552 115.991 206.807 115.369 206.99 115.134C207.173 114.898 207.523 114.683 207.766 114.655C208.01 114.627 208.367 114.685 208.559 114.783C208.751 114.881 209.053 115.234 209.232 115.568C209.41 115.902 209.725 116.706 209.931 117.354C210.3 118.515 210.314 118.532 210.885 118.532H211.465V116.009V113.485H210.879C210.556 113.485 210.248 113.553 210.194 113.637C210.137 113.725 209.789 113.664 209.374 113.495C208.977 113.332 208.423 113.164 208.141 113.122C207.86 113.079 207.315 113.109 206.93 113.188ZM19.051 121.824L19.1019 130.499L19.5453 131.395C19.7892 131.887 20.2111 132.502 20.4828 132.761C20.7547 133.02 21.2838 133.367 21.6588 133.531C22.0911 133.721 22.7419 133.831 23.4374 133.834C24.2057 133.836 24.7535 133.736 25.2659 133.499C25.6684 133.313 26.2033 132.928 26.4547 132.644C26.7061 132.36 27.0723 131.798 27.2683 131.395C27.6104 130.692 27.6283 130.344 27.7101 122.815L27.7954 114.968L28.1886 114.619C28.4717 114.367 28.567 114.125 28.5295 113.755L28.4772 113.241H26.7726H25.068L25.0136 113.692C24.9772 113.995 25.1053 114.31 25.4035 114.648L25.8477 115.152L25.7988 122.826C25.7538 129.881 25.725 130.543 25.4403 131.041C25.2588 131.359 24.8824 131.682 24.5307 131.823C24.0693 132.007 23.8047 132.022 23.3847 131.89C23.0711 131.791 22.6964 131.493 22.5045 131.19C22.1867 130.688 22.1678 130.277 22.1213 122.902L22.0725 115.143L22.5132 114.689C22.827 114.365 22.9391 114.091 22.903 113.738L22.852 113.241L20.926 113.195L19 113.149L19.051 121.824ZM30.7784 113.78C30.7784 114.205 30.8901 114.508 31.1193 114.706C31.4517 114.993 31.4602 115.208 31.4602 123.339C31.4602 131.283 31.4449 131.695 31.1364 132.07C30.9584 132.286 30.7965 132.644 30.7767 132.865C30.7569 133.086 30.7491 133.362 30.7595 133.477C30.7738 133.635 31.1815 133.675 32.4404 133.64L34.1024 133.593L34.1573 133.046C34.197 132.649 34.1036 132.389 33.8163 132.097L33.4205 131.695L33.3718 125.738C33.345 122.462 33.3849 119.722 33.4604 119.65C33.5361 119.578 34.6654 122.392 35.9699 125.905C37.2746 129.417 38.4753 132.595 38.6385 132.968C38.803 133.343 39.0897 133.692 39.2823 133.75C39.4732 133.808 39.7857 133.775 39.9767 133.678C40.32 133.502 40.3241 133.39 40.3241 124.319V115.138L40.762 114.641C41.0547 114.309 41.1819 113.994 41.1456 113.692L41.0912 113.241H39.3866H37.682L37.6271 113.788C37.5889 114.17 37.6793 114.443 37.9283 114.697C38.2735 115.047 38.2829 115.191 38.2389 119.397L38.1934 123.736L36.6715 119.628C35.8344 117.369 34.9487 115.007 34.7032 114.38L34.2566 113.241L32.5176 113.194L30.7784 113.148V113.78ZM43.3402 113.263C43.2751 113.325 43.2219 113.555 43.2219 113.773C43.2219 113.992 43.4137 114.388 43.6481 114.654L44.0742 115.138V123.417V131.696L43.6363 132.193C43.3437 132.525 43.2165 132.839 43.2528 133.141L43.3072 133.593H45.6084H47.9096L47.964 133.141C48.0003 132.839 47.8731 132.525 47.5804 132.193L47.1425 131.696V123.413V115.13L47.577 114.682C47.885 114.365 47.9965 114.09 47.9605 113.738L47.9096 113.241L45.6841 113.195C44.4602 113.171 43.4054 113.201 43.3402 113.263ZM50.154 113.268C50.0915 113.327 50.0403 113.542 50.0403 113.744C50.0403 113.946 50.2321 114.329 50.4665 114.595L50.8926 115.079V123.417V131.755L50.4665 132.239C50.2321 132.505 50.0415 132.845 50.0429 132.995C50.0444 133.145 50.1078 133.361 50.1842 133.476C50.2878 133.632 50.8776 133.673 52.5253 133.639L54.728 133.593L54.7823 133.141C54.8186 132.839 54.6915 132.525 54.3988 132.193L53.9609 131.696V127.882V124.068H54.5249C54.8352 124.068 55.2214 124.161 55.3834 124.274C55.5453 124.387 55.7826 124.772 55.9104 125.129C56.1179 125.708 56.2098 125.783 56.7609 125.828L57.3788 125.879L57.3319 123.305L57.2849 120.73L56.7554 120.681C56.2568 120.635 56.2072 120.682 55.9016 121.495C55.6082 122.276 55.5199 122.367 54.9821 122.448C54.6548 122.497 54.2912 122.508 54.174 122.471C54.0115 122.421 53.9609 121.496 53.9609 118.578V114.751L55.156 114.815C56.1728 114.87 56.4184 114.944 56.8042 115.313C57.1086 115.603 57.3218 116.056 57.4541 116.691C57.6479 117.623 57.6599 117.637 58.2774 117.687L58.9042 117.738V115.448V113.159H54.586C52.2108 113.159 50.2164 113.208 50.154 113.268ZM74.3734 113.25C74.303 113.319 74.2456 113.592 74.2456 113.855C74.2456 114.128 74.4286 114.541 74.6717 114.817L75.0979 115.301V123.417V131.533L74.6717 132.017C74.3896 132.337 74.2456 132.699 74.2456 133.087V133.674H76.5468H78.848V133.074C78.848 132.676 78.7191 132.343 78.4644 132.085C78.0937 131.708 78.0792 131.573 78.0291 128.021C77.9969 125.738 78.0412 124.285 78.1464 124.185C78.2584 124.078 78.4794 124.182 78.7997 124.493C79.2226 124.904 79.3979 125.426 80.1861 128.627C80.6823 130.642 81.1788 132.583 81.2893 132.942L81.4901 133.593L83.0668 133.64L84.6436 133.687V133.08C84.6436 132.681 84.5164 132.345 84.2718 132.096C83.994 131.814 83.7146 130.931 83.1684 128.608C82.7662 126.897 82.2969 125.268 82.1259 124.989C81.9548 124.709 81.5037 124.253 81.1234 123.976L80.4319 123.472L81.186 123.09C81.6007 122.88 82.2374 122.386 82.6008 121.991C82.9642 121.597 83.3878 120.911 83.5423 120.467C83.7477 119.876 83.8071 119.236 83.764 118.078C83.716 116.787 83.6273 116.351 83.2813 115.703C83.0481 115.267 82.588 114.698 82.259 114.438C81.9299 114.179 81.2387 113.812 80.723 113.623C79.9629 113.344 79.2855 113.264 77.1434 113.201C75.6902 113.158 74.4438 113.18 74.3734 113.25ZM86.7232 113.355C86.6107 113.462 86.5186 113.668 86.5186 113.812C86.5186 113.955 86.7104 114.321 86.9448 114.625L87.3709 115.176V123.466V131.755L86.9358 132.249C86.6576 132.565 86.5192 132.896 86.5522 133.168C86.6037 133.592 86.6088 133.593 88.3511 133.639L90.0983 133.686V133.024C90.0983 132.6 90.0107 132.329 89.8545 132.272C89.7204 132.223 89.5286 131.958 89.4284 131.683C89.3176 131.38 89.2549 129.802 89.2683 127.667C89.2806 125.732 89.3382 122.464 89.3962 120.405L89.5017 116.66L89.8799 119.102C90.0881 120.445 90.6583 124.274 91.1473 127.609L92.0362 133.674H92.6015C92.9381 133.674 93.1679 133.592 93.17 133.471C93.1718 133.359 93.365 132.022 93.599 130.499C93.8331 128.977 94.2492 126.266 94.5236 124.475C94.798 122.684 95.1817 120.198 95.3762 118.95C95.5709 117.702 95.7669 116.646 95.8119 116.602C95.8571 116.559 95.8939 119.938 95.8939 124.11V131.696L95.456 132.193C95.1633 132.525 95.0362 132.839 95.0725 133.141L95.1268 133.593H97.3428H99.5588L99.6132 133.141C99.6495 132.839 99.5223 132.525 99.2296 132.193L98.7917 131.696V123.517V115.339L99.2179 114.787C99.4523 114.484 99.644 114.038 99.644 113.796C99.644 113.546 99.5281 113.314 99.3744 113.258C99.2261 113.204 98.1184 113.159 96.9127 113.159C95.7073 113.159 94.6796 113.223 94.6291 113.301C94.5786 113.379 94.2688 115.192 93.9403 117.331C93.6118 119.469 93.2983 121.464 93.2438 121.765C93.1892 122.065 93.1175 122.285 93.0844 122.253C93.0515 122.221 92.7447 120.327 92.4027 118.044C92.061 115.76 91.7393 113.727 91.6883 113.526C91.5977 113.168 91.5407 113.159 89.2617 113.159C87.6737 113.159 86.8623 113.222 86.7232 113.355ZM107.849 113.377C107.709 113.539 107.66 113.806 107.726 114.057C107.786 114.284 107.986 114.615 108.171 114.792C108.498 115.103 108.508 115.366 108.508 123.434V131.755L108.073 132.249C107.795 132.565 107.656 132.896 107.689 133.168L107.741 133.593H110.639C113.292 133.593 113.619 133.561 114.511 133.21C115.128 132.967 115.743 132.56 116.188 132.099C116.575 131.698 117.055 131.028 117.255 130.609C117.544 130.005 117.62 129.529 117.623 128.301C117.627 127.009 117.563 126.629 117.233 125.99C117.017 125.57 116.535 124.935 116.163 124.579C115.79 124.224 115.144 123.799 114.725 123.634C114.306 123.47 113.964 123.294 113.963 123.243C113.963 123.193 114.222 123.033 114.539 122.889C114.857 122.744 115.382 122.403 115.707 122.13C116.032 121.858 116.518 121.175 116.787 120.613C117.204 119.741 117.276 119.387 117.273 118.207C117.271 117.116 117.187 116.642 116.875 115.969C116.657 115.5 116.175 114.854 115.804 114.533C115.432 114.213 114.781 113.808 114.357 113.635C113.748 113.385 113.003 113.297 110.832 113.215C108.408 113.124 108.052 113.143 107.849 113.377ZM168.851 113.318L164.845 113.403L164.793 113.828C164.76 114.101 164.899 114.432 165.181 114.753L165.621 115.252L165.574 123.608L165.527 131.965L165.143 132.331C164.932 132.533 164.76 132.866 164.76 133.072C164.76 133.278 164.852 133.534 164.964 133.642C165.113 133.784 166.374 133.837 169.571 133.837H173.973L173.926 131.273L173.879 128.708H173.369C172.88 128.708 172.841 128.764 172.394 130.083C172.138 130.839 171.772 131.607 171.581 131.79C171.309 132.05 170.958 132.135 169.957 132.183L168.68 132.245V128.075V123.905H169.179C169.454 123.905 169.799 124.021 169.947 124.162C170.095 124.303 170.301 124.743 170.406 125.139C170.583 125.813 170.633 125.859 171.172 125.859C171.52 125.859 171.748 125.779 171.747 125.656C171.746 125.544 171.774 124.378 171.809 123.065C171.844 121.753 171.817 120.593 171.75 120.488C171.682 120.383 171.407 120.321 171.14 120.351C170.729 120.396 170.62 120.514 170.439 121.114C170.321 121.505 170.137 121.926 170.028 122.051C169.92 122.175 169.572 122.277 169.256 122.277H168.68V118.614V114.95H169.835C170.595 114.95 171.118 115.035 171.362 115.199C171.581 115.345 171.851 115.832 172.019 116.379C172.175 116.892 172.329 117.403 172.362 117.515C172.393 117.627 172.643 117.718 172.916 117.718C173.287 117.718 173.439 117.626 173.516 117.352C173.572 117.15 173.62 116.212 173.621 115.268C173.623 114.146 173.553 113.482 173.419 113.355C173.306 113.247 173.134 113.176 173.035 113.195C172.937 113.215 171.054 113.27 168.851 113.318ZM120.099 113.827C120.099 114.138 120.243 114.506 120.446 114.712C120.785 115.057 120.792 115.237 120.785 123.433C120.778 131.529 120.767 131.816 120.439 132.243C120.252 132.486 120.099 132.907 120.099 133.179V133.674H122.4H124.702V133.156C124.702 132.842 124.55 132.483 124.318 132.247C123.946 131.87 123.933 131.742 123.883 128.044C123.833 124.306 123.839 124.231 124.178 124.231C124.368 124.231 124.653 124.421 124.812 124.652C124.971 124.884 125.51 126.734 126.009 128.764C126.508 130.793 126.996 132.728 127.094 133.064L127.272 133.674H128.885H130.497V133.112C130.497 132.743 130.363 132.421 130.107 132.176C129.802 131.884 129.576 131.181 129.069 128.96C128.713 127.397 128.304 125.84 128.162 125.499C128.019 125.158 127.53 124.56 127.076 124.17L126.25 123.46L126.937 123.164C127.315 123.001 127.963 122.508 128.377 122.068C128.85 121.567 129.226 120.96 129.387 120.441C129.529 119.985 129.645 119.043 129.645 118.346C129.645 117.479 129.538 116.805 129.305 116.212C129.114 115.725 128.684 115.082 128.325 114.748C127.973 114.42 127.301 113.984 126.832 113.779C126.069 113.444 125.673 113.399 123.04 113.35L120.099 113.295V113.827ZM132.486 113.431C132.423 113.49 132.372 113.705 132.372 113.907C132.372 114.109 132.564 114.492 132.798 114.758L133.225 115.242V123.449V131.657L132.798 132.209C132.564 132.512 132.372 132.926 132.372 133.128C132.372 133.33 132.481 133.554 132.614 133.626C132.748 133.697 133.822 133.733 135.001 133.706L137.145 133.656V133.159C137.145 132.867 136.97 132.464 136.719 132.179L136.293 131.696V123.498V115.301L136.719 114.817C136.973 114.528 137.145 114.129 137.145 113.828V113.322H134.872C133.622 113.322 132.548 113.371 132.486 113.431ZM139.361 113.814C139.361 114.097 139.514 114.515 139.702 114.743C140.033 115.145 140.043 115.404 140.043 123.498C140.043 131.679 140.036 131.848 139.691 132.267C139.459 132.548 139.357 132.875 139.393 133.225L139.446 133.756L141.947 133.738C143.814 133.725 144.679 133.649 145.357 133.438C145.856 133.283 146.512 132.978 146.814 132.759C147.116 132.541 147.593 132.043 147.874 131.653C148.155 131.263 148.581 130.385 148.822 129.701C149.062 129.016 149.38 127.634 149.529 126.629C149.726 125.297 149.773 124.138 149.704 122.358C149.639 120.682 149.5 119.517 149.262 118.642C149.071 117.942 148.709 117.008 148.458 116.568C148.207 116.127 147.649 115.425 147.218 115.006C146.788 114.588 146.013 114.056 145.498 113.825C144.64 113.439 144.338 113.399 141.961 113.351L139.361 113.299V113.814ZM186.459 113.889C185.912 114.209 185.61 114.565 185.181 115.397C184.659 116.411 184.621 116.594 184.639 118.039C184.65 118.912 184.813 120.292 185.012 121.195L185.365 122.799L184.458 123.935C183.959 124.561 183.359 125.451 183.123 125.913C182.888 126.376 182.601 127.192 182.486 127.726C182.361 128.309 182.322 129.115 182.389 129.742C182.451 130.316 182.617 131.051 182.758 131.376C182.899 131.7 183.211 132.237 183.452 132.57C183.708 132.924 184.249 133.346 184.756 133.588C185.233 133.814 185.857 134 186.144 134C186.431 134 186.902 133.935 187.19 133.856C187.479 133.777 188.046 133.503 188.45 133.246C188.855 132.989 189.288 132.707 189.412 132.62C189.576 132.504 189.815 132.622 190.281 133.048C190.635 133.371 191.093 133.718 191.297 133.818C191.502 133.918 191.97 134 192.337 134C192.75 134 193.227 133.858 193.585 133.628C194.042 133.335 194.175 133.13 194.217 132.652C194.266 132.085 194.239 132.046 193.79 132.046C193.527 132.045 193.065 131.902 192.764 131.726C192.463 131.551 192.024 131.129 191.787 130.787L191.358 130.167L191.94 128.542C192.261 127.649 192.681 126.393 192.875 125.753C193.176 124.753 193.31 124.542 193.823 124.253C194.326 123.969 194.419 123.826 194.419 123.341V122.766H192.204H189.988V123.339C189.988 123.788 190.073 123.944 190.378 124.055C190.593 124.133 190.872 124.316 190.999 124.462C191.165 124.653 191.201 125.01 191.128 125.741C191.072 126.298 190.919 127.048 190.788 127.406C190.657 127.764 190.483 128.045 190.401 128.03C190.319 128.015 189.923 127.173 189.521 126.158C189.119 125.143 188.646 123.826 188.47 123.232L188.15 122.152L189.392 120.973C190.114 120.288 190.821 119.432 191.078 118.929C191.415 118.272 191.522 117.814 191.522 117.021C191.522 116.248 191.421 115.796 191.131 115.274C190.917 114.886 190.452 114.345 190.099 114.072C189.552 113.649 189.288 113.568 188.316 113.523C187.332 113.477 187.076 113.527 186.459 113.889ZM67.2474 114.778C67.4297 114.953 67.7003 115.484 67.8487 115.959C67.9972 116.434 68.1983 117.764 68.2955 118.914C68.4186 120.369 68.4172 122.251 68.2909 125.101C68.1912 127.354 68.0282 129.671 67.9288 130.251C67.8295 130.831 67.5985 131.537 67.4153 131.82C67.2322 132.103 66.9221 132.375 66.7263 132.424C66.5304 132.473 66.1912 132.435 65.9727 132.34C65.7458 132.241 65.4255 131.835 65.2267 131.393C65.0351 130.968 64.7888 129.896 64.6792 129.013C64.5473 127.946 64.5156 126.037 64.5853 123.335C64.6431 121.097 64.7731 118.539 64.8744 117.652C64.9756 116.765 65.1705 115.783 65.3072 115.471C65.4439 115.158 65.6892 114.806 65.8523 114.687C66.0153 114.569 66.3212 114.47 66.5323 114.467C66.7433 114.464 67.065 114.604 67.2474 114.778ZM79.6553 115.217C79.8649 115.341 80.1718 115.64 80.3371 115.882C80.587 116.246 80.6378 116.692 80.6378 118.525C80.6378 120.438 80.5925 120.804 80.2969 121.283C80.1094 121.587 79.7642 121.968 79.5298 122.128C79.2954 122.289 78.8735 122.443 78.5923 122.471L78.0809 122.521L78.0475 118.787C78.0293 116.734 78.0514 114.996 78.0968 114.926C78.1423 114.855 78.4257 114.841 78.7268 114.894C79.0278 114.947 79.4456 115.092 79.6553 115.217ZM188.818 115.099C189.18 115.378 189.22 115.54 189.22 116.703C189.22 117.86 189.158 118.112 188.624 119.107C188.296 119.718 187.943 120.244 187.839 120.276C187.726 120.311 187.557 119.833 187.413 119.067C187.282 118.37 187.175 117.262 187.175 116.605C187.175 115.546 187.221 115.375 187.577 115.099C187.799 114.927 188.078 114.787 188.198 114.787C188.318 114.787 188.597 114.927 188.818 115.099ZM113.215 115.291C113.359 115.405 113.638 115.796 113.836 116.16C114.1 116.645 114.215 117.216 114.268 118.288C114.31 119.147 114.255 120.054 114.135 120.48C114.008 120.93 113.684 121.442 113.285 121.823C112.814 122.273 112.495 122.44 112.108 122.44H111.576V118.674V114.907L112.265 114.996C112.643 115.044 113.071 115.177 113.215 115.291ZM125.389 115.197C125.664 115.333 126.024 115.681 126.189 115.971C126.43 116.393 126.489 116.899 126.49 118.532C126.491 120.247 126.438 120.668 126.15 121.208C125.963 121.561 125.615 121.984 125.378 122.15C125.141 122.315 124.719 122.466 124.441 122.486L123.934 122.521L123.889 118.736L123.843 114.95H124.366C124.654 114.95 125.114 115.061 125.389 115.197ZM144.663 115.322C145.06 115.577 145.361 115.98 145.62 116.601C145.828 117.1 146.093 118.05 146.21 118.712C146.336 119.431 146.42 121.425 146.419 123.661C146.417 125.763 146.326 127.977 146.209 128.708C146.095 129.425 145.831 130.337 145.622 130.735C145.413 131.133 145.05 131.588 144.816 131.744C144.581 131.901 144.102 132.078 143.75 132.137L143.111 132.245V123.598V114.95H143.597C143.865 114.95 144.344 115.118 144.663 115.322ZM216.92 121.319C216.686 121.408 216.238 121.715 215.925 122.001C215.612 122.287 215.204 122.804 215.017 123.149C214.831 123.494 214.571 124.264 214.439 124.859C214.307 125.454 214.198 126.637 214.197 127.487C214.196 128.338 214.27 129.474 214.362 130.011C214.454 130.548 214.765 131.445 215.053 132.005C215.361 132.602 215.829 133.205 216.187 133.466C216.68 133.825 217.018 133.922 217.945 133.972C218.797 134.018 219.258 133.96 219.731 133.746C220.082 133.587 220.592 133.162 220.865 132.802C221.138 132.442 221.532 131.63 221.741 130.998C222.062 130.021 222.117 129.493 222.108 127.487C222.098 125.367 222.051 125.004 221.648 123.923C221.401 123.261 220.984 122.501 220.722 122.233C220.459 121.966 219.937 121.612 219.562 121.446C219.187 121.28 218.535 121.148 218.113 121.151C217.691 121.155 217.155 121.231 216.92 121.319ZM218.698 122.696C218.845 122.836 219.023 123.148 219.093 123.388C219.164 123.627 219.221 125.622 219.221 127.82C219.221 131.372 219.188 131.865 218.919 132.257C218.726 132.538 218.465 132.697 218.199 132.697C217.932 132.697 217.67 132.538 217.478 132.257C217.216 131.875 217.168 131.322 217.118 128.056C217.08 125.622 217.127 124.056 217.25 123.619C217.355 123.247 217.559 122.83 217.704 122.691C217.849 122.553 218.071 122.44 218.199 122.44C218.326 122.44 218.55 122.555 218.698 122.696ZM113.128 124.435C113.453 124.641 113.894 125.158 114.133 125.615C114.511 126.336 114.559 126.633 114.557 128.22C114.556 129.679 114.493 130.131 114.216 130.66C114.03 131.017 113.617 131.475 113.298 131.678C112.98 131.88 112.462 132.046 112.148 132.046H111.576V128.057V124.068H112.062C112.33 124.068 112.809 124.233 113.128 124.435ZM186.643 126.586C187.006 127.613 187.609 129.054 187.984 129.79C188.637 131.071 188.652 131.136 188.346 131.349C188.171 131.472 187.856 131.613 187.647 131.663C187.426 131.716 187.034 131.625 186.71 131.445C186.326 131.233 185.967 130.784 185.559 130.004C185.021 128.979 184.965 128.74 184.963 127.487C184.961 126.359 185.032 125.976 185.347 125.411C185.559 125.031 185.789 124.719 185.858 124.719C185.927 124.719 186.28 125.559 186.643 126.586ZM225.23 131.155C224.993 131.381 224.761 131.756 224.715 131.989C224.668 132.222 224.701 132.657 224.788 132.957C224.874 133.257 225.112 133.614 225.317 133.751C225.522 133.888 226.011 134 226.403 134C226.991 134 227.195 133.912 227.559 133.499C227.872 133.143 228 132.81 228 132.347C228 131.844 227.886 131.587 227.502 131.22C227.12 130.855 226.847 130.744 226.332 130.744C225.841 130.744 225.544 130.854 225.23 131.155Z" fill="black"/>
</svg>
