<?xml version="1.0" encoding="utf-8"?>
<!-- Generator: Adobe Illustrator 19.2.1, SVG Export Plug-In . SVG Version: 6.00 Build 0)  -->
<svg version="1.1" id="Woolrich" xmlns="http://www.w3.org/2000/svg" xmlns:xlink="http://www.w3.org/1999/xlink" x="0px" y="0px"
	 width="400px" height="220px" viewBox="0 0 400 220" style="enable-background:new 0 0 400 220;" xml:space="preserve">
<title>Woolrich</title>
<g>
	<g>
		<polygon class="st0" points="15.3,119.7 27.2,119.7 35.2,88.5 43.1,119.7 54.8,119.7 67.3,71.4 56.2,71.4 48.8,101.3 41.1,71.4 
			29,71.4 21.4,100.9 14,71.4 3,71.4 		"/>
		<polygon class="st1" points="15.3,119.7 27.2,119.7 35.2,88.5 43.1,119.7 54.8,119.7 67.3,71.4 56.2,71.4 48.8,101.3 41.1,71.4 
			29,71.4 21.4,100.9 14,71.4 3,71.4 		"/>
		<g>
			<path class="st2" d="M82.7,95.6c0-9.3,4.6-15,12.5-15s12.5,5.7,12.5,15c0,9.3-4.6,15.2-12.5,15.2S82.7,104.9,82.7,95.6
				 M70.2,95.6c0,16.5,11.3,25.6,25,25.6c13.7,0,24.9-9.4,25-25.6c0-16.5-11.3-25.5-25-25.5C81.5,70,70.2,79.1,70.2,95.6"/>
			<path class="st1" d="M82.7,95.6c0-9.3,4.6-15,12.5-15s12.5,5.7,12.5,15c0,9.3-4.6,15.2-12.5,15.2S82.7,104.9,82.7,95.6z
				 M70.2,95.6c0,16.5,11.3,25.6,25,25.6c13.7,0,24.9-9.4,25-25.6c0-16.5-11.3-25.5-25-25.5C81.5,70,70.2,79.1,70.2,95.6z"/>
			<path class="st2" d="M139,95.6c0-9.3,4.6-15,12.5-15s12.5,5.7,12.5,15c0,9.3-4.6,15.2-12.5,15.2S139,104.9,139,95.6 M126.4,95.6
				c0,16.5,11.3,25.6,25,25.6c13.7,0,24.9-9.4,25-25.6c0-16.5-11.3-25.5-25-25.5C137.7,70,126.4,79.1,126.4,95.6"/>
			<path class="st1" d="M139,95.6c0-9.3,4.6-15,12.5-15s12.5,5.7,12.5,15c0,9.3-4.6,15.2-12.5,15.2S139,104.9,139,95.6z M126.4,95.6
				c0,16.5,11.3,25.6,25,25.6c13.7,0,24.9-9.4,25-25.6c0-16.5-11.3-25.5-25-25.5C137.7,70,126.4,79.1,126.4,95.6z"/>
			<polygon class="st0" points="182.7,119.7 216.5,119.7 216.5,110.1 194.5,110.1 194.5,71.4 182.7,71.4 			"/>
			<polygon class="st1" points="182.7,119.7 216.5,119.7 216.5,110.1 194.5,110.1 194.5,71.4 182.7,71.4 			"/>
			<path class="st2" d="M246.7,80.1c3.9,0,6.6,2.2,6.6,5.2c0,3.5-2.7,5.6-6.9,5.6h-11.7V80.1H246.7z M222.8,119.7h11.9v-20h7.8
				l12,20h12.9l-12.7-21.5c8.8-1.9,11.1-8.5,11.1-13.1c0-8.4-7.1-13.7-18.2-13.7h-24.7V119.7z"/>
			<path class="st1" d="M246.7,80.1c3.9,0,6.6,2.2,6.6,5.2c0,3.5-2.7,5.6-6.9,5.6h-11.7V80.1H246.7z M222.8,119.7h11.9v-20h7.8
				l12,20h12.9l-12.7-21.5c8.8-1.9,11.1-8.5,11.1-13.1c0-8.4-7.1-13.7-18.2-13.7h-24.7V119.7z"/>
			<rect x="273.7" y="71.4" class="st0" width="11.8" height="48.3"/>
			<rect x="273.7" y="71.4" class="st1" width="11.8" height="48.3"/>
			<path class="st0" d="M329.6,102.7c-1.3,2.3-4.8,8.2-11.8,8.2c-7.8,0-12.3-5.6-12.3-15.3c0-9.8,4.4-15.5,11.7-15.5
				c5.7,0,9,3.3,11.5,9l9.6-5.6c-1.8-3.8-5.8-13.3-22-13.3c-13.8,0-23.3,10.4-23.3,25.5c0,15.7,9.6,25.5,24.8,25.5
				c14.1,0,19-8.4,21.1-11.9L329.6,102.7z"/>
			<path class="st1" d="M329.6,102.7c-1.3,2.3-4.8,8.2-11.8,8.2c-7.8,0-12.3-5.6-12.3-15.3c0-9.8,4.4-15.5,11.7-15.5
				c5.7,0,9,3.3,11.5,9l9.6-5.6c-1.8-3.8-5.8-13.3-22-13.3c-13.8,0-23.3,10.4-23.3,25.5c0,15.7,9.6,25.5,24.8,25.5
				c14.1,0,19-8.4,21.1-11.9L329.6,102.7z"/>
			<polygon class="st0" points="345.3,119.7 357.1,119.7 357.1,99.4 378.1,99.4 378.1,119.7 389.9,119.7 389.9,71.4 378.2,71.4 
				378.2,90.3 357.2,90.3 357.2,71.4 345.3,71.4 			"/>
			<polygon class="st1" points="345.3,119.7 357.1,119.7 357.1,99.4 378.1,99.4 378.1,119.7 389.9,119.7 389.9,71.4 378.2,71.4 
				378.2,90.3 357.2,90.3 357.2,71.4 345.3,71.4 			"/>
			<path class="st2" d="M252.6,131.1c0-1-0.4-1.7-1.1-2.3c-0.7-0.6-1.6-0.8-2.7-0.8c-1.1,0-2,0.3-2.8,1c-0.7,0.6-1.1,1.4-1.1,2.3
				c0,0.8,0.2,1.4,0.7,2c0.5,0.6,1.5,1.3,3.2,2.1c1.2-0.4,2.1-0.9,2.7-1.6C252.2,133.1,252.6,132.2,252.6,131.1 M256.1,144.5
				l-8.8-7.1c-0.4,0.2-0.8,0.4-1.1,0.6c-0.4,0.2-0.8,0.6-1.1,1c-0.3,0.4-0.6,0.9-0.8,1.4c-0.2,0.6-0.3,1.2-0.3,1.9
				c0,1.5,0.5,2.7,1.6,3.6c1.1,0.9,2.6,1.4,4.5,1.4c1.1,0,2.3-0.2,3.4-0.7C254.4,146.2,255.4,145.5,256.1,144.5 M261.7,135.4v1.5
				c0,1-0.2,2.1-0.5,3.3c-0.3,1.2-0.8,2.4-1.6,3.5l7,5.6h-4.5l-4.2-3.4c-1.4,1.5-2.9,2.5-4.3,3.1c-1.5,0.6-3,0.9-4.6,0.9
				c-2.6,0-4.7-0.6-6.4-1.9c-1.7-1.2-2.5-2.9-2.5-4.9c0-0.9,0.2-1.8,0.5-2.4c0.3-0.7,0.7-1.3,1.1-1.8c0.4-0.5,1-0.9,1.6-1.4
				c0.6-0.4,1.3-0.8,1.9-1.1c-1.4-0.7-2.3-1.5-2.9-2.2c-0.6-0.7-0.9-1.7-0.9-2.8c0-0.7,0.2-1.3,0.5-1.9c0.3-0.6,0.8-1.2,1.5-1.7
				c0.6-0.5,1.4-0.9,2.4-1.2c1-0.3,2.1-0.5,3.3-0.5c2.1,0,3.9,0.5,5.2,1.3c1.3,0.9,2,2,2,3.4c0,0.5-0.1,1-0.2,1.5
				c-0.1,0.6-0.4,1.1-0.8,1.5c-0.4,0.5-1,1-1.7,1.4c-0.7,0.5-1.7,0.9-2.8,1.2l6.8,5.6c0.2-0.4,0.3-0.9,0.4-1.3
				c0.1-0.5,0.1-1,0.2-1.5c0-0.6,0-1.2,0-1.9v-1.8H261.7z"/>
			<path class="st3" d="M252.6,131.1c0-1-0.4-1.7-1.1-2.3c-0.7-0.6-1.6-0.8-2.7-0.8c-1.1,0-2,0.3-2.8,1c-0.7,0.6-1.1,1.4-1.1,2.3
				c0,0.8,0.2,1.4,0.7,2c0.5,0.6,1.5,1.3,3.2,2.1c1.2-0.4,2.1-0.9,2.7-1.6C252.2,133.1,252.6,132.2,252.6,131.1z M256.1,144.5
				l-8.8-7.1c-0.4,0.2-0.8,0.4-1.1,0.6c-0.4,0.2-0.8,0.6-1.1,1c-0.3,0.4-0.6,0.9-0.8,1.4c-0.2,0.6-0.3,1.2-0.3,1.9
				c0,1.5,0.5,2.7,1.6,3.6c1.1,0.9,2.6,1.4,4.5,1.4c1.1,0,2.3-0.2,3.4-0.7C254.4,146.2,255.4,145.5,256.1,144.5z M261.7,135.4v1.5
				c0,1-0.2,2.1-0.5,3.3c-0.3,1.2-0.8,2.4-1.6,3.5l7,5.6h-4.5l-4.2-3.4c-1.4,1.5-2.9,2.5-4.3,3.1c-1.5,0.6-3,0.9-4.6,0.9
				c-2.6,0-4.7-0.6-6.4-1.9c-1.7-1.2-2.5-2.9-2.5-4.9c0-0.9,0.2-1.8,0.5-2.4c0.3-0.7,0.7-1.3,1.1-1.8c0.4-0.5,1-0.9,1.6-1.4
				c0.6-0.4,1.3-0.8,1.9-1.1c-1.4-0.7-2.3-1.5-2.9-2.2c-0.6-0.7-0.9-1.7-0.9-2.8c0-0.7,0.2-1.3,0.5-1.9c0.3-0.6,0.8-1.2,1.5-1.7
				c0.6-0.5,1.4-0.9,2.4-1.2c1-0.3,2.1-0.5,3.3-0.5c2.1,0,3.9,0.5,5.2,1.3c1.3,0.9,2,2,2,3.4c0,0.5-0.1,1-0.2,1.5
				c-0.1,0.6-0.4,1.1-0.8,1.5c-0.4,0.5-1,1-1.7,1.4c-0.7,0.5-1.7,0.9-2.8,1.2l6.8,5.6c0.2-0.4,0.3-0.9,0.4-1.3
				c0.1-0.5,0.1-1,0.2-1.5c0-0.6,0-1.2,0-1.9v-1.8H261.7z"/>
			<path class="st2" d="M282.4,149.4h10.8c4.1,0,6,0,8.1-1.2c2.9-1.6,3.1-4,3.1-5.1c0-4.5-4-5.5-5.1-5.8c2.1-0.5,4.2-2.2,4.2-5
				c0-3.6-3.3-5.3-6.1-5.7c-1.1-0.2-2.1-0.2-3.7-0.2h-11.4V149.4z M294.4,129.2c1.5,0,5.3,0.1,5.3,3.3c0,0.7-0.2,1.4-0.7,2
				c-1.2,1.6-3.2,1.6-7.4,1.6h-5.7v-7H294.4z M292.6,138.7c3.4,0,4.3,0.1,5.4,0.5c0.3,0.1,2.7,1,2.7,3.7c0,1.8-0.9,3.2-3.2,3.7
				c-0.8,0.2-1.4,0.2-3.4,0.2h-8.2v-8H292.6z"/>
			<path class="st3" d="M282.4,149.4h10.8c4.1,0,6,0,8.1-1.2c2.9-1.6,3.1-4,3.1-5.1c0-4.5-4-5.5-5.1-5.8c2.1-0.5,4.2-2.2,4.2-5
				c0-3.6-3.3-5.3-6.1-5.7c-1.1-0.2-2.1-0.2-3.7-0.2h-11.4V149.4z M294.4,129.2c1.5,0,5.3,0.1,5.3,3.3c0,0.7-0.2,1.4-0.7,2
				c-1.2,1.6-3.2,1.6-7.4,1.6h-5.7v-7H294.4z M292.6,138.7c3.4,0,4.3,0.1,5.4,0.5c0.3,0.1,2.7,1,2.7,3.7c0,1.8-0.9,3.2-3.2,3.7
				c-0.8,0.2-1.4,0.2-3.4,0.2h-8.2v-8H292.6z"/>
			<path class="st2" d="M321.7,139.7l7.5,9.7h4.4l-7.7-9.9c1.3-0.2,6.5-0.9,6.5-6.3c0-2.1-0.9-4-2.9-5.3c-2.1-1.4-4.4-1.4-8.2-1.4
				h-10.2v22.9h3.6v-9.7H321.7z M314.5,129h7.1c2.1,0,3.9,0,5.4,1c1.6,1.1,1.6,2.6,1.6,3.2c0,1.7-0.9,3.2-3.4,3.7
				c-1.1,0.2-2.2,0.2-3.4,0.2h-7.3V129z"/>
			<path class="st3" d="M321.7,139.7l7.5,9.7h4.4l-7.7-9.9c1.3-0.2,6.5-0.9,6.5-6.3c0-2.1-0.9-4-2.9-5.3c-2.1-1.4-4.4-1.4-8.2-1.4
				h-10.2v22.9h3.6v-9.7H321.7z M314.5,129h7.1c2.1,0,3.9,0,5.4,1c1.6,1.1,1.6,2.6,1.6,3.2c0,1.7-0.9,3.2-3.4,3.7
				c-1.1,0.2-2.2,0.2-3.4,0.2h-7.3V129z"/>
			<path class="st2" d="M364.6,137.7c0-7.5-6.1-11.8-13.9-11.8c-6.8,0-13.9,3.5-13.9,12.1c0,7.2,5.4,12.1,13.8,12.1
				C359.7,150,364.6,144.6,364.6,137.7 M360.6,137.7c0,4.7-2.4,9.8-9.8,9.8c-7.1,0-10-4.8-10-9.6c0-5.2,3-9.6,9.9-9.6
				C357.1,128.3,360.5,132.2,360.6,137.7"/>
			<path class="st3" d="M364.6,137.7c0-7.5-6.1-11.8-13.9-11.8c-6.8,0-13.9,3.5-13.9,12.1c0,7.2,5.4,12.1,13.8,12.1
				C359.7,150,364.6,144.6,364.6,137.7z M360.6,137.7c0,4.7-2.4,9.8-9.8,9.8c-7.1,0-10-4.8-10-9.6c0-5.2,3-9.6,9.9-9.6
				C357.1,128.3,360.5,132.2,360.6,137.7z"/>
			<path class="st0" d="M382.3,139.2c2.7,0.5,5.2,1.2,5.2,3.8c0,3-3,4.6-6.9,4.6c-2,0-4.1-0.4-5.7-1.5c-2.1-1.5-2.2-3.5-2.2-4.4
				l-4,0.4c0.6,7.6,9.2,7.9,11.7,7.9c1.7,0,4.8-0.1,7.5-1.6c2.5-1.4,3.5-3.4,3.5-5.6c0-1.5-0.6-4.3-4.8-5.7c-1.1-0.4-2.2-0.6-4.3-1
				l-3.1-0.6c-2.4-0.5-5.4-1-5.4-3.6c0-2.5,2.9-3.6,6.3-3.6c1.8,0,3.5,0.3,4.9,1.1c2.1,1.3,2.2,3.1,2.2,3.8l3.7-0.2
				c-0.3-1.4-0.8-3.7-3.6-5.4c-2.5-1.5-5.5-1.7-7.4-1.7c-1.9,0-4.9,0.2-7.4,1.9c-1.1,0.7-2.5,2.2-2.5,4.5c0,4.7,5.9,5.9,9.8,6.5
				L382.3,139.2z"/>
			<path class="st3" d="M382.3,139.2c2.7,0.5,5.2,1.2,5.2,3.8c0,3-3,4.6-6.9,4.6c-2,0-4.1-0.4-5.7-1.5c-2.1-1.5-2.2-3.5-2.2-4.4
				l-4,0.4c0.6,7.6,9.2,7.9,11.7,7.9c1.7,0,4.8-0.1,7.5-1.6c2.5-1.4,3.5-3.4,3.5-5.6c0-1.5-0.6-4.3-4.8-5.7c-1.1-0.4-2.2-0.6-4.3-1
				l-3.1-0.6c-2.4-0.5-5.4-1-5.4-3.6c0-2.5,2.9-3.6,6.3-3.6c1.8,0,3.5,0.3,4.9,1.1c2.1,1.3,2.2,3.1,2.2,3.8l3.7-0.2
				c-0.3-1.4-0.8-3.7-3.6-5.4c-2.5-1.5-5.5-1.7-7.4-1.7c-1.9,0-4.9,0.2-7.4,1.9c-1.1,0.7-2.5,2.2-2.5,4.5c0,4.7,5.9,5.9,9.8,6.5
				L382.3,139.2z"/>
			<rect x="393.3" y="145.7" class="st0" width="3.9" height="3.7"/>
			<rect x="393.3" y="145.7" class="st3" width="3.9" height="3.7"/>
			<path class="st2" d="M143,139.7l7.5,9.7h4.4l-7.7-9.9c1.3-0.2,6.5-0.9,6.5-6.3c0-2.1-0.9-4-2.9-5.3c-2.1-1.4-4.4-1.4-8.2-1.4
				h-10.2v22.9h3.6v-9.7H143z M135.9,129h7.1c2.1,0,3.9,0,5.4,1c1.6,1.1,1.6,2.6,1.6,3.2c0,1.7-0.9,3.2-3.4,3.7
				c-1.1,0.2-2.2,0.2-3.4,0.2h-7.3V129z"/>
			<path class="st3" d="M143,139.7l7.5,9.7h4.4l-7.7-9.9c1.3-0.2,6.5-0.9,6.5-6.3c0-2.1-0.9-4-2.9-5.3c-2.1-1.4-4.4-1.4-8.2-1.4
				h-10.2v22.9h3.6v-9.7H143z M135.9,129h7.1c2.1,0,3.9,0,5.4,1c1.6,1.1,1.6,2.6,1.6,3.2c0,1.7-0.9,3.2-3.4,3.7
				c-1.1,0.2-2.2,0.2-3.4,0.2h-7.3V129z"/>
			<rect x="159.5" y="126.5" class="st0" width="3.7" height="22.9"/>
			<rect x="159.5" y="126.5" class="st3" width="3.7" height="22.9"/>
			<path class="st0" d="M191.7,140.7c-0.9,4.8-5,6.8-9.1,6.8c-6.4,0-9.8-4-9.8-9.7c0-2.3,0.5-4.7,2.3-6.6c1.8-1.9,4.6-2.9,7.6-2.9
				c3.5,0,5.9,1.3,7.2,2.7c1,1,1.3,1.7,1.6,2.6l3.7-0.6c-0.7-1.5-3-7-12.5-7c-9.5,0-14,5.6-14,12.1c0,6.4,4.4,12.1,13.5,12.1
				c8,0,12.4-4.6,13.6-8.9L191.7,140.7z"/>
			<path class="st3" d="M191.7,140.7c-0.9,4.8-5,6.8-9.1,6.8c-6.4,0-9.8-4-9.8-9.7c0-2.3,0.5-4.7,2.3-6.6c1.8-1.9,4.6-2.9,7.6-2.9
				c3.5,0,5.9,1.3,7.2,2.7c1,1,1.3,1.7,1.6,2.6l3.7-0.6c-0.7-1.5-3-7-12.5-7c-9.5,0-14,5.6-14,12.1c0,6.4,4.4,12.1,13.5,12.1
				c8,0,12.4-4.6,13.6-8.9L191.7,140.7z"/>
			<polygon class="st0" points="218.6,149.4 222.3,149.4 222.3,126.4 218.6,126.4 218.6,136.2 203.6,136.2 203.6,126.4 199.9,126.4 
				199.9,149.4 203.6,149.4 203.6,138.9 218.6,138.9 			"/>
			<polygon class="st3" points="218.6,149.4 222.3,149.4 222.3,126.4 218.6,126.4 218.6,136.2 203.6,136.2 203.6,126.4 199.9,126.4 
				199.9,149.4 203.6,149.4 203.6,138.9 218.6,138.9 			"/>
			<path class="st0" d="M22,126.4V142c0,2.5,0,3.8-1.7,4.5c-0.7,0.4-1.8,0.5-2.6,0.5c-1.4,0-2.5-0.3-3.2-0.7v3.3
				c0.6,0.1,1.8,0.3,3.7,0.3c1.5,0,4-0.1,5.9-1.9c1.6-1.5,1.6-3,1.6-4.8v-16.9H22z"/>
			<path class="st3" d="M22,126.4V142c0,2.5,0,3.8-1.7,4.5c-0.7,0.4-1.8,0.5-2.6,0.5c-1.4,0-2.5-0.3-3.2-0.7v3.3
				c0.6,0.1,1.8,0.3,3.7,0.3c1.5,0,4-0.1,5.9-1.9c1.6-1.5,1.6-3,1.6-4.8v-16.9H22z"/>
			<path class="st2" d="M59.4,137.7c0-7.5-6.1-11.8-13.9-11.8c-6.8,0-13.9,3.5-13.9,12.1c0,7.2,5.4,12.1,13.8,12.1
				C54.5,150,59.4,144.6,59.4,137.7 M55.4,137.7c0,4.7-2.4,9.8-9.8,9.8c-7.1,0-10-4.8-10-9.6c0-5.2,3-9.6,9.9-9.6
				C51.9,128.3,55.3,132.2,55.4,137.7"/>
			<path class="st3" d="M59.4,137.7c0-7.5-6.1-11.8-13.9-11.8c-6.8,0-13.9,3.5-13.9,12.1c0,7.2,5.4,12.1,13.8,12.1
				C54.5,150,59.4,144.6,59.4,137.7z M55.4,137.7c0,4.7-2.4,9.8-9.8,9.8c-7.1,0-10-4.8-10-9.6c0-5.2,3-9.6,9.9-9.6
				C51.9,128.3,55.3,132.2,55.4,137.7z"/>
			<polygon class="st0" points="83.9,149.4 87.6,149.4 87.6,126.4 83.9,126.4 83.9,136.2 68.9,136.2 68.9,126.4 65.2,126.4 
				65.2,149.4 68.9,149.4 68.9,138.9 83.9,138.9 			"/>
			<polygon class="st3" points="83.9,149.4 87.6,149.4 87.6,126.4 83.9,126.4 83.9,136.2 68.9,136.2 68.9,126.4 65.2,126.4 
				65.2,149.4 68.9,149.4 68.9,138.9 83.9,138.9 			"/>
			<polygon class="st0" points="113.6,126.5 113.7,144.9 98.8,126.5 95.3,126.5 95.3,149.4 98.8,149.4 98.4,130.8 113.6,149.4 
				116.9,149.4 116.9,126.5 			"/>
			<polygon class="st3" points="113.6,126.5 113.7,144.9 98.8,126.5 95.3,126.5 95.3,149.4 98.8,149.4 98.4,130.8 113.6,149.4 
				116.9,149.4 116.9,126.5 			"/>
		</g>
	</g>
</g>
</svg>
