<svg width="75" height="75" viewBox="0 0 265 265" fill="none" xmlns="http://www.w3.org/2000/svg">
<path fill-rule="evenodd" clip-rule="evenodd" d="M105.061 67.8553C105.061 72.5974 102.725 76.0031 97.5161 77.4257C103.579 78.5897 106.812 81.9092 106.812 87.9015V88.1601C106.812 96.3941 101.378 100.662 90.5106 100.662H69V56H89.6574C99.8513 56 105.061 59.923 105.061 67.5966V67.8553ZM87.906 62.9407H79.2838V74.3649H87.9509C93.1152 74.3649 95.0462 72.6405 95.0462 68.6313V68.3726C95.0462 64.622 92.8458 62.9407 87.906 62.9407ZM88.849 93.6351C94.0583 93.6351 96.3935 91.3934 96.3935 87.341V87.1255C96.3935 82.9438 94.0583 80.8745 88.355 80.8745H79.2838V93.6351H88.849ZM176.564 155.326C171.399 155.326 167.133 154.162 163.765 151.877C160.397 149.549 158.69 146.1 158.601 141.487L158.646 140.065H168.076L168.031 141.099C168.031 142.996 168.705 144.505 170.142 145.626C171.579 146.747 173.6 147.307 176.159 147.307C179.168 147.307 181.324 146.833 182.626 145.885C183.928 144.936 184.602 143.686 184.602 142.22C184.602 141.099 184.198 140.194 183.39 139.461C182.626 138.771 181.593 138.211 180.381 137.78C179.168 137.349 177.462 136.875 175.261 136.357C171.983 135.495 169.334 134.676 167.268 133.857C165.202 132.995 163.451 131.701 161.924 129.848C160.442 128.037 159.678 125.58 159.678 122.476C159.678 119.587 160.487 117.173 162.014 115.147C163.585 113.121 165.651 111.655 168.256 110.664C170.86 109.672 173.779 109.198 177.013 109.198C181.952 109.198 185.994 110.319 189.138 112.517C192.281 114.716 193.853 117.992 193.853 122.346V123.122H184.467V122.519C184.467 120.881 183.839 119.587 182.536 118.639C181.234 117.691 179.483 117.216 177.192 117.216C174.812 117.216 172.971 117.604 171.669 118.38C170.366 119.156 169.693 120.191 169.693 121.441C169.693 122.519 170.097 123.424 170.905 124.157C171.759 124.89 172.791 125.45 174.049 125.881C175.351 126.313 177.058 126.787 179.258 127.304C182.446 128.08 185.141 128.899 187.207 129.718C189.272 130.537 191.069 131.831 192.551 133.555C194.033 135.279 194.796 137.607 194.796 140.539C194.796 145.626 193.179 149.376 189.946 151.748C186.713 154.119 182.222 155.326 176.564 155.326ZM143.827 112.128C140.773 110.576 137.405 109.756 133.678 109.756H115.31V154.634H133.678C137.405 154.634 140.773 153.858 143.827 152.263C146.88 150.711 149.305 148.426 151.102 145.409C152.898 142.391 153.796 138.856 153.796 134.76V129.673C153.796 125.578 152.898 122.043 151.102 119.025C149.305 115.964 146.88 113.679 143.827 112.128ZM143.153 136.183C143.153 139.502 142.3 142.046 140.503 143.857C138.752 145.667 136.462 146.573 133.678 146.573H125.504V117.818H133.678C136.462 117.818 138.752 118.723 140.503 120.534C142.255 122.345 143.153 124.888 143.153 128.208V136.183ZM96.1689 140.28L79.3736 109.758H69.9431H69V154.636H78.2509L77.8018 124.114L94.6421 154.636H104.073H105.016V109.758H95.7199L96.1689 140.28ZM142.571 165.286C139.517 163.691 136.06 162.915 132.332 162.915C128.605 162.915 125.147 163.734 122.048 165.286C118.995 166.881 116.525 169.209 114.684 172.227C112.887 175.245 111.944 178.866 111.944 183.005V189.212C111.944 193.351 112.842 196.972 114.684 199.99C116.48 203.008 118.95 205.379 122.048 206.931C124.788 208.353 127.976 209 132.332 209C136.688 209 139.832 208.353 142.571 206.931C145.625 205.336 148.095 203.008 149.936 199.99C151.732 196.972 152.675 193.351 152.675 189.212V183.005C152.675 178.866 151.777 175.245 149.936 172.227C148.095 169.166 145.625 166.838 142.571 165.286ZM141.987 181.496V190.678C141.987 193.955 141.089 196.498 139.293 198.309C137.497 200.076 135.161 200.982 132.287 200.982C129.413 200.982 127.078 200.076 125.282 198.309C123.486 196.541 122.587 193.955 122.587 190.678V181.496C122.587 178.219 123.486 175.676 125.282 173.865C127.078 172.098 129.413 171.192 132.287 171.192C135.161 171.192 137.497 172.098 139.293 173.865C141.089 175.676 141.987 178.219 141.987 181.496ZM194.832 177.183C194.832 179.683 194.249 181.968 193.036 184.08C191.824 186.193 190.162 187.874 188.096 189.124C186.03 190.331 183.74 190.935 181.225 190.935H170.762V208.308H160.658V163.431H181.225C183.65 163.431 185.941 163.991 188.006 165.155C190.117 166.276 191.779 167.871 192.991 169.94C194.204 171.966 194.832 174.251 194.832 176.795V177.183ZM182.977 181.321C184.099 180.244 184.638 178.907 184.638 177.441V177.053C184.638 175.501 184.099 174.208 183.022 173.087C181.944 171.966 180.552 171.406 178.845 171.406H170.762V183.003H178.845C180.507 183.003 181.899 182.442 182.977 181.321ZM94.0134 181.191H78.8796V163.387H69V208.264H78.9245V189.555H94.0134V208.264H103.893V163.387H94.0134V181.191ZM125.774 83.418H131.387H131.432L140.818 100.662H151.64L141.312 81.6936H141.402C144.051 80.9607 146.476 79.6243 148.227 77.6844C149.979 75.7444 150.967 73.244 150.967 69.7952V69.5366C150.967 64.9669 149.215 61.5612 146.072 59.2764C142.973 57.0778 138.483 56 133.004 56H115.31V100.662H125.774V83.418ZM125.774 63.7598H132.734C137.854 63.7598 141.087 65.3118 141.087 69.8814V70.1401C141.087 74.408 137.989 76.5635 132.734 76.5635H125.774V63.7598ZM159.623 89.0659V80.5301H172.646L159.039 56.3022H169.817L194.74 100.663H183.963L177.451 89.0659H159.623ZM191.507 202.574C191.777 202.358 191.912 202.013 191.912 201.539C191.912 200.979 191.732 200.591 191.418 200.375C191.103 200.16 190.564 200.03 189.891 200.03H187.78V205.333H188.678V203.048H189.531L190.969 205.333H192.001L190.475 203.005C190.879 202.919 191.193 202.789 191.507 202.574ZM189.711 202.272H188.678V200.72H189.756H190.16C190.295 200.72 190.43 200.763 190.564 200.806C190.699 200.849 190.789 200.936 190.834 201.022C190.924 201.108 190.969 201.237 190.969 201.41C190.969 201.625 190.924 201.755 190.879 201.884L190.609 202.143L190.205 202.272H189.711ZM183.336 202.532C183.336 199.169 186.165 196.41 189.668 196.41C193.171 196.41 196 199.126 196 202.532C196 205.894 193.171 208.653 189.668 208.653C186.165 208.653 183.336 205.894 183.336 202.532ZM183.785 202.488C183.785 205.635 186.435 208.179 189.668 208.179C192.946 208.179 195.551 205.635 195.551 202.488C195.551 199.341 192.901 196.798 189.668 196.798C186.435 196.798 183.785 199.341 183.785 202.488Z" fill="black"/>
</svg>
